<svg width="82" height="82" viewBox="0 0 82 82" fill="none" xmlns="http://www.w3.org/2000/svg">
<path d="M37.3886 19.8126C32.5421 18.9625 29.2072 15.2132 29.1531 10.5522C29.1034 6.21167 32.0863 2.34053 36.277 1.28887C36.5523 1.21966 36.8757 1.25126 37.0908 1H39.9473C40.7776 1.31745 41.6651 1.44383 42.4819 1.81846C46.1191 3.48999 48.4506 7.43184 48.0249 11.2338C47.5435 15.5292 44.6524 18.785 40.5339 19.6666C40.2887 19.7193 40.0436 19.7644 39.7984 19.8126C38.9951 19.8126 38.1904 19.8126 37.3871 19.8126H37.3886ZM36.8712 3.50804C36.5372 3.60583 36.1913 3.67504 35.8709 3.80744C33.0445 4.98247 31.1898 7.90576 31.4154 10.811C31.6726 14.139 33.8236 16.6591 37.0818 17.4459C37.885 17.6521 38.6777 17.6927 39.5156 17.5708C45.0225 16.7704 47.6278 10.489 44.2704 6.05219C42.5586 3.78939 39.2914 2.66551 36.8727 3.50804H36.8712Z" fill="#375E7D"/>
<path d="M14.3893 78C13.8147 77.681 13.4371 77.2372 13.6462 76.5436C13.8568 75.8485 14.4224 75.7266 15.0752 75.7372C16.0966 75.7522 17.1194 75.7236 18.1408 75.7146C18.4657 75.7236 18.7891 75.7417 19.114 75.7432C29.8932 75.7432 40.6738 75.7447 51.453 75.7432C52.4789 75.7432 53.5032 75.7296 54.5291 75.7236C56.086 75.7236 57.6428 75.7266 59.1997 75.7281C60.1187 75.7342 61.0378 75.7552 61.9569 75.7387C62.6052 75.7281 63.234 75.7477 63.5228 76.4548C63.795 77.1213 63.3829 77.5727 62.9542 78H14.3893Z" fill="#395F7E"/>
<path d="M71.2213 42.8092H71.1611H71.101C71.101 40.5028 71.101 38.1963 71.101 35.8914C71.1401 35.8914 71.1807 35.8914 71.2198 35.8914V42.8092H71.2213Z" fill="#FDFDFD"/>
<path d="M31.0604 56.0535C27.9904 56.0475 24.9188 56.0415 21.8487 56.034C21.5253 56.034 21.2004 56.0159 20.877 56.0069C20.877 44.9005 20.8785 33.7941 20.88 22.6877C25.4091 22.6787 29.9383 22.6696 34.466 22.6606C35.4422 22.6591 36.4184 22.6531 37.3932 22.6501C38.1949 22.6501 38.9967 22.6501 39.7969 22.6501C45.1684 22.6531 50.5385 22.6561 55.91 22.6621C56.1597 22.6621 56.4079 22.6757 56.6576 22.6817C57.2141 23.0413 57.3961 23.5438 57.3946 24.2088C57.3796 34.3026 57.3781 44.3965 57.3946 54.4918C57.3946 55.1583 57.2021 55.6563 56.6561 56.0219C53.5273 56.0279 50.4001 56.0309 47.2713 56.0385C46.8968 56.0385 46.5207 56.055 46.1462 56.0625C44.6344 56.0625 43.1212 56.0625 41.6095 56.0625C38.0926 56.0595 34.5758 56.058 31.0604 56.055V56.0535ZM53.9214 40.7841C53.8763 40.2861 53.7951 39.6437 53.604 39.0223C52.9181 36.7881 51.5703 34.9751 49.9533 33.3412C49.1666 32.5468 48.6507 32.5348 47.8549 33.3518C46.9118 34.3192 46.0454 35.3543 45.3595 36.5248C44.3757 38.1993 43.6687 39.9777 44.0658 41.9456C44.6149 44.6673 46.9825 46.0605 49.1711 45.916C51.8998 45.737 53.9139 43.5163 53.9214 40.7856V40.7841ZM32.9543 38.1662C31.1778 38.1662 29.4013 38.1632 27.6248 38.1707C27.3526 38.1707 27.0773 38.2008 26.8111 38.258C26.2395 38.3829 25.9807 38.7786 25.9687 39.3413C25.9567 39.8874 26.2349 40.2319 26.7479 40.3989C27.0848 40.5088 27.4293 40.5329 27.7828 40.5329C31.2364 40.5283 34.6886 40.5283 38.1423 40.5329C38.4958 40.5329 38.8523 40.5329 39.1726 40.3854C39.5998 40.1913 39.9308 39.8904 39.9383 39.3714C39.9458 38.8643 39.6705 38.5348 39.2358 38.3122C38.9575 38.1692 38.6612 38.1647 38.3589 38.1647C36.5568 38.1677 34.7548 38.1662 32.9543 38.1662ZM33.0099 27.7579C31.1056 27.7579 29.2012 27.7579 27.2969 27.7594C27.0247 27.7594 26.7479 27.7263 26.5027 27.9084C26.083 28.2198 25.8423 28.614 25.9988 29.1376C26.1778 29.7409 26.6185 30.0162 27.2458 30.0147C29.2509 30.0117 31.2545 30.0147 33.2596 30.0147C35.0391 30.0147 36.8171 30.0268 38.5965 30.0087C39.4284 29.9997 39.9323 29.5528 39.9428 28.8969C39.9533 28.2093 39.4208 27.761 38.574 27.7594C36.7193 27.7564 34.8661 27.7594 33.0114 27.7594L33.0099 27.7579ZM32.9317 50.9351C34.8104 50.9351 36.6892 50.9396 38.5665 50.9336C39.4254 50.9306 39.9563 50.4762 39.9383 49.7872C39.9217 49.1237 39.4073 48.6844 38.592 48.6829C34.8345 48.6768 31.0785 48.6768 27.321 48.6829C26.4636 48.6829 25.9657 49.1282 25.9672 49.8504C25.9672 50.5229 26.4606 50.9321 27.2969 50.9351C29.1757 50.9396 31.0544 50.9351 32.9317 50.9366V50.9351ZM32.9903 33.0147C31.0875 33.0147 29.1832 33.0102 27.2804 33.0163C26.4124 33.0193 26.0078 33.3367 25.9672 34.0168C25.9251 34.7404 26.4019 35.258 27.2473 35.2625C31.0544 35.2821 34.8616 35.2806 38.6687 35.2625C39.3983 35.2595 39.9398 34.7254 39.9398 34.1311C39.9398 33.4721 39.4163 33.0193 38.6251 33.0163C36.7464 33.0102 34.8676 33.0147 32.9903 33.0147ZM32.9588 45.6813C34.8119 45.6813 36.6651 45.6828 38.5198 45.6813C39.3968 45.6813 39.9142 45.2796 39.9398 44.5951C39.9654 43.915 39.4374 43.4321 38.574 43.4306C34.8165 43.4185 31.0604 43.417 27.3029 43.4306C26.4365 43.4336 25.9522 43.903 25.9672 44.6221C25.9822 45.2841 26.4786 45.6783 27.324 45.6798C29.2028 45.6843 31.0815 45.6798 32.9603 45.6798L32.9588 45.6813Z" fill="#3060FF"/>
<path d="M56.6576 56.0189C57.2036 55.6533 57.3976 55.1568 57.3961 54.4888C57.3796 44.395 57.3796 34.3011 57.3961 24.2058C57.3961 23.5408 57.2156 23.0383 56.6591 22.6787C58.0023 22.6712 59.3471 22.6501 60.6904 22.6621C61.456 22.6697 61.8772 23.103 61.8907 23.8808C61.9133 25.1251 61.9103 26.3693 61.9178 27.615C61.9103 34.2635 61.9012 40.9135 61.8967 47.562C61.8967 48.6859 61.9163 49.8098 61.9253 50.9351C61.9148 52.1613 61.9058 53.389 61.8937 54.6152C61.8832 55.6217 61.4876 56.031 60.4873 56.034C59.2102 56.0385 57.9331 56.0249 56.6561 56.0174L56.6576 56.0189Z" fill="#1F50F5"/>
<path d="M61.9253 50.9366C61.9147 49.8127 61.8952 48.6889 61.8967 47.5635C61.9012 40.915 61.9102 34.265 61.9177 27.6165C62.8173 27.6195 63.7183 27.6225 64.6178 27.6225C66.1115 27.624 66.5327 28.0182 66.5507 29.5212C66.5733 31.2966 66.5567 33.0719 66.5582 34.8473C66.4424 34.9962 66.4544 35.1737 66.4544 35.3468C66.4544 37.9827 66.4514 40.6201 66.459 43.256C66.459 43.4486 66.5281 43.6412 66.5642 43.8353C66.5612 45.4827 66.5703 47.1302 66.5492 48.7776C66.5432 49.2711 66.4966 49.7751 66.3852 50.2536C66.2694 50.7501 65.8889 50.9472 65.3699 50.9381C64.2222 50.9201 63.0745 50.9351 61.9268 50.9351L61.9253 50.9366Z" fill="#D1CDE5"/>
<path d="M66.5643 43.8368C66.5282 43.6442 66.459 43.4516 66.459 43.2575C66.4514 40.6216 66.4545 37.9842 66.4545 35.3483C66.4545 35.1737 66.4424 34.9977 66.5582 34.8488C67.6022 34.8503 68.6446 34.8608 69.6885 34.8503C70.4301 34.8427 70.931 35.1361 71.1025 35.8899C71.1025 38.1963 71.1025 40.5028 71.1025 42.8077C70.9144 43.5464 70.4195 43.8428 69.681 43.8338C68.6431 43.8202 67.6037 43.8338 66.5658 43.8338L66.5643 43.8368Z" fill="#375E7D"/>
<path d="M39.7969 22.6486C38.9952 22.6486 38.1934 22.6486 37.3932 22.6486C37.3932 21.7022 37.3902 20.7574 37.3887 19.8126C38.1919 19.8126 38.9967 19.8126 39.7999 19.8126C39.7999 20.7589 39.7984 21.7053 39.7969 22.6501V22.6486Z" fill="#D1CDE5"/>
<path d="M20.8784 22.6877C20.8784 33.7941 20.8754 44.9005 20.8754 56.0069C19.4494 56.0024 18.0084 56.1258 16.599 55.9678C12.8023 55.5405 10.3279 52.8564 10 48.9748C10 42.558 10 36.1412 10 29.7244C10.3625 25.4094 13.3393 22.6652 17.6624 22.6622C18.7349 22.6622 19.8074 22.6772 20.8784 22.6862V22.6877Z" fill="#395F7E"/>
<path d="M54.5277 75.7237C53.5018 75.7312 52.4774 75.7433 51.4516 75.7433C40.6724 75.7433 29.8917 75.7433 19.1126 75.7433C18.7877 75.7433 18.4642 75.7252 18.1393 75.7147C18.1408 74.5126 18.2236 73.3044 18.1228 72.1128C18.004 70.7076 19.6089 68.9202 21.2892 68.9624C23.6899 69.0225 26.0921 68.9804 28.4943 68.9804C30.6438 68.9774 32.7948 68.9774 34.9444 68.9714C38.019 68.9624 41.0936 68.9488 44.1682 68.9383C45.7025 68.9458 47.2368 68.9533 48.7711 68.9609C49.8917 68.9669 51.0123 68.9744 52.133 68.9804C53.8748 69.6996 54.7277 70.9423 54.5487 72.8801C54.4615 73.8205 54.5292 74.7743 54.5277 75.7222V75.7237Z" fill="#DBD9EA"/>
<path d="M48.7724 68.9623C47.2381 68.9548 45.7039 68.9473 44.1696 68.9398C44.1635 68.7893 44.1771 68.6359 44.1485 68.4899C43.3046 64.3465 42.4578 60.2045 41.6109 56.0626C43.1226 56.0626 44.6359 56.0626 46.1476 56.0626C47.023 60.3625 47.897 64.6639 48.7724 68.9638V68.9623Z" fill="#2C4D66"/>
<path d="M54.5276 75.7236C54.5291 74.7758 54.4614 73.8219 54.5486 72.8816C54.7276 70.9438 53.8747 69.701 52.1329 68.9819C53.3077 68.9789 54.4824 68.9728 55.6572 68.9759C57.7646 68.9789 59.1575 70.3736 59.1801 72.504C59.1921 73.5782 59.1921 74.6539 59.1981 75.7282C57.6413 75.7282 56.0844 75.7251 54.5276 75.7236Z" fill="#D1CDE5"/>
<path d="M41.6095 56.061C42.4563 60.203 43.3047 64.3465 44.1471 68.4884C44.1771 68.6344 44.1621 68.7878 44.1681 68.9383C41.0935 68.9488 38.0189 68.9623 34.9443 68.9714C32.7948 68.9774 30.6438 68.9774 28.4943 68.9804C28.7364 67.0967 29.2073 65.2552 29.5728 63.3956C30.0541 60.9447 30.5626 58.5014 31.0589 56.0535C34.5758 56.0565 38.0926 56.058 41.608 56.061H41.6095Z" fill="#395F7E"/>
<path d="M37.0803 17.4444C33.8237 16.6576 31.6726 14.1375 31.4139 10.8095C31.1883 7.90425 33.043 4.98096 35.8694 3.80593C36.1883 3.67353 36.5358 3.60432 36.8697 3.50653C38.8131 3.94134 40.2301 5.08327 41.2725 6.74878C43.1874 9.81048 42.3676 13.7629 39.6585 15.9911C38.8733 16.6365 37.9497 16.9795 37.0803 17.4444ZM39.6886 10.4349C39.6826 9.9158 39.4389 9.60135 39.0147 9.40426C38.5363 9.18159 38.1302 9.33505 37.7857 9.67207C37.0351 10.4063 36.2936 11.151 35.5565 11.9003C34.9984 12.4675 34.9413 13.155 35.3956 13.6244C35.8498 14.0954 36.5523 14.0593 37.1209 13.5071C37.8384 12.8105 38.5379 12.0943 39.2478 11.3902C39.5261 11.1149 39.7141 10.8035 39.6886 10.4364V10.4349Z" fill="#FDFDFD"/>
<path d="M37.0803 17.4444C37.9497 16.9795 38.8733 16.6365 39.6585 15.9911C42.3676 13.7629 43.1874 9.81049 41.2725 6.74879C40.2316 5.08328 38.8146 3.94134 36.8697 3.50654C39.2885 2.664 42.5541 3.78788 44.2674 6.05069C47.6248 10.4875 45.0195 16.7689 39.5126 17.5693C38.6747 17.6912 37.882 17.6506 37.0788 17.4444H37.0803Z" fill="#DBD9EA"/>
<path d="M53.9214 40.7841C53.9139 43.5163 51.8997 45.7355 49.1711 45.9145C46.9825 46.059 44.6148 44.6673 44.0658 41.9441C43.6687 39.9747 44.3757 38.1963 45.3594 36.5233C46.0469 35.3528 46.9133 34.3177 47.8549 33.3502C48.6521 32.5333 49.1681 32.5453 49.9533 33.3397C51.5703 34.9751 52.9181 36.7881 53.604 39.0208C53.795 39.6437 53.8763 40.2861 53.9214 40.7826V40.7841Z" fill="#F8F6F7"/>
<path d="M32.9542 38.1662C34.7563 38.1662 36.5583 38.1677 38.3589 38.1647C38.6612 38.1647 38.9575 38.1692 39.2358 38.3122C39.669 38.5348 39.9443 38.8643 39.9383 39.3714C39.9308 39.8904 39.5998 40.1913 39.1726 40.3854C38.8522 40.5313 38.4957 40.5329 38.1423 40.5329C34.6886 40.5283 31.2364 40.5283 27.7828 40.5329C27.4293 40.5329 27.0848 40.5088 26.7479 40.3989C26.2349 40.2319 25.9567 39.8874 25.9687 39.3413C25.9807 38.7771 26.2395 38.3814 26.8111 38.258C27.0758 38.2008 27.3526 38.1708 27.6248 38.1708C29.4013 38.1632 31.1778 38.1662 32.9542 38.1662Z" fill="#1F50F5"/>
<path d="M33.0099 27.758C34.8646 27.758 36.7177 27.755 38.5724 27.758C39.4178 27.7595 39.9518 28.2093 39.9413 28.8954C39.9307 29.5529 39.4268 29.9997 38.595 30.0072C36.817 30.0253 35.0375 30.0132 33.2581 30.0132C31.253 30.0132 29.2493 30.0117 27.2442 30.0132C26.617 30.0132 26.1762 29.7379 25.9972 29.1361C25.8423 28.611 26.083 28.2184 26.5012 27.9069C26.7463 27.7249 27.0246 27.758 27.2954 27.758C29.1997 27.755 31.104 27.7565 33.0084 27.7565L33.0099 27.758Z" fill="#1F50F5"/>
<path d="M32.9317 50.9351C31.053 50.9351 29.1742 50.9381 27.2969 50.9336C26.4606 50.9321 25.9687 50.5214 25.9672 49.8488C25.9672 49.1282 26.4636 48.6828 27.321 48.6813C31.0785 48.6753 34.8345 48.6753 38.5921 48.6813C39.4073 48.6813 39.9218 49.1222 39.9383 49.7857C39.9564 50.4747 39.4254 50.9291 38.5665 50.9321C36.6877 50.9381 34.809 50.9336 32.9317 50.9336V50.9351Z" fill="#1F50F5"/>
<path d="M32.9903 33.0147C34.8691 33.0147 36.7478 33.0117 38.6251 33.0163C39.4163 33.0193 39.9398 33.4721 39.9398 34.1311C39.9398 34.7254 39.3983 35.2595 38.6687 35.2625C34.8616 35.2806 31.0544 35.2821 27.2473 35.2625C26.4004 35.258 25.9251 34.7404 25.9672 34.0168C26.0063 33.3367 26.4109 33.0193 27.2804 33.0163C29.1832 33.0102 31.0875 33.0147 32.9903 33.0147Z" fill="#1F50F5"/>
<path d="M32.9588 45.6813C31.08 45.6813 29.2012 45.6843 27.3225 45.6813C26.4771 45.6798 25.9807 45.2841 25.9657 44.6236C25.9491 43.906 26.4335 43.4351 27.3014 43.4321C31.0589 43.417 34.8149 43.4185 38.5725 43.4321C39.4359 43.4351 39.9639 43.9165 39.9383 44.5966C39.9127 45.2811 39.3953 45.6813 38.5183 45.6828C36.6651 45.6858 34.8119 45.6828 32.9572 45.6828L32.9588 45.6813Z" fill="#1F50F5"/>
<path d="M39.6886 10.4349C39.7142 10.8035 39.5261 11.1134 39.2479 11.3887C38.5379 12.0928 37.8399 12.8105 37.1209 13.5056C36.5508 14.0577 35.8499 14.0939 35.3956 13.6229C34.9428 13.1535 34.9985 12.466 35.5565 11.8988C36.2936 11.1495 37.0337 10.4063 37.7858 9.67056C38.1302 9.33354 38.5364 9.18008 39.0147 9.40275C39.4389 9.59984 39.6826 9.91429 39.6886 10.4333V10.4349Z" fill="#F87931"/>
</svg>
