<svg width="77" height="74" viewBox="0 0 77 74" fill="none" xmlns="http://www.w3.org/2000/svg">
<path d="M40.3157 2.16342C45.9466 2.44322 51.2394 3.97043 56.0891 6.82668C65.0776 12.1078 70.7318 19.8721 73.1683 29.9914C73.5414 31.5303 73.5297 31.542 75.1152 31.542C75.6282 31.542 76.1528 31.4953 76.6658 31.6469V32.2414C74.5906 34.9694 72.5155 37.6858 70.4403 40.4138C69.7292 41.3465 69.6359 41.3581 68.9364 40.4138C68.4584 39.7609 67.8872 39.1547 67.5025 38.4319C68.5167 37.0796 69.5543 35.7505 70.5336 34.3865C71.2914 33.314 71.1048 32.393 70.0556 31.6352C69.6476 31.3438 69.4144 30.994 69.3095 30.4927C68.645 27.2168 67.3626 24.1857 65.6721 21.3178C63.7369 18.0418 61.3586 15.1506 58.4907 12.6208C55.8327 10.2658 52.9414 8.28395 49.8171 6.61683C47.3339 5.28781 44.7458 4.2036 42.111 3.23597C41.7263 3.09607 41.3183 2.80462 40.8636 3.0611C40.6188 2.79296 40.4556 2.47819 40.3157 2.15176V2.16342Z" fill="#F87931"/>
<path d="M40.3161 2.16358C40.456 2.49 40.6075 2.81643 40.864 3.07291C42.193 5.49781 43.5687 7.91104 45.0493 10.2543C46.2034 12.2712 47.3576 14.2997 48.5118 16.3166C49.6543 18.3101 50.8084 20.3153 51.9626 22.3089C52.0558 23.4164 52.2424 24.5239 52.2307 25.6314C52.2074 27.9631 51.9043 30.2597 51.1698 32.4864C51.0299 32.9178 51.1232 33.116 51.4962 33.2792C51.298 33.2792 51.0882 33.2908 50.89 33.3025C50.2838 33.3025 49.8874 33.6989 49.4794 34.0603C46.8097 36.4502 42.5195 36.4269 39.8614 34.002C38.7655 32.9994 37.8912 33.0227 36.772 34.002C35.4546 35.1678 33.9041 35.774 32.1554 35.8323C30.2085 35.8906 28.5064 35.2494 27.0375 33.9437C26.0115 33.0227 25.1955 33.0227 24.1229 33.8971C22.7589 35.0046 21.255 35.7624 19.4597 35.809C19.5762 32.4165 20.7304 29.3504 22.4325 26.4592C25.5569 21.1547 28.623 15.8269 31.724 10.5108C31.7707 10.4292 31.8056 10.3243 31.8406 10.2427C32.237 9.57816 32.645 8.9253 33.0297 8.26079C34.1956 6.23227 35.3497 4.20375 36.5039 2.17523C36.772 1.74388 37.0751 1.32419 37.3083 0.869521C37.623 0.263297 38.0544 -0.086447 38.7655 0.0184764C39.57 0.519777 39.7565 1.46409 40.3044 2.15192L40.3161 2.16358Z" fill="#3C69FE"/>
<path d="M16.4283 65.4908C14.3181 63.917 12.4995 62.04 10.844 59.9998C6.60045 54.7653 4.07063 48.773 3.17295 42.1046C3.09135 41.5217 3.30119 40.7172 2.85818 40.4258C2.43849 40.146 1.70403 40.3558 1.10946 40.3209C0.759718 40.2976 0.305051 40.4957 0.0718877 40.0994C-0.172933 39.6797 0.270076 39.4232 0.468265 39.1434C2.43849 36.4504 4.43203 33.7573 6.41392 31.076C6.8919 30.4348 7.06678 30.4231 7.52144 31.041C9.59659 33.8156 11.6484 36.6136 13.7119 39.3882C13.8635 39.5864 14.0383 39.7846 13.9218 40.0644C13.7819 40.3908 13.4788 40.3325 13.2106 40.3325C12.4179 40.3325 11.6135 40.3558 10.8207 40.3325C10.4127 40.3209 10.3311 40.4374 10.3893 40.8455C11.6018 49.9971 16.1135 57.0736 23.9944 61.8651C35.2795 68.7201 49.8872 66.645 58.9222 57.0503C61.6735 54.1241 63.7254 50.7666 65.0661 46.9777C65.4391 45.9051 65.5324 45.8585 66.6283 45.9867C67.421 46.08 68.2138 46.1383 69.0065 46.2199C68.6101 47.6888 67.9806 49.0761 67.3277 50.4401C65.2409 54.7653 62.4197 58.5309 58.8056 61.7252C55.2149 64.9079 51.1929 67.2978 46.6578 68.8134C42.391 70.2357 38.0192 70.9118 33.4958 70.6204C31.0126 70.4572 28.5644 70.1541 26.1628 69.5129C23.4465 68.7784 20.835 67.7641 18.3519 66.4118C17.734 66.0737 17.1977 65.5141 16.4166 65.5258L16.4283 65.4908Z" fill="#F87931"/>
<path d="M56.1593 43.4916C54.0958 48.7961 50.4584 52.6083 45.0957 54.5319C38.3223 56.9684 32.0036 55.8959 26.3494 51.4308C24.6356 50.0901 23.2483 48.3997 22.1291 46.5227C22.0359 46.3712 21.9659 46.2196 21.9776 46.0331C22.2108 45.9981 22.4089 46.0914 22.6188 46.1847C25.0437 47.1523 27.5735 47.5487 30.1616 47.6652C31.3974 47.7235 32.6331 47.537 33.8572 47.3738C36.4104 47.0124 38.8236 46.208 41.062 44.9256C41.8431 44.4826 42.7174 44.1212 43.2654 43.3517L43.8483 43.1885C43.9066 43.5616 44.198 43.48 44.4312 43.48C46.3431 43.4916 48.0452 42.9437 49.4908 41.6613C50.6566 40.6237 51.6476 40.6354 52.7668 41.6963C53.4313 42.3258 54.224 42.7105 55.0634 43.0486C55.4248 43.2002 55.8445 43.2118 56.1476 43.4916H56.1593Z" fill="#D1CDE5"/>
<path d="M36.5151 2.17511C35.3609 4.20363 34.2067 6.23214 33.0409 8.26066C32.6562 8.92518 32.2482 9.57803 31.8518 10.2425C26.9787 11.3617 22.7584 13.7167 19.1211 17.1092C16.4281 19.6157 14.3296 22.5652 12.7791 25.9111C12.3594 26.8088 12.1495 26.902 11.2169 26.5756C9.64303 26.016 8.06918 25.4564 6.50699 24.8968C5.65594 24.5937 5.50439 24.2556 5.88911 23.4163C11.2985 11.8863 20.2403 4.89146 32.7961 2.58315C34.0202 2.36164 35.2676 2.25672 36.5151 2.17511Z" fill="#F87931"/>
<path d="M43.8601 43.1771C43.6619 43.2354 43.4754 43.282 43.2772 43.3403C41.9948 43.0488 40.829 42.5009 39.8497 41.6266C38.8121 40.6822 37.9261 40.6589 36.8302 41.6032C33.8924 44.1447 29.8353 44.1097 27.0024 41.5216C26.1164 40.7172 24.9972 40.6706 24.0529 41.545C23.0736 42.4543 21.9194 42.9906 20.6604 43.3403C19.7044 40.9271 19.3197 38.4206 19.4712 35.8325C21.2666 35.7858 22.7705 35.028 24.1345 33.9205C25.207 33.0462 26.0231 33.0345 27.049 33.9672C28.5063 35.2729 30.2084 35.9141 32.167 35.8558C33.9157 35.7975 35.4662 35.1913 36.7836 34.0254C37.9028 33.0345 38.7771 33.0228 39.873 34.0254C42.531 36.4503 46.8212 36.4737 49.491 34.0837C49.899 33.7223 50.2954 33.326 50.9016 33.326C49.7358 36.5203 47.9055 39.2833 45.4922 41.6848C44.9676 42.2095 44.2681 42.5476 43.8834 43.2121L43.8601 43.1771Z" fill="#DBD9EA"/>
<path d="M16.4285 65.4905C17.2096 65.4905 17.7458 66.0384 18.3637 66.3765C20.8469 67.7405 23.4583 68.7431 26.1747 69.4776C28.5763 70.1304 31.0245 70.4335 33.5077 70.5851C38.031 70.8766 42.4028 70.2004 46.6697 68.7781C51.2047 67.2625 55.2268 64.8726 58.8175 61.6899C62.4315 58.4956 65.2411 54.73 67.3396 50.4048C68.0041 49.0408 68.622 47.6535 69.0184 46.1846C70.0093 46.2779 71.0003 46.3362 71.9795 46.4644C72.5741 46.546 72.7257 46.989 72.5042 47.7584C71.5832 50.9295 70.2308 53.914 68.4355 56.6769C63.0028 65.0242 55.4366 70.4102 45.6904 72.4154C35.1048 74.5955 25.4169 72.2755 16.7432 65.7819C16.6267 65.6887 16.5334 65.5721 16.4285 65.4788V65.4905Z" fill="#F87931"/>
<path d="M45.0492 10.2541C43.5686 7.9108 42.1929 5.49756 40.8639 3.07267C41.3186 2.80453 41.7266 3.09598 42.1113 3.24754C44.7461 4.21517 47.3342 5.28772 49.8173 6.6284C52.9417 8.30718 55.833 10.2774 58.491 12.6323C61.3473 15.1622 63.7372 18.0534 65.6724 21.3293C67.3629 24.1972 68.6453 27.2283 69.3098 30.5043C69.4147 31.0056 69.6479 31.367 70.0559 31.6468C71.1168 32.4046 71.3033 33.3256 70.5339 34.3981C69.5546 35.7738 68.517 37.1028 67.5028 38.4435C65.9755 36.4499 64.4367 34.4447 62.9094 32.4512C62.7696 32.2647 62.6413 32.0781 62.7462 31.8333C62.8628 31.5768 63.1076 31.6118 63.3291 31.6002C63.9587 31.6002 64.5766 31.5535 65.1944 31.6002C65.859 31.6584 65.9989 31.4369 65.824 30.7957C65.1478 28.2543 64.2152 25.8177 62.8745 23.556C58.8174 16.736 52.9534 12.2943 45.2823 10.2541C45.2124 10.2308 45.1308 10.2541 45.0608 10.2424L45.0492 10.2541Z" fill="#F87931"/>
<path d="M20.6602 43.3283C21.9193 42.9786 23.0618 42.4423 24.0527 41.533C24.997 40.6586 26.1162 40.7053 27.0023 41.5097C29.8352 44.0978 33.8922 44.1327 36.8301 41.5913C37.9259 40.647 38.812 40.6819 39.8495 41.6146C40.8288 42.5006 41.9946 43.0369 43.277 43.3283C42.7174 44.1094 41.8547 44.4592 41.0736 44.9022C38.8353 46.1729 36.422 46.989 33.8689 47.3504C32.6448 47.5253 31.409 47.7001 30.1733 47.6419C27.5852 47.5253 25.0553 47.1289 22.6304 46.1613C22.4206 46.0797 22.2224 45.9747 21.9892 46.0097H22.0009C21.9543 45.9514 21.896 45.9048 21.8493 45.8465C21.3247 45.0654 20.9517 44.2027 20.6719 43.305L20.6602 43.3283Z" fill="#D1CDE5"/>
<path d="M43.8601 43.1767C44.2565 42.5122 44.9443 42.1741 45.4689 41.6495C47.8822 39.2479 49.7125 36.4966 50.8783 33.2906C51.0765 33.2906 51.2863 33.279 51.4845 33.2673C51.9625 33.3606 52.3356 33.6404 52.697 33.9551C54.0493 35.1676 55.6465 35.7388 57.4418 35.7971C57.5701 38.4552 57.1387 41.0083 56.1478 43.4798C55.8447 43.2 55.425 43.1884 55.0636 43.0368C54.2359 42.6987 53.4314 42.314 52.7669 41.6845C51.6361 40.6236 50.6568 40.6119 49.491 41.6495C48.0454 42.9319 46.3433 43.4798 44.4314 43.4682C44.1982 43.4682 43.9067 43.5498 43.8484 43.1767H43.8601Z" fill="#DBD9EA"/>
<path d="M57.4532 35.8089C55.6578 35.7506 54.0606 35.1793 52.7083 33.9669C52.3469 33.6405 51.9738 33.3723 51.4959 33.2791C51.1345 33.1159 51.0295 32.906 51.1694 32.4863C51.8922 30.2596 52.207 27.9629 52.2303 25.6313C52.2303 24.5238 52.0554 23.4163 51.9622 22.3087C54.5503 26.494 57.2783 30.6327 57.4532 35.7972V35.8089Z" fill="#3060FF"/>
<path d="M21.8374 45.8698C21.8374 45.8698 21.9423 45.9747 21.989 46.033C21.9423 45.9747 21.884 45.9281 21.8374 45.8698Z" fill="#72CFEF"/>
</svg>
