<svg width="79" height="57" viewBox="0 0 79 57" fill="none" xmlns="http://www.w3.org/2000/svg">
<path d="M0.567017 31.6369C0.567017 30.0416 0.567017 28.4498 0.567017 26.8545C0.628314 26.8473 0.689612 26.8437 0.75091 26.8365C9.62465 26.8365 18.4948 26.8365 27.3685 26.8401C29.0236 26.8401 30.6786 26.8401 32.3336 26.8437C33.6173 26.8437 34.9009 26.8473 36.181 26.8437C36.8192 26.8437 37.1221 27.1469 37.1185 27.7857C37.1113 28.735 37.1221 29.6879 37.1185 30.6371C37.1113 31.4853 36.9346 31.6586 36.0584 31.6658C34.8288 31.673 33.5957 31.6658 32.3625 31.6622C30.6894 31.6622 29.0164 31.6694 27.3433 31.673C20.5897 31.673 13.8398 31.673 7.08621 31.673C4.98045 31.673 2.8783 31.6911 0.772544 31.6983C0.704035 31.6802 0.639132 31.6586 0.570622 31.6405L0.567017 31.6369Z" fill="#FCFCFC"/>
<path d="M0.567017 31.6368C0.635526 31.6549 0.700429 31.6765 0.768938 31.6946C0.758121 31.8209 0.732881 31.9509 0.732881 32.0772C0.732881 39.0324 0.740092 45.9841 0.743698 52.9394C0.729275 53.7623 0.714852 54.5852 0.704035 55.4082C0.65716 55.4082 0.613891 55.4082 0.567017 55.4009C0.567017 47.4784 0.567017 39.5558 0.567017 31.6368Z" fill="#F1CDC3"/>
<path d="M0.75091 26.8365C0.689612 26.8437 0.628314 26.8473 0.567017 26.8545C0.567017 18.9861 0.567017 11.1177 0.567017 3.24563C0.60668 3.23841 0.649949 3.23481 0.693218 3.23842C0.704035 7.04269 0.714852 10.847 0.722064 14.6512C0.732881 18.7118 0.740092 22.7759 0.75091 26.8365Z" fill="#F8E5DE"/>
<path d="M27.3395 31.6694C29.0125 31.6694 30.6856 31.6622 32.3587 31.6586C32.2397 32.265 32.3082 32.8714 32.3082 33.4813C32.301 34.1996 32.2902 34.9179 32.283 35.6361C32.2757 36.275 32.5967 36.5746 33.2277 36.5746C37.4608 36.5746 41.6904 36.5746 45.9235 36.5746C46.623 36.5746 46.8574 36.1848 46.8538 35.5423C46.843 33.8206 46.8538 32.1026 46.8502 30.3809C46.843 27.6089 46.8249 24.8369 46.8141 22.0649C46.8357 22.0216 46.8394 21.9747 46.8285 21.9314C46.9367 21.5018 47.1999 21.2131 47.6074 21.0398C47.867 20.9279 48.1158 20.7944 48.3682 20.6681C54.0148 17.8419 59.6578 15.0086 65.3152 12.2005C66.0003 11.8612 66.3032 11.4425 66.2743 10.6485C66.213 8.90152 66.2491 7.15098 66.2455 5.40404C66.2419 3.61019 66.2383 1.81633 66.2347 0.0224715C67.6121 0.0730027 68.9895 -0.0930278 70.3705 0.134363C70.9726 0.235425 71.1493 0.545828 71.1709 1.05114C71.1926 1.53841 71.1818 2.02567 71.1854 2.51294C71.1854 4.13715 71.1854 5.75776 71.1854 7.38198C71.1854 8.99898 71.1854 10.616 71.1854 12.2366C71.1818 12.4171 71.1493 12.6011 71.1782 12.7744C71.4053 14.2037 70.7022 14.9544 69.4546 15.5644C64.0388 18.2101 58.6698 20.9604 53.2612 23.6169C52.1434 24.1656 51.7035 24.8802 51.7215 26.1363C51.7864 30.5794 51.7468 35.0261 51.7468 39.4693C51.7468 40.8517 51.2167 41.3859 49.8502 41.3895C46.3598 41.3895 42.8694 41.3895 39.3791 41.3895C35.9644 41.3895 32.5498 41.3895 29.1387 41.3895C28.176 41.3895 27.6351 40.9852 27.4513 40.1479C27.3972 39.9024 27.4152 39.6389 27.4116 39.3827C27.3719 36.8164 27.4873 34.2465 27.3539 31.6803L27.3395 31.6694Z" fill="#85A1FE"/>
<path d="M0.703857 55.4083C0.71828 54.5854 0.732703 53.7625 0.743521 52.9395C1.07886 52.9359 1.41058 52.9287 1.74592 52.9287C18.9525 52.9287 36.1628 52.9287 53.3694 52.9287C60.2275 52.9287 67.0857 52.9287 73.9402 52.9287C75.0904 52.9287 75.3284 52.6833 75.3284 51.5283C75.3284 38.4443 75.3284 25.3567 75.3284 12.2728C76.3524 12.2583 77.3801 12.2403 78.4041 12.2258C78.4185 12.5326 78.4438 12.8394 78.4438 13.1498C78.4438 26.9521 78.4438 40.7507 78.4438 54.5529C78.4438 55.9786 78.4041 56.0183 76.9654 56.0183C51.9595 56.0183 26.9501 56.0183 1.94423 56.0183C1.42861 56.0183 0.880539 56.0941 0.707463 55.4083H0.703857Z" fill="#D1CDE5"/>
<path d="M0.750807 26.8364C0.73999 22.7758 0.732778 18.7117 0.721961 14.6512C0.711144 10.8469 0.703932 7.0426 0.693115 3.23832C0.830134 2.66804 1.21595 2.48396 1.76763 2.48757C3.83012 2.50201 5.8926 2.50201 7.95509 2.50562C7.95869 6.05363 7.99836 9.60164 7.94788 13.1497C7.93345 14.2649 8.38417 14.893 9.34691 15.3694C14.9611 18.1486 20.5536 20.9712 26.1641 23.7612C27.0151 24.1835 27.4982 24.7718 27.3973 25.7608C27.3612 26.1181 27.372 26.4791 27.3612 26.84C18.4875 26.84 9.61734 26.84 0.743596 26.8364H0.750807Z" fill="#DBD9EA"/>
<path d="M12.9058 0.0187851C29.5536 0.0187851 46.2013 0.0151755 62.8526 0.0115662C62.9536 0.0115662 63.0582 0.0223946 63.1591 0.026004C63.1591 2.23133 63.1591 4.43666 63.1555 6.64198C63.1483 6.68529 63.1447 6.73222 63.1411 6.77914C62.9897 6.80801 62.8382 6.82967 62.6904 6.86937C59.8491 7.63456 57.0943 7.48296 54.4332 6.13667C51.1736 4.4908 47.8924 4.46914 44.6256 6.11501C41.86 7.50823 39.0006 7.69592 36.0764 6.76831C35.1317 6.46873 34.2699 5.90206 33.3288 5.57361C30.3865 4.54494 27.5163 4.7218 24.7002 6.12223C21.5704 7.68148 18.3866 7.78254 15.1666 6.32797C14.4239 5.99229 13.7135 5.55556 12.895 5.40036C12.895 3.6065 12.9022 1.81264 12.9058 0.0151763V0.0187851Z" fill="#4B75FF"/>
<path d="M12.906 0.0187567C12.906 1.81261 12.8988 3.60647 12.8952 5.40394C12.8952 7.14726 12.9348 8.8942 12.8699 10.6375C12.8411 11.4677 13.18 11.8828 13.8831 12.2293C19.71 15.124 25.5225 18.0476 31.3458 20.9531C31.8037 21.1805 32.1823 21.4404 32.3301 21.9565C32.3301 23.5879 32.3301 25.2194 32.3337 26.8508C30.6787 26.8508 29.0237 26.8508 27.3686 26.8472C27.3795 26.4863 27.3686 26.1253 27.4047 25.768C27.502 24.779 27.0189 24.1907 26.1715 23.7684C20.5646 20.9748 14.9685 18.1558 9.35432 15.3766C8.39159 14.9002 7.94087 14.2722 7.95529 13.1569C8.00217 9.60885 7.96611 6.06084 7.9625 2.51283C7.9625 2.00391 7.98053 1.49499 7.96971 0.98607C7.9625 0.502414 8.16082 0.242537 8.65481 0.148693C10.0683 -0.125619 11.4925 0.0728974 12.9096 0.0259756L12.906 0.0187567Z" fill="#85A1FE"/>
<path d="M71.1747 7.37835C71.1747 5.75413 71.1747 4.13352 71.1747 2.50931C72.5629 2.50931 73.9511 2.51653 75.3357 2.52014C75.3321 4.12992 75.3249 5.73609 75.3213 7.34587C75.3213 7.37474 75.3249 7.40001 75.3285 7.42888C73.9439 7.41084 72.5557 7.3964 71.1711 7.37835H71.1747Z" fill="#DBD9EA"/>
<path d="M63.1519 6.64579C63.1519 4.44046 63.1519 2.23514 63.1555 0.0298096C64.1795 0.0298096 65.2035 0.0225913 66.224 0.0189819C66.2276 1.81284 66.2312 3.6067 66.2348 5.40055C65.1422 5.65682 64.2192 6.33177 63.1483 6.64579H63.1519Z" fill="#3060FF"/>
<path d="M75.3248 7.34229C75.3284 5.73251 75.3356 4.12634 75.3392 2.51656C76.0531 2.50573 76.7671 2.4913 77.481 2.48408C78.1012 2.47686 78.4437 2.77283 78.4401 3.40808C78.4329 4.73633 78.4185 6.06457 78.4041 7.38921C77.38 7.37478 76.3524 7.35673 75.3284 7.34229H75.3248Z" fill="#D1CDE5"/>
<path d="M75.3248 7.34222C76.3488 7.35666 77.3764 7.37471 78.4005 7.38915C78.4005 8.99893 78.4005 10.6123 78.4005 12.2221C77.3764 12.2365 76.3488 12.2546 75.3248 12.269C75.3248 12.2401 75.3284 12.2113 75.332 12.1824C75.332 10.5979 75.332 9.00975 75.332 7.42524C75.332 7.39637 75.3248 7.3711 75.3248 7.34222Z" fill="#EFEDEE"/>
<path d="M75.3249 12.2726C75.3249 25.3565 75.3249 38.4441 75.3249 51.5281C75.3249 52.6831 75.087 52.9285 73.9367 52.9285C67.0786 52.9285 60.2205 52.9285 53.3659 52.9285C36.1593 52.9285 18.9491 52.9285 1.74246 52.9285C1.40713 52.9285 1.0754 52.9357 0.740065 52.9393C0.73646 45.9841 0.732854 39.0324 0.729248 32.0772C0.729248 31.9508 0.750883 31.8209 0.765306 31.6946C2.87106 31.6874 4.97321 31.6693 7.07897 31.6693C13.8325 31.6693 20.5825 31.6693 27.3361 31.6693C27.4695 34.2356 27.3541 36.8054 27.3937 39.3717C27.3974 39.628 27.3793 39.8915 27.4334 40.1369C27.6137 40.9779 28.1546 41.3785 29.1209 41.3785C32.5355 41.3857 35.9502 41.3785 39.3612 41.3785C42.8516 41.3785 46.3419 41.3785 49.8323 41.3785C51.1989 41.3785 51.7289 40.8407 51.7289 39.4583C51.7289 35.0152 51.7686 30.5685 51.7037 26.1253C51.6857 24.8657 52.1256 24.1546 53.2433 23.606C58.6556 20.9495 64.0209 18.1991 69.4368 15.5535C70.6807 14.9435 71.3839 14.1927 71.1603 12.7634C71.1315 12.5902 71.1639 12.4061 71.1675 12.2256C72.5521 12.2112 73.9367 12.1931 75.3249 12.1787C75.3249 12.2076 75.3213 12.2365 75.3177 12.2653L75.3249 12.2726ZM57.9056 41.4182C57.8984 42.1798 58.2914 42.5985 59.0017 42.5913C59.6976 42.5841 60.2133 42.0607 60.2097 41.3677C60.2097 40.801 59.6652 40.2993 59.0342 40.2777C58.3166 40.256 57.9128 40.6639 57.9056 41.4182ZM62.5354 29.3593C62.575 28.6844 62.1207 28.1213 61.5077 28.0888C60.8623 28.0527 60.2854 28.5292 60.2277 29.15C60.1664 29.7924 60.7036 30.3736 61.3887 30.4024C62.0774 30.4313 62.4921 30.0523 62.5318 29.3629L62.5354 29.3593ZM22.6053 47.3773C23.3084 47.3773 23.687 47.0019 23.6906 46.2981C23.6906 45.634 23.1714 45.0565 22.5801 45.0709C21.8842 45.089 21.3721 45.6123 21.383 46.3017C21.3938 46.9189 21.913 47.3773 22.6089 47.3773H22.6053ZM6.88426 48.7453C6.88426 49.4888 7.24844 49.8425 8.02728 49.8461C8.62223 49.8461 9.18112 49.3336 9.19194 48.7669C9.20275 48.1208 8.69074 47.5542 8.07415 47.5325C7.42512 47.5108 6.88786 48.0595 6.88786 48.7453H6.88426ZM13.9768 41.4182C13.9696 40.7577 13.4756 40.2704 12.8085 40.2777C12.1847 40.2813 11.6474 40.8407 11.6655 41.4651C11.6835 42.0643 12.2172 42.5877 12.8157 42.5913C13.4431 42.5913 13.9804 42.0499 13.9768 41.4218V41.4182ZM71.1603 33.0228C70.5041 33.0228 69.9271 33.5534 69.9452 34.1345C69.9632 34.6651 70.6483 35.3364 71.1747 35.3328C71.7589 35.3292 72.2601 34.7481 72.2528 34.084C72.2456 33.3441 71.9139 33.0228 71.1639 33.0264L71.1603 33.0228Z" fill="#DBD9EA"/>
<path d="M32.33 26.8472C32.33 25.2158 32.33 23.5843 32.3264 21.9529C32.9177 21.9529 33.509 21.9493 34.0968 21.9457C37.3059 21.9312 40.5114 21.9168 43.7205 21.906C44.7554 21.9132 45.7902 21.924 46.8251 21.9312C46.8359 21.9782 46.8323 22.0215 46.8106 22.0648C46.0931 22.0648 45.3719 22.1153 44.658 22.054C43.9296 21.9926 43.6953 22.2128 43.7061 22.9707C43.7494 25.9954 43.7241 29.0237 43.7241 32.0483C43.7241 33.2647 43.515 33.4776 42.2962 33.4776C38.9645 33.4776 35.6364 33.4776 32.3047 33.4776C32.3047 32.8712 32.2362 32.2613 32.3552 31.6549C33.5884 31.6549 34.8179 31.6657 36.0511 31.6585C36.9273 31.6549 37.104 31.4816 37.1112 30.6298C37.1184 29.6806 37.1076 28.7277 37.1112 27.7784C37.1148 27.1396 36.8119 26.8328 36.1737 26.8364C34.89 26.84 33.6064 26.8364 32.3264 26.8364L32.33 26.8472Z" fill="#395F7E"/>
<path d="M46.8252 21.9314C45.7904 21.9242 44.7555 21.9133 43.7207 21.9061C43.7207 21.0327 43.7784 20.1592 43.7098 19.2929C43.6485 18.5241 43.9731 18.1524 44.6329 17.8239C50.5319 14.9003 56.4093 11.9334 62.3047 9.00623C62.9213 8.69944 63.2133 8.30602 63.152 7.63106C63.1268 7.34953 63.1412 7.068 63.134 6.78647C63.134 6.73955 63.1412 6.69624 63.1484 6.64932C64.2193 6.33891 65.1424 5.66396 66.2349 5.40408C66.2385 7.15102 66.2061 8.90156 66.2638 10.6485C66.2926 11.439 65.9861 11.8612 65.3047 12.2005C59.6472 15.0086 54.0079 17.842 48.3576 20.6681C48.1052 20.7944 47.8565 20.9316 47.5968 21.0399C47.1894 21.2131 46.9262 21.5019 46.818 21.9314H46.8252Z" fill="#1F50F5"/>
<path d="M32.3083 33.4851C35.64 33.4851 38.9681 33.4851 42.2998 33.4851C43.5149 33.4851 43.7277 33.2721 43.7277 32.0558C43.7277 29.0311 43.7529 26.0028 43.7096 22.9782C43.6988 22.2166 43.9368 21.9964 44.6615 22.0614C45.3755 22.1228 46.0966 22.0722 46.8142 22.0722C46.825 24.8442 46.843 27.6162 46.8502 30.3882C46.8538 32.1099 46.843 33.828 46.8538 35.5496C46.8574 36.1957 46.6231 36.5855 45.9236 36.5819C41.6904 36.5819 37.4609 36.5819 33.2277 36.5819C32.5931 36.5819 32.2758 36.2823 32.283 35.6435C32.2902 34.9252 32.301 34.2069 32.3083 33.4887V33.4851Z" fill="#2C4D66"/>
<path d="M75.3321 12.186C73.9475 12.2004 72.5629 12.2149 71.1747 12.2329C71.1747 10.6159 71.1747 8.9989 71.1747 7.3783C72.5593 7.39273 73.9475 7.41078 75.3321 7.42883C75.3321 9.01334 75.3321 10.6015 75.3321 12.186Z" fill="#FCFCFC"/>
<path d="M63.1375 6.7827C63.1411 7.06423 63.1302 7.34937 63.1555 7.62729C63.2168 8.30224 62.9247 8.69567 62.3081 9.00246C56.4127 11.9297 50.5318 14.893 44.6364 17.8202C43.9765 18.1486 43.6556 18.5204 43.7133 19.2892C43.7818 20.1554 43.7241 21.0325 43.7241 21.9024C40.515 21.9168 37.3095 21.9312 34.1004 21.9421C33.509 21.9421 32.9177 21.9457 32.33 21.9493C32.1821 21.4367 31.8035 21.1769 31.3456 20.9459C25.5223 18.0439 19.7098 15.1167 13.883 12.222C13.1798 11.8719 12.8409 11.4604 12.8697 10.6303C12.9346 8.88696 12.8914 7.14364 12.895 5.3967C13.7135 5.5519 14.4238 5.98864 15.1666 6.32431C18.3865 7.77888 21.5704 7.67782 24.7002 6.11857C27.5163 4.71453 30.3865 4.54128 33.3288 5.56995C34.2698 5.8984 35.128 6.46507 36.0763 6.76465C39.0006 7.69587 41.8599 7.50457 44.6256 6.11136C47.896 4.46548 51.1736 4.48714 54.4332 6.13301C57.0942 7.4757 59.849 7.62729 62.6903 6.86571C62.8382 6.82601 62.9896 6.80435 63.1411 6.77548L63.1375 6.7827ZM38.3299 11.8791C38.2722 11.3413 37.9225 10.9912 37.3528 10.8071C36.7218 10.6014 36.0583 10.4462 35.4814 10.1358C32.9754 8.78229 30.3324 8.34917 27.5343 8.80395C26.3913 8.99163 25.2771 9.29482 24.318 9.96617C23.7447 10.3668 23.6726 10.9984 24.0548 11.5146C24.437 12.0307 24.9238 12.1787 25.5403 11.8936C28.4249 10.5581 31.2735 10.6483 34.1076 12.0776C34.9513 12.5036 35.8311 12.8645 36.7578 13.0847C37.5907 13.2832 38.3371 12.7273 38.3299 11.8827V11.8791Z" fill="#3060FF"/>
<path d="M57.9054 41.4182C57.9126 40.6639 58.3165 40.256 59.034 40.2777C59.665 40.2957 60.2059 40.801 60.2095 41.3677C60.2095 42.0607 59.6975 42.5841 59.0016 42.5913C58.2912 42.5985 57.8982 42.1798 57.9054 41.4182Z" fill="#D1CDE5"/>
<path d="M62.5353 29.3595C62.4956 30.0525 62.081 30.4315 61.3923 30.399C60.7072 30.3701 60.1663 29.789 60.2312 29.1465C60.2889 28.5293 60.8659 28.0529 61.5113 28.0854C62.1207 28.1179 62.5786 28.6845 62.5389 29.3559L62.5353 29.3595Z" fill="#D1CDE5"/>
<path d="M22.6053 47.3776C21.9094 47.3776 21.3865 46.9192 21.3793 46.302C21.3685 45.6126 21.8805 45.0892 22.5764 45.0712C23.1714 45.0568 23.6906 45.6306 23.687 46.2984C23.687 47.0022 23.3084 47.3776 22.6017 47.3776H22.6053Z" fill="#D1CDE5"/>
<path d="M6.88422 48.7454C6.88422 48.0596 7.42148 47.511 8.07051 47.5326C8.68709 47.5543 9.19911 48.121 9.18829 48.767C9.17748 49.3301 8.62219 49.8462 8.02364 49.8462C7.2484 49.8462 6.88062 49.4889 6.88062 48.7454H6.88422Z" fill="#D1CDE5"/>
<path d="M13.9768 41.4183C13.9804 42.0463 13.4431 42.5913 12.8157 42.5877C12.2208 42.5877 11.6835 42.0608 11.6655 41.4616C11.6475 40.8372 12.1847 40.2777 12.8085 40.2741C13.472 40.2705 13.9696 40.7578 13.9768 41.4147V41.4183Z" fill="#D1CDE5"/>
<path d="M71.1603 33.0231C71.9139 33.0231 72.242 33.3407 72.2492 34.0807C72.2564 34.7448 71.7588 35.3223 71.1711 35.3295C70.6482 35.3331 69.9595 34.6654 69.9415 34.1312C69.9235 33.5501 70.5004 33.0231 71.1567 33.0195L71.1603 33.0231Z" fill="#D1CDE5"/>
<path d="M38.33 11.8792C38.3372 12.7238 37.5908 13.2796 36.7579 13.0811C35.8348 12.8645 34.9514 12.5 34.1076 12.0741C31.2735 10.6448 28.425 10.5509 25.5404 11.89C24.9238 12.1751 24.437 12.0272 24.0548 11.511C23.6726 10.9949 23.7483 10.3632 24.318 9.9626C25.2772 9.29487 26.3949 8.98807 27.5344 8.80038C30.3324 8.3456 32.9754 8.77873 35.4814 10.1322C36.0583 10.4426 36.7218 10.6015 37.3528 10.8036C37.9225 10.9877 38.2723 11.3378 38.33 11.8756V11.8792Z" fill="#3060FF"/>
</svg>
