<svg width="82" height="82" viewBox="0 0 82 82" fill="none" xmlns="http://www.w3.org/2000/svg">
<path d="M81.9698 72.8514C81.9725 75.8981 81.978 78.9421 81.9808 81.9888H3.97992C3.97992 79.9223 3.98819 77.853 3.97441 75.7865C3.97165 75.2419 4.1067 75.0513 4.70202 75.2147C5.24773 75.3672 5.83203 75.4243 6.40255 75.4488C8.97676 75.5605 11.2643 74.7709 13.2653 73.189C13.6374 72.8949 13.8551 72.9412 14.1776 73.1972C17.6833 75.9934 22.4101 76.2112 26.1281 73.7553C26.9531 73.2108 27.7909 73.2208 28.6417 73.7853C32.2963 76.2112 37.2463 75.9634 40.5784 73.1563C40.9505 72.8432 41.1214 72.914 41.4548 73.189C43.2215 74.6456 45.2831 75.3971 47.5762 75.4461C50.0457 75.5006 52.2726 74.7409 54.2019 73.2217C54.6401 72.8759 54.8771 72.9657 55.2382 73.268C56.8946 74.6429 58.8542 75.3236 60.9764 75.4352C63.4707 75.5686 65.7418 74.839 67.7234 73.3034C68.1258 72.9902 68.4262 72.914 68.9003 73.2952C70.6118 74.6756 72.6348 75.3481 74.8176 75.4407C77.5462 75.555 79.922 74.6184 81.9725 72.8514H81.9698Z" fill="#D1CDE5"/>
<path d="M81.9697 72.8514C79.9192 74.6184 77.5434 75.5578 74.8149 75.4407C72.6293 75.3481 70.609 74.6729 68.8975 73.2952C68.4234 72.914 68.123 72.993 67.7206 73.3034C65.7417 74.839 63.4707 75.5687 60.9736 75.4352C58.8514 75.3236 56.8918 74.6429 55.2354 73.268C54.8744 72.9685 54.6373 72.8759 54.1991 73.2217C52.2698 74.741 50.0429 75.5006 47.5734 75.4461C45.2803 75.3971 43.2187 74.6457 41.4521 73.189C41.1186 72.914 40.9477 72.8432 40.5756 73.1563C37.2435 75.9635 32.2935 76.2112 28.6389 73.7853C27.7882 73.2208 26.9503 73.2108 26.1253 73.7553C22.4045 76.2112 17.6806 75.9961 14.1748 73.1972C13.8523 72.9412 13.6346 72.895 13.2625 73.189C11.2616 74.7709 8.97673 75.5605 6.39976 75.4489C5.82925 75.4244 5.24495 75.3672 4.69924 75.2147C4.10392 75.0486 3.96887 75.2419 3.97162 75.7865C3.98816 77.853 3.97714 79.9223 3.97714 81.9888C2.81957 81.9888 1.662 81.967 0.507184 81.9997C0.0910103 82.0106 -0.0026977 81.9071 5.84168e-05 81.4987C0.0165951 77.3058 0.0110829 73.1155 0.0110829 68.9225C2.06163 70.6923 4.43741 71.6071 7.16872 71.5309C9.22478 71.4737 11.11 70.8611 12.7526 69.6277C13.392 69.1458 13.7889 69.0423 14.5689 69.595C18.3172 72.2497 22.7959 72.1952 26.5415 69.5351C27.1478 69.1049 27.5419 69.0832 28.1152 69.5133C29.9673 70.9047 32.0758 71.5881 34.4019 71.5336C36.6978 71.4791 38.7649 70.7413 40.5288 69.2792C40.9174 68.9579 41.102 68.9824 41.4686 69.2955C44.8504 72.1544 50.2689 72.2987 53.7554 69.6086C54.4196 69.0968 54.8413 69.0478 55.5744 69.6168C57.0875 70.793 58.901 71.3675 60.8303 71.5309C61.715 71.539 62.6053 71.6044 63.4597 71.2858C65.0389 71.068 66.406 70.3792 67.6627 69.4453C67.9907 69.203 68.2911 68.8926 68.7376 69.2166C70.0716 70.4091 71.6674 71.049 73.4093 71.3702C76.3528 71.9121 78.9821 71.1551 81.3689 69.4371C81.515 69.3309 81.6252 69.0859 81.8375 69.1785C82.0883 69.2901 81.9725 69.5624 81.9725 69.7638C81.9808 70.793 81.9725 71.8249 81.967 72.8541L81.9697 72.8514Z" fill="#DBD9EA"/>
<path d="M41.0138 33.6498C41.0083 41.4285 41.0056 49.2046 41 56.9834C41 57.9091 40.9945 58.8321 40.9918 59.7579C39.4539 59.7633 37.9187 59.7742 36.3808 59.7769C29.9838 59.7851 23.5896 59.7933 17.1927 59.8014L17.2147 59.7579C17.212 51.3066 17.2147 42.8553 17.1899 34.4039C17.1899 33.775 17.4049 33.6361 18.0002 33.6361C25.6733 33.6552 33.3435 33.6498 41.0166 33.6525L41.0138 33.6498ZM21.1643 39.8521C21.5777 39.8521 21.9883 39.863 22.4018 39.8521C23.0494 39.833 23.4684 39.509 23.4629 38.8583C23.4574 38.2539 23.0605 37.9162 22.4486 37.9026C21.597 37.8809 20.7426 37.8836 19.8909 37.9026C19.2818 37.9162 18.8822 38.2457 18.8712 38.8529C18.8629 39.5036 19.2791 39.8303 19.924 39.8521C20.3374 39.8657 20.7481 39.8521 21.1615 39.8521H21.1643ZM34.4129 39.8467C34.4129 39.8467 34.4129 39.8466 34.4129 39.8439C34.8815 39.8439 35.3528 39.8848 35.813 39.833C36.3394 39.7759 36.6702 39.4382 36.6867 38.91C36.7033 38.341 36.3698 37.9489 35.8048 37.9162C34.8732 37.8618 33.9334 37.87 33.0018 37.9108C32.4368 37.938 32.0868 38.3083 32.0895 38.8746C32.0895 39.4437 32.4451 39.7868 33.0101 39.8358C33.4731 39.8766 33.9444 39.8439 34.4129 39.8439V39.8467ZM21.1753 45.077C21.5887 45.077 22.0021 45.0879 22.4128 45.0743C23.0605 45.0498 23.4739 44.7203 23.4629 44.0696C23.4518 43.4651 23.0494 43.1357 22.4376 43.1248C21.5859 43.1085 20.7316 43.103 19.8799 43.1248C19.2708 43.1411 18.8794 43.4788 18.8712 44.0859C18.8629 44.6958 19.2488 45.0307 19.8551 45.0715C20.2933 45.0988 20.7343 45.077 21.1753 45.077ZM27.8561 43.1221C27.3876 43.1221 26.919 43.0976 26.4533 43.1275C25.8442 43.1684 25.4693 43.5141 25.4803 44.1213C25.4886 44.6876 25.8524 45.0416 26.4202 45.0634C27.3269 45.0988 28.2365 45.1015 29.1432 45.0634C29.711 45.0389 30.072 44.6822 30.0775 44.1159C30.0831 43.5087 29.7055 43.1684 29.0964 43.1275C28.6857 43.1003 28.2723 43.1221 27.8589 43.1221H27.8561ZM34.3468 45.077C34.7878 45.077 35.2287 45.0933 35.667 45.0743C36.2761 45.047 36.6702 44.7258 36.684 44.1186C36.6977 43.5114 36.3146 43.152 35.7083 43.1302C34.8291 43.0976 33.9471 43.0976 33.0679 43.1302C32.4588 43.152 32.0785 43.5114 32.0923 44.1213C32.106 44.7285 32.5029 45.047 33.1093 45.0743C33.5199 45.0933 33.9334 45.077 34.3468 45.077ZM21.1229 50.3019C21.5639 50.3019 22.0049 50.3155 22.4431 50.2992C23.0522 50.2746 23.4491 49.9534 23.4629 49.3462C23.4766 48.739 23.0991 48.3769 22.49 48.3551C21.6108 48.3225 20.7288 48.3225 19.8496 48.3551C19.2405 48.3769 18.8601 48.7336 18.8712 49.3408C18.8822 49.9479 19.2763 50.2692 19.8854 50.2992C20.2961 50.3182 20.7095 50.3019 21.1229 50.3019ZM27.7927 48.347C27.7927 48.347 27.7927 48.347 27.7927 48.3497C27.3242 48.3497 26.8556 48.3143 26.3899 48.3579C25.8249 48.4123 25.4748 48.7581 25.4776 49.3271C25.4803 49.8962 25.8331 50.2583 26.4009 50.2855C27.3076 50.3264 28.2172 50.3209 29.1239 50.291C29.6944 50.2719 30.0583 49.9234 30.0748 49.3598C30.0913 48.7526 29.722 48.4014 29.1129 48.3551C28.6747 48.3225 28.2337 48.3497 27.7927 48.3497V48.347ZM34.4019 50.2964C34.4019 50.2964 34.4019 50.2964 34.4019 50.2992C34.8429 50.2992 35.2839 50.3264 35.7221 50.2937C36.3312 50.2474 36.7005 49.8962 36.684 49.289C36.6674 48.7254 36.3036 48.3769 35.7331 48.3579C34.8263 48.3279 33.9168 48.3197 33.0101 48.3633C32.4423 48.3905 32.0923 48.7526 32.0895 49.3217C32.0868 49.8907 32.4368 50.2365 33.0018 50.291C33.4648 50.3345 33.9361 50.2992 34.4047 50.2992L34.4019 50.2964ZM21.1891 55.524C21.1891 55.524 21.1891 55.524 21.1891 55.5213C21.6576 55.5213 22.1289 55.5594 22.5892 55.5104C23.1156 55.4533 23.4463 55.1156 23.4629 54.5874C23.4794 54.0184 23.1459 53.6263 22.5837 53.5936C21.6521 53.5392 20.7123 53.5474 19.7807 53.5882C19.2157 53.6127 18.8657 53.983 18.8684 54.552C18.8684 55.1211 19.2212 55.4641 19.789 55.5131C20.252 55.554 20.7233 55.5213 21.1918 55.5213L21.1891 55.524ZM27.7514 55.524C28.2199 55.524 28.6885 55.5567 29.1542 55.5159C29.722 55.4669 30.072 55.1211 30.0748 54.5548C30.0748 53.9857 29.7275 53.6181 29.1625 53.5882C28.2585 53.5446 27.3462 53.5474 26.4395 53.5827C25.8304 53.6073 25.4611 53.9775 25.4803 54.5847C25.4969 55.151 25.8634 55.4778 26.4312 55.5186C26.8694 55.5513 27.3104 55.524 27.7514 55.5213V55.524ZM34.3854 53.5719C33.9719 53.5719 33.5585 53.561 33.1479 53.5719C32.5002 53.5936 32.084 53.9176 32.0923 54.5684C32.1005 55.1755 32.5002 55.505 33.1093 55.5213C33.9609 55.5431 34.8153 55.5431 35.667 55.5213C36.2761 55.5077 36.6757 55.1728 36.6812 54.5656C36.6867 53.9149 36.2705 53.5882 35.6229 53.5691C35.2094 53.5555 34.7988 53.5691 34.3854 53.5691V53.5719ZM27.8423 37.8999C27.3462 37.8999 26.8474 37.8563 26.3595 37.9108C25.7973 37.9734 25.4611 38.3383 25.4776 38.9073C25.4941 39.4355 25.8276 39.8004 26.3513 39.8276C27.2828 39.8766 28.2227 39.8739 29.1542 39.833C29.722 39.8085 30.072 39.441 30.0748 38.8746C30.0748 38.3056 29.7275 37.9625 29.1625 37.9054C28.727 37.8618 28.2833 37.8972 27.8423 37.8999Z" fill="#1F50F5"/>
<path d="M41.0138 33.6497C33.3408 33.6497 25.6705 33.6525 17.9975 33.6334C17.4022 33.6334 17.1872 33.7695 17.1872 34.4012C17.2092 42.8525 17.2065 51.3038 17.212 59.7551C16.3659 59.766 15.2937 60.1091 14.7343 59.6353C14.1968 59.1806 14.5661 58.0997 14.5661 57.2965C14.5468 49.4143 14.5496 41.532 14.5441 33.647C14.9299 33.647 15.3158 33.647 15.7044 33.647C14.3622 32.9527 13.8661 31.9372 13.8799 30.4914C13.9295 25.3264 13.8991 20.1614 13.8991 14.9964C13.8991 13.0796 14.9079 12.0858 16.851 12.0831C24.6067 12.0831 32.3651 12.0967 40.1208 12.0695C41.4245 12.0641 42.5958 12.1839 43.3152 13.439C43.3565 13.5098 43.5081 13.5207 43.6101 13.5588C43.6211 19.4535 43.6432 25.3482 43.6349 31.2429C43.6349 32.5443 42.4553 33.5789 41.0138 33.647V33.6497ZM18.5184 29.6991C25.3701 29.7072 32.2218 29.7127 39.0708 29.7345C39.5338 29.7345 39.6854 29.6038 39.6826 29.1382C39.6578 24.9779 39.6551 20.8176 39.6468 16.6573C39.6551 16.0311 39.622 15.4021 39.6854 14.784C39.7543 14.136 39.4787 14.0353 38.8916 14.0353C31.4887 14.0544 24.0858 14.0544 16.6828 14.0353C16.0379 14.0353 15.856 14.1905 15.8615 14.8412C15.8918 18.9743 15.867 23.1101 15.8863 27.2432C15.8891 28.0491 15.5197 29.1355 16.0434 29.5847C16.5946 30.0585 17.6695 29.7181 18.5184 29.7018V29.6991Z" fill="#3060FF"/>
<path d="M63.8042 55.8371C63.8042 38.5942 63.8042 21.354 63.8042 4.11101C63.8042 2.52094 63.2337 1.96279 61.6158 1.96279C54.02 1.96279 46.4269 1.96279 38.831 1.96279C37.271 1.96279 36.7033 2.52911 36.706 4.07834C36.706 4.78624 36.7171 5.49143 36.7253 6.19933C36.0501 6.19933 35.3776 6.19933 34.7023 6.19933C34.7078 5.35529 34.7134 4.51397 34.7216 3.66993C34.7409 1.56799 36.3009 0.00787788 38.4258 0.00515516C46.2698 -0.00301298 54.1109 -0.000290266 61.9548 0.00515516C64.281 0.00515516 65.7913 1.52715 65.7913 3.86596C65.7913 21.1906 65.7913 38.5125 65.7913 55.8371C65.1299 55.8371 64.4684 55.8371 63.8069 55.8371H63.8042Z" fill="#3060FF"/>
<path d="M43.6073 13.5643C43.5054 13.5262 43.3538 13.5153 43.3124 13.4445C42.5931 12.1893 41.4217 12.0722 40.1181 12.075C32.3624 12.1022 24.6039 12.0886 16.8482 12.0886C14.9051 12.0886 13.8964 13.0824 13.8964 15.0019C13.8964 20.1669 13.9267 25.3319 13.8771 30.4968C13.8633 31.9399 14.3594 32.9555 15.7017 33.6525C15.3158 33.6525 14.9299 33.6525 14.5413 33.6525C12.8298 33.4918 11.912 32.5089 11.912 30.8127C11.9092 24.9126 11.912 19.0097 11.912 13.1096C11.912 11.1356 12.9152 10.1337 14.8941 10.1309C21.167 10.1309 27.44 10.1309 33.7156 10.1309C35.0441 10.1309 36.3725 10.1309 37.7037 10.1309C38.6077 10.1309 39.509 10.1309 40.413 10.1309C42.797 10.1309 43.7672 11.1765 43.6101 13.567L43.6073 13.5643Z" fill="#3060FF"/>
<path d="M14.522 59.8014C21.6356 59.7932 28.7464 59.7878 35.8599 59.7769C37.5687 59.7769 39.2775 59.7633 40.989 59.7578C40.9036 60.7598 41.3253 61.8326 40.4461 62.7256C39.8838 63.2947 39.2665 63.7031 38.3487 63.7031C31.3757 63.6922 24.4027 63.6976 17.4297 63.6949C15.845 63.6949 14.5937 62.6058 14.5358 61.1845C14.5165 60.7217 14.5248 60.2615 14.522 59.7987V59.8014Z" fill="#E8F0F9"/>
<path d="M68.7431 69.2139C68.2966 68.8898 67.9962 69.1975 67.6682 69.4426C66.4114 70.3765 65.0444 71.0653 63.4651 71.2831C63.4651 71.1198 63.4707 70.9564 63.4707 70.793C63.4707 67.1854 63.4789 63.5778 63.4651 59.9702C63.4651 59.2242 63.7463 58.549 64.4849 58.5299C65.9016 58.4945 67.3899 58.097 68.7183 58.971C68.7266 62.3853 68.7348 65.7996 68.7431 69.2139Z" fill="#395F7E"/>
<path d="M68.7211 58.971C67.3927 58.097 65.9043 58.4918 64.4877 58.5299C63.7491 58.549 63.4652 59.2215 63.4679 59.9702C63.4817 63.5778 63.4734 67.1854 63.4734 70.793C63.4734 70.9564 63.4707 71.1197 63.4679 71.2831C62.6135 71.6016 61.7233 71.5363 60.8386 71.5281C60.8358 66.8124 60.8276 62.0967 60.8331 57.3782C60.8331 56.3191 61.3127 55.8725 62.4068 55.8562C62.8726 55.8507 63.3384 55.8426 63.8042 55.8344C64.4657 55.8344 65.1271 55.8344 65.7886 55.8344C66.3343 55.8426 66.88 55.8344 67.423 55.8589C68.2443 55.897 68.7294 56.3762 68.7542 57.193C68.7735 57.7839 68.7321 58.3774 68.7211 58.9683V58.971Z" fill="#2C4D66"/>
<path d="M37.7038 10.1255C36.3753 10.1255 35.0469 10.1255 33.7157 10.1255C33.7184 9.1317 33.7873 8.12974 33.7046 7.14139C33.6385 6.32458 33.9472 6.08226 34.6968 6.19661C35.3721 6.19661 36.0446 6.19661 36.7198 6.19661C37.4695 6.08226 37.7782 6.32458 37.712 7.14139C37.6293 8.12974 37.6982 9.12898 37.701 10.1255H37.7038Z" fill="#1F50F5"/>
<path d="M4.14527 31.3327C4.00196 31.3164 3.68776 31.1802 3.51412 30.8263C3.32946 30.4505 3.34324 30.0476 3.62161 29.759C4.58901 28.7652 5.57019 27.7796 6.59271 26.8402C7.00337 26.4618 7.52703 26.538 7.92667 26.9328C8.30701 27.3058 8.3704 27.7959 8.00384 28.1771C7.02542 29.1981 6.0029 30.1783 4.98589 31.1585C4.8343 31.3055 4.60555 31.3708 4.14252 31.33L4.14527 31.3327Z" fill="#F87931"/>
<path d="M4.35196 12.4153C4.7516 12.4153 5.02445 12.5923 5.26423 12.8291C6.10209 13.6541 6.93444 14.4873 7.78057 15.3068C8.26289 15.7751 8.3814 16.2843 7.94318 16.8234C7.55732 17.2971 6.89861 17.2617 6.34739 16.7335C5.47645 15.9031 4.62757 15.0482 3.77593 14.1959C3.43968 13.8611 3.30739 13.469 3.49205 13.0061C3.65466 12.6004 3.98815 12.4534 4.35471 12.4126L4.35196 12.4153Z" fill="#F87931"/>
<path d="M48.2624 26.6279C48.6979 26.6197 48.9845 26.8185 49.2436 27.0744C50.0401 27.864 50.8504 28.6399 51.6331 29.4404C52.256 30.0775 52.3056 30.6139 51.8288 31.0822C51.3878 31.5179 50.7898 31.4362 50.1724 30.8345C49.329 30.0149 48.4912 29.1872 47.6671 28.3486C47.3667 28.0437 47.2013 27.6816 47.4053 27.2377C47.5844 26.8484 47.8958 26.6741 48.2569 26.6251L48.2624 26.6279Z" fill="#F87931"/>
<path d="M48.403 17.1555C47.9703 17.1256 47.6671 16.9758 47.4659 16.6437C47.2399 16.2707 47.2619 15.8759 47.5486 15.5818C48.5187 14.5826 49.5054 13.597 50.5252 12.644C50.9028 12.2928 51.4044 12.3037 51.8013 12.6712C52.1485 12.9952 52.3222 13.4418 52.0025 13.8447C51.0681 15.0237 49.9712 16.0501 48.8191 17.0167C48.7034 17.112 48.516 17.1229 48.4057 17.1555H48.403Z" fill="#F87931"/>
<path d="M5.05201 20.9102C4.95279 20.8884 4.81223 20.8775 4.68545 20.8312C3.49756 20.4119 2.30692 19.9953 1.12179 19.5624C0.531979 19.3446 0.195733 18.9117 0.399685 18.2909C0.603638 17.6701 1.15211 17.485 1.73916 17.6783C2.98768 18.0921 4.21966 18.555 5.44614 19.0288C5.93121 19.2166 6.17375 19.6141 6.04421 20.1396C5.9257 20.6161 5.57567 20.853 5.05201 20.9074V20.9102Z" fill="#F87931"/>
<path d="M55.2078 25.1304C55.2271 25.7729 54.6566 26.3039 54.0062 26.1051C52.6722 25.6912 51.3603 25.2093 50.0649 24.692C49.6019 24.5069 49.3814 24.0603 49.5468 23.543C49.7094 23.0284 50.1476 22.7398 50.6299 22.8868C52.0135 23.3143 53.375 23.8207 54.7283 24.3326C55.037 24.4497 55.2189 24.7628 55.2078 25.1276V25.1304Z" fill="#F87931"/>
<path d="M1.57383 26.1405C0.854484 26.1596 0.50997 25.9036 0.380432 25.4408C0.23987 24.9343 0.419018 24.5041 0.931656 24.3108C2.21325 23.8262 3.4976 23.347 4.79573 22.9168C5.28632 22.7534 5.71903 22.9549 5.95054 23.4477C6.16277 23.897 6.11591 24.3789 5.67769 24.5994C4.3079 25.2883 2.82786 25.7076 1.57107 26.1432L1.57383 26.1405Z" fill="#F87931"/>
<path d="M50.652 20.9074C50.0263 20.8938 49.7066 20.6406 49.5633 20.175C49.4117 19.6849 49.6074 19.2575 50.0374 19.0887C51.3575 18.5686 52.697 18.0949 54.0475 17.6538C54.5133 17.5013 54.9267 17.7518 55.1279 18.1902C55.3236 18.6231 55.285 19.1132 54.8358 19.3392C53.4687 20.028 51.9859 20.431 50.6547 20.9074H50.652Z" fill="#F87931"/>
<path d="M21.1643 39.8521C20.7508 39.8521 20.3374 39.863 19.9268 39.8521C19.2791 39.8303 18.8629 39.5036 18.8739 38.8529C18.8822 38.2457 19.2846 37.9162 19.8937 37.9026C20.7453 37.8836 21.5997 37.8808 22.4514 37.9026C23.0605 37.919 23.4601 38.2539 23.4656 38.8583C23.4711 39.509 23.0522 39.833 22.4045 39.8521C21.9911 39.8657 21.5804 39.8521 21.167 39.8521H21.1643Z" fill="#F3F7FC"/>
<path d="M34.4129 39.8466C33.9444 39.8466 33.4759 39.8793 33.0101 39.8385C32.4423 39.7867 32.0923 39.4464 32.0895 38.8774C32.0895 38.3083 32.4368 37.938 33.0018 37.9135C33.9334 37.87 34.8732 37.8645 35.8048 37.919C36.367 37.9516 36.7033 38.3437 36.6867 38.9128C36.6702 39.441 36.3395 39.7786 35.8131 39.8358C35.35 39.8848 34.8787 39.8466 34.4129 39.8466C34.4129 39.8466 34.4129 39.8466 34.4129 39.8494V39.8466Z" fill="#F3F7FC"/>
<path d="M21.1753 45.077C20.7344 45.077 20.2934 45.0988 19.8552 45.0715C19.2488 45.0307 18.863 44.6958 18.8712 44.0859C18.8795 43.4788 19.2709 43.1411 19.88 43.1248C20.7316 43.103 21.586 43.1057 22.4376 43.1248C23.0467 43.1384 23.4491 43.4651 23.4629 44.0696C23.4767 44.7203 23.0633 45.0498 22.4128 45.0743C22.0022 45.0879 21.5888 45.077 21.1753 45.0743V45.077Z" fill="#F3F7FC"/>
<path d="M27.8561 43.1193C28.2696 43.1193 28.683 43.0948 29.0936 43.1248C29.7027 43.1656 30.0776 43.506 30.0748 44.1131C30.0693 44.6795 29.711 45.0361 29.1405 45.0606C28.2337 45.0987 27.3242 45.096 26.4174 45.0606C25.8497 45.0388 25.4859 44.6849 25.4776 44.1186C25.4693 43.5087 25.8442 43.1656 26.4505 43.1248C26.9163 43.0948 27.3848 43.1193 27.8534 43.1193H27.8561Z" fill="#F3F7FC"/>
<path d="M34.3468 45.077C33.9334 45.077 33.52 45.0933 33.1093 45.0742C32.5002 45.047 32.1061 44.7285 32.0923 44.1213C32.0785 43.5141 32.4588 43.152 33.0679 43.1302C33.9471 43.0975 34.8291 43.0975 35.7083 43.1302C36.3174 43.152 36.6978 43.5114 36.684 44.1186C36.6702 44.7257 36.2761 45.047 35.667 45.0742C35.2287 45.0933 34.7878 45.077 34.3468 45.077Z" fill="#F3F7FC"/>
<path d="M21.123 50.3019C20.7095 50.3019 20.2961 50.3182 19.8855 50.2991C19.2764 50.2692 18.8822 49.9479 18.8712 49.3408C18.8602 48.7336 19.2433 48.3742 19.8496 48.3551C20.7288 48.3252 21.6108 48.3225 22.49 48.3551C23.0991 48.3769 23.4767 48.739 23.4629 49.3462C23.4491 49.9534 23.0522 50.2719 22.4431 50.2991C22.0049 50.3182 21.5639 50.3019 21.123 50.3019Z" fill="#F3F7FC"/>
<path d="M27.7928 48.347C28.2337 48.347 28.6747 48.3197 29.1129 48.3524C29.722 48.3987 30.0914 48.7499 30.0748 49.3571C30.0583 49.9207 29.6945 50.2692 29.124 50.2883C28.2172 50.3209 27.3077 50.3264 26.4009 50.2828C25.8332 50.2556 25.4831 49.8935 25.4776 49.3244C25.4749 48.7554 25.8221 48.4096 26.3899 48.3551C26.8529 48.3116 27.3242 48.347 27.7928 48.347C27.7928 48.347 27.7928 48.347 27.7928 48.3442V48.347Z" fill="#F3F7FC"/>
<path d="M34.4019 50.2964C33.9334 50.2964 33.4649 50.3318 32.9991 50.2882C32.4341 50.2338 32.0841 49.888 32.0868 49.319C32.0896 48.7499 32.4423 48.3878 33.0074 48.3606C33.9141 48.3197 34.8236 48.3252 35.7304 48.3551C36.3009 48.3742 36.6647 48.7227 36.6813 49.2863C36.6978 49.8935 36.3285 50.2447 35.7194 50.291C35.2811 50.3236 34.8402 50.2964 34.3992 50.2964C34.3992 50.2964 34.3992 50.2964 34.3992 50.2937L34.4019 50.2964Z" fill="#F3F7FC"/>
<path d="M21.1891 55.524C20.7205 55.524 20.252 55.5567 19.7862 55.5158C19.2184 55.4641 18.8684 55.1211 18.8657 54.5547C18.8657 53.9857 19.2129 53.6154 19.7779 53.5909C20.7095 53.5473 21.6493 53.5419 22.5809 53.5963C23.1432 53.629 23.4794 54.0211 23.4601 54.5901C23.4436 55.1183 23.1128 55.4559 22.5864 55.5131C22.1234 55.5621 21.6521 55.524 21.1863 55.524C21.1863 55.524 21.1863 55.524 21.1863 55.5267L21.1891 55.524Z" fill="#F3F7FC"/>
<path d="M27.7514 55.5268C27.3105 55.5268 26.8695 55.554 26.4313 55.5213C25.8607 55.4805 25.4942 55.1537 25.4804 54.5874C25.4639 53.9803 25.8332 53.6072 26.4395 53.5855C27.3463 53.5501 28.2558 53.5473 29.1626 53.5909C29.7276 53.6181 30.0776 53.9884 30.0748 54.5575C30.0748 55.1265 29.7221 55.4696 29.1543 55.5186C28.6913 55.5594 28.22 55.5268 27.7514 55.5268Z" fill="#F3F7FC"/>
<path d="M34.3854 53.5718C34.7988 53.5718 35.2095 53.5609 35.6229 53.5718C36.2706 53.5909 36.6867 53.9176 36.6812 54.5683C36.6757 55.1755 36.2761 55.5077 35.667 55.524C34.8153 55.5458 33.9609 55.5458 33.1093 55.524C32.5002 55.5104 32.1006 55.1782 32.0923 54.5711C32.084 53.9203 32.5002 53.5936 33.1479 53.5746C33.5613 53.5609 33.972 53.5746 34.3854 53.5746V53.5718Z" fill="#F3F7FC"/>
<path d="M27.8424 37.8999C28.2834 37.8999 28.7271 37.8645 29.1626 37.9081C29.7303 37.9625 30.0776 38.3083 30.0748 38.8773C30.0748 39.4464 29.7221 39.8112 29.1543 39.8357C28.22 39.8766 27.2829 39.8793 26.3513 39.8303C25.8277 39.8031 25.4942 39.4382 25.4776 38.91C25.4611 38.341 25.7946 37.9761 26.3596 37.9135C26.8474 37.859 27.349 37.9026 27.8424 37.8999Z" fill="#F3F7FC"/>
<path d="M39.6495 16.6573C39.6578 20.8176 39.6606 24.9779 39.6854 29.1382C39.6854 29.6038 39.5338 29.7372 39.0735 29.7345C32.2218 29.7127 25.3701 29.7072 18.5211 29.6991C18.5211 25.6477 18.5432 21.599 18.5074 17.5476C18.5019 16.8179 18.7141 16.6409 19.4334 16.6437C26.1721 16.6682 32.9108 16.6573 39.6495 16.6546V16.6573Z" fill="#F87931"/>
<path d="M39.6495 16.6573C32.9108 16.6573 26.1721 16.6709 19.4334 16.6464C18.7141 16.6464 18.4991 16.8206 18.5074 17.5503C18.5432 21.599 18.5211 25.6504 18.5211 29.7018C17.675 29.7181 16.5974 30.0585 16.0461 29.5847C15.5197 29.1328 15.8918 28.0464 15.889 27.2432C15.8725 23.1101 15.8973 18.9743 15.8642 14.8412C15.8587 14.1932 16.0434 14.0353 16.6856 14.0353C24.0885 14.0571 31.4914 14.0571 38.8944 14.0353C39.4814 14.0353 39.7543 14.136 39.6881 14.7841C39.622 15.4021 39.6578 16.0338 39.6495 16.6573Z" fill="#F56A1B"/>
<path d="M32.5473 21.1821L27.7021 25.9686C27.1812 26.4832 26.3323 26.4832 25.8114 25.9686L24.7751 24.9449L23.7608 23.9429C23.2151 23.4038 23.2151 22.5271 23.7608 21.9853C24.3093 21.4434 25.1968 21.4434 25.7425 21.9853L26.7567 22.9872L30.5685 19.2217C31.1142 18.6826 32.0016 18.6826 32.5501 19.2217C33.0958 19.7635 33.0958 20.6402 32.5501 21.1793L32.5473 21.1821Z" fill="#E8F0F9"/>
</svg>
