<svg width="36" height="36" viewBox="0 0 36 36" fill="none" xmlns="http://www.w3.org/2000/svg">
<path d="M35.9997 18.4245C35.9147 18.4471 35.9176 18.5321 35.8921 18.5916C35.541 19.3903 34.785 19.8208 34.0092 19.6622C33.171 19.4923 32.6359 18.8267 32.6246 17.9232C32.5963 15.5412 32.0724 13.2753 30.9257 11.185C28.635 7.01009 25.1467 4.42414 20.4493 3.5971C16.4937 2.90034 12.8524 3.78403 9.55095 6.06974C9.4207 6.03292 9.34142 5.92529 9.25365 5.83749C8.70151 5.28801 8.14937 4.73854 7.6029 4.18339C7.44151 4.01912 7.24047 3.88883 7.14703 3.66224C9.34425 1.98265 11.8076 0.895025 14.5145 0.34838C15.1346 0.223756 15.7575 0.138786 16.3833 0.0736413C16.4399 0.0679766 16.5022 0.0736413 16.5249 0H19.4073C19.4526 0.104797 19.546 0.0623119 19.6196 0.070809C21.5196 0.249248 23.3657 0.671269 25.1014 1.47283C31.1041 4.24287 34.6944 8.87661 35.81 15.4109C35.8779 15.8074 35.8411 16.2181 35.9997 16.6005V18.4302V18.4245Z" fill="#FF7124"/>
<path d="M28.8927 32.3398C26.905 33.8127 24.7361 34.9201 22.318 35.4639C15.6839 36.9538 9.91052 35.3082 5.09703 30.5101C2.30803 27.7316 0.713917 24.3101 0.161781 20.4128C0.0513533 19.6339 -0.00527602 18.8522 0.000386911 18.0648C0.00888131 17.0791 0.736568 16.3172 1.67945 16.3144C2.62799 16.3087 3.35851 17.0536 3.3755 18.0478C3.46327 22.554 5.20745 26.2899 8.6307 29.2129C10.7741 31.0426 13.2686 32.1331 16.069 32.4928C19.8575 32.9828 23.3147 32.1104 26.4491 29.9352C27.324 30.6744 28.097 31.5213 28.8927 32.3427V32.3398Z" fill="#FF7124"/>
<path d="M19.6876 12.5502C19.6876 13.686 19.6989 14.8218 19.6791 15.9604C19.6734 16.2606 19.7669 16.3257 20.0529 16.3229C21.1883 16.3059 22.3237 16.3201 23.4619 16.3144C23.7338 16.3144 23.9773 16.3541 24.1188 16.6203C24.2633 16.8894 24.1472 17.1103 23.9971 17.3369C21.8084 20.6196 19.6196 23.9023 17.4338 27.185C17.2582 27.4512 17.0515 27.6438 16.7117 27.5419C16.3748 27.4399 16.3068 27.168 16.3068 26.8479C16.3125 24.5991 16.3012 22.3502 16.3182 20.1013C16.321 19.7501 16.2162 19.6821 15.8878 19.6877C14.7637 19.7076 13.6396 19.6934 12.5155 19.6991C12.2522 19.6991 12.0257 19.6509 11.8841 19.4073C11.734 19.1439 11.8359 18.9202 11.9888 18.6908C14.1861 15.3996 16.3804 12.1084 18.5692 8.81432C18.7391 8.55941 18.9429 8.37531 19.2629 8.46594C19.597 8.55941 19.6876 8.81999 19.6848 9.14854C19.6763 10.2843 19.6819 11.4201 19.6819 12.5587L19.6876 12.5502Z" fill="white"/>
<path d="M28.8927 32.3399C28.097 31.5185 27.324 30.6745 26.4491 29.9324C26.1348 29.5358 25.8488 29.1393 25.8658 28.587C25.88 28.1282 26.0216 27.7373 26.3387 27.4172C27.1853 26.559 28.0404 25.7065 28.8955 24.8568C29.1871 24.5679 29.4901 24.5679 29.7902 24.8483C30.0309 25.072 30.2603 25.3043 30.4925 25.5337C30.7331 25.817 30.9936 26.0775 31.2768 26.3183C31.7638 26.8083 32.2536 27.2954 32.7406 27.7854C32.9813 28.0687 33.2418 28.3293 33.525 28.57C33.7543 28.8051 33.9865 29.0345 34.2073 29.2724C34.4848 29.5727 34.4848 29.8786 34.1988 30.1703C33.3494 31.0257 32.5028 31.8867 31.6392 32.7251C30.9823 33.3652 29.9686 33.3539 29.2919 32.7279C29.156 32.6005 29.0229 32.4673 28.887 32.3399H28.8927Z" fill="#9DD33E"/>
<path d="M7.14415 3.65937C7.23759 3.88312 7.43862 4.01625 7.60002 4.18052C8.14649 4.73566 8.69863 5.28514 9.25076 5.83462C9.34137 5.92526 9.41782 6.03005 9.54807 6.06687C9.85953 6.4634 10.1483 6.85993 10.1313 7.40941C10.1172 7.86825 9.97562 8.25912 9.66133 8.57917C8.81755 9.43738 7.96245 10.2871 7.11017 11.134C6.81004 11.4342 6.50424 11.4285 6.18995 11.1283C5.9606 10.9102 5.74258 10.6836 5.52172 10.4599C5.28388 10.1681 5.01772 9.90472 4.72608 9.66397C4.2419 9.17964 3.75489 8.69247 3.27071 8.20814C3.03286 7.9164 2.7667 7.65299 2.47789 7.41508C2.25421 7.19132 2.02769 6.97323 1.80967 6.74664C1.51236 6.43225 1.50387 6.12635 1.80117 5.82612C2.64778 4.97075 3.49439 4.11538 4.35516 3.27417C4.99224 2.65105 6.00873 2.65105 6.67696 3.24018C6.83269 3.37896 6.94595 3.56307 7.14415 3.6537V3.65937Z" fill="#9DD33E"/>
<path d="M2.47513 7.41787C2.76677 7.65579 3.0301 7.92203 3.26794 8.21093C2.87154 8.61029 2.47796 9.00966 2.07873 9.40335C1.78142 9.69509 1.41333 9.72341 1.18115 9.477C0.960297 9.24191 0.997106 8.89353 1.28025 8.60463C1.67383 8.20527 2.07589 7.81157 2.4723 7.41504L2.47513 7.41787Z" fill="#1F50F5"/>
<path d="M4.72615 9.66687C5.01496 9.90762 5.28111 10.171 5.52179 10.4628C5.12538 10.8621 4.73181 11.2615 4.33257 11.6552C4.03527 11.9469 3.66718 11.9724 3.435 11.7288C3.21414 11.4937 3.25095 11.1454 3.5341 10.8565C3.92767 10.4571 4.32974 10.0634 4.72615 9.66687Z" fill="#1F50F5"/>
<path d="M31.2796 26.3183C30.9965 26.0775 30.736 25.8169 30.4953 25.5337C30.8974 25.1258 31.2966 24.7123 31.7072 24.3101C31.9733 24.0495 32.3329 24.0354 32.5538 24.2591C32.7746 24.4801 32.7633 24.8426 32.5028 25.106C32.1007 25.5167 31.6873 25.9132 31.2796 26.3183Z" fill="#1F50F5"/>
<path d="M33.5278 28.57C33.2475 28.3292 32.9841 28.0687 32.7435 27.7854C33.1455 27.3804 33.5419 26.9697 33.9468 26.5703C34.213 26.3098 34.5641 26.2871 34.7906 26.4995C35.0256 26.7205 35.0143 27.0915 34.7425 27.3691C34.3432 27.7769 33.9327 28.1735 33.5278 28.5728V28.57Z" fill="#1F50F5"/>
</svg>
