<svg width="63" height="73" viewBox="0 0 63 73" fill="none" xmlns="http://www.w3.org/2000/svg">
<mask id="mask0_47_531" style="mask-type:alpha" maskUnits="userSpaceOnUse" x="0" y="0" width="63" height="73">
<rect width="63" height="73" fill="#D9D9D9"/>
</mask>
<g mask="url(#mask0_47_531)">
<g filter="url(#filter0_f_47_531)">
<rect x="8.95801" y="34.527" width="37.2597" height="25.4935" rx="4.20571" transform="rotate(-29.7793 8.95801 34.527)" fill="#5B80FF"/>
</g>
<path d="M15.4433 61.948L6.00914 61.948C6.00914 44.7887 6.01117 27.6284 6 10.4681C6 10.0882 6.08531 9.99983 6.46617 10.0019C9.4582 10.0201 12.4513 10.012 15.4433 10.012C15.8109 10.3401 15.8739 10.7545 15.8587 11.2299C15.8302 12.1501 15.8566 13.0723 15.8607 13.9936C15.8577 14.0159 15.8526 14.0383 15.8445 14.0586C15.6931 14.0555 15.5408 14.0423 15.3905 14.0505C14.906 14.0769 14.6206 14.3542 14.6115 14.799C14.6013 15.2632 14.8989 15.5679 15.3986 15.5953C15.5489 15.6035 15.7013 15.5893 15.8526 15.5852L15.8414 15.6187C15.8414 16.6527 15.8424 17.6867 15.8434 18.7217L15.8546 18.7501C15.7033 18.7461 15.552 18.7308 15.4016 18.739C14.9091 18.7664 14.6034 19.0792 14.6115 19.5363C14.6196 19.9852 14.8948 20.2584 15.3834 20.2899C15.5337 20.3001 15.686 20.2869 15.8373 20.2849C15.8414 20.3072 15.8465 20.3285 15.8536 20.3499C15.8526 21.3676 15.8516 22.3853 15.8495 23.4021L15.8617 23.4376C15.7612 23.4346 15.6606 23.4264 15.5601 23.4274C14.9598 23.4376 14.5973 23.7362 14.5983 24.2207C14.5983 24.7072 14.9619 25.0089 15.556 25.014C15.6566 25.014 15.7571 25.0069 15.8577 25.0028L15.8445 25.0323C15.8434 26.0622 15.8424 27.0921 15.8414 28.122L15.8465 28.1647C15.6779 28.1616 15.5093 28.1454 15.3417 28.1576C14.8948 28.1911 14.6206 28.4765 14.6105 28.9011C14.5993 29.348 14.8816 29.6588 15.3458 29.6943C15.5123 29.7075 15.682 29.6903 15.8505 29.6872L15.8414 29.7248C15.8414 30.7568 15.8434 31.7897 15.8445 32.8217L15.8566 32.8491C15.6891 32.8461 15.5195 32.8247 15.3539 32.842C14.9131 32.8877 14.645 33.1335 14.6044 33.5814C14.5658 34.007 14.8562 34.3453 15.3123 34.4082C15.493 34.4336 15.6799 34.4123 15.8648 34.4123L15.8526 34.4519C15.8526 35.4666 15.8516 36.4823 15.8505 37.497C15.6687 37.5132 15.4839 37.5163 15.3041 37.5478C14.8725 37.625 14.6115 37.8748 14.6013 38.3278C14.5912 38.7463 14.9091 39.0713 15.3539 39.116C15.5195 39.1323 15.687 39.1333 15.8536 39.1414C15.8536 40.1683 15.8536 41.1952 15.8536 42.222C15.7043 42.2332 15.555 42.2515 15.4047 42.2545C15.0045 42.2647 14.7232 42.4455 14.6338 42.8396C14.5424 43.2459 14.7019 43.5435 15.0716 43.7578C15.3255 43.9051 15.5784 43.8898 15.8445 43.8736C15.8475 44.8872 15.8505 45.9019 15.8536 46.9156C15.7033 46.9247 15.554 46.9319 15.4037 46.942C14.9233 46.9776 14.6003 47.2945 14.5983 47.7322C14.5973 48.1517 14.8948 48.4666 15.3529 48.5225C15.5184 48.5428 15.685 48.5489 15.8505 48.5621C15.8505 49.5768 15.8516 50.5914 15.8526 51.6061C15.8455 51.6275 15.8404 51.6488 15.8363 51.6711C15.685 51.6691 15.5327 51.6559 15.3823 51.6661C14.8948 51.6975 14.6155 51.9738 14.6105 52.4187C14.6044 52.8778 14.9091 53.1886 15.4006 53.217C15.5509 53.2252 15.7033 53.2099 15.8536 53.2059L15.8424 53.2343C15.8424 54.2683 15.8414 55.3023 15.8404 56.3373L15.8516 56.3708C15.683 56.3678 15.5144 56.3505 15.3468 56.3637C14.8827 56.4003 14.6003 56.71 14.6105 57.1559C14.6196 57.5825 14.8908 57.8659 15.3397 57.9015C15.5062 57.9147 15.6759 57.8994 15.8445 57.8974C15.8526 57.9187 15.8587 57.9401 15.8607 57.9624C15.8566 58.8837 15.8302 59.8059 15.8587 60.7261C15.8739 61.2015 15.8109 61.6159 15.4433 61.944L15.4433 61.948Z" fill="#3060FF"/>
<path d="M57.9461 43.1819L57.9461 51.8042C57.7552 51.5686 57.5723 51.2903 57.2301 51.3045C55.9738 51.3553 54.9886 50.7205 53.9638 50.1161C51.9742 48.942 49.9348 48.9531 47.9046 50.045C47.5339 50.2441 47.2008 50.5112 46.8301 50.7093C45.0578 51.6519 43.383 51.4274 41.7296 50.3457C39.5196 48.9003 37.2477 48.8485 34.9848 50.2502C34.1023 50.7967 33.2177 51.27 32.137 51.3076C30.903 51.3502 29.9016 50.8271 28.8972 50.2045C26.9167 48.9765 24.8509 48.8993 22.8065 50.0115C21.603 50.6666 20.4726 51.4558 19.006 51.3055C18.9989 50.3883 18.9908 49.4712 18.9837 48.554C18.9908 48.5205 18.9887 48.489 18.9766 48.4575C18.9786 47.9842 18.9796 47.5108 18.9816 47.0375C18.9816 47.003 18.9837 46.9685 18.9847 46.9339C18.9857 45.8949 18.9877 44.8568 18.9888 43.8177C18.9969 43.7751 19.004 43.7324 19.0121 43.6898C20.4624 43.768 21.7695 43.38 22.9588 42.539C24.0862 41.7416 25.3405 41.4837 26.7055 41.762C27.4895 41.9214 28.1152 42.3866 28.7814 42.7777C30.9213 44.0321 33.0562 44.031 35.192 42.7675C35.6552 42.4933 36.1031 42.1703 36.5997 41.9783C38.182 41.3669 39.6598 41.6391 41.0613 42.5715C43.3617 44.1032 45.7048 44.1123 48.0204 42.6192C49.9359 41.3841 51.8046 41.2836 53.714 42.6192C54.6545 43.2774 55.7127 43.641 56.8756 43.6959C57.3469 43.7182 57.6942 43.5709 57.9471 43.1819L57.9461 43.1819Z" fill="#6ED7FC"/>
<path d="M57.9461 33.9512L57.9461 42.6751C57.7552 42.4395 57.5724 42.1612 57.2301 42.1754C55.9931 42.2252 55.015 41.6147 54.0065 41.0155C51.9865 39.8149 49.9227 39.8047 47.864 40.9474C47.5106 41.1434 47.1866 41.3933 46.8301 41.5822C45.1594 42.4649 43.5182 42.3928 41.9531 41.3364C40.8329 40.5797 39.6334 40.146 38.2694 40.1338C36.8943 40.1216 35.705 40.6082 34.5847 41.3446C32.8521 42.4821 31.1093 42.4872 29.3797 41.3486C26.9015 39.7164 24.4407 39.6981 21.9717 41.3659C21.0779 41.9692 20.0867 42.2546 19.002 42.1724C18.9959 41.1556 18.9898 40.1389 18.9837 39.1222C18.9837 38.5889 18.9827 38.0567 18.9817 37.5235C18.9908 36.5332 19 35.5439 19.0081 34.5536C20.3497 34.6511 21.5705 34.3118 22.7029 33.5846C23.1244 33.3134 23.5297 33.0036 24.0172 32.834C25.5365 32.3038 26.9635 32.4683 28.3021 33.3662C29.34 34.062 30.444 34.5363 31.7268 34.5718C33.1659 34.6114 34.4456 34.2041 35.6176 33.3926C36.4738 32.8004 37.4163 32.4988 38.4675 32.5313C39.5603 32.5658 40.4652 33.0534 41.3488 33.6333C42.6315 34.4753 44.0382 34.6998 45.5535 34.4946C46.6483 34.3463 47.5431 33.806 48.4511 33.2535C50.0283 32.2936 51.6259 32.255 53.2245 33.2098C54.2076 33.7969 55.1735 34.3931 56.3587 34.5373C57.2515 34.647 57.6069 34.5729 57.9451 33.9543L57.9461 33.9512Z" fill="#6ED7FC"/>
<path d="M57.9461 52.3121L57.9461 60.8328C57.7064 60.7241 57.5977 60.4225 57.2747 60.4235C56.121 60.4235 55.1175 59.9979 54.1801 59.3489C52.8314 58.4154 51.3242 58.2336 49.7327 58.4784C48.7526 58.6287 47.933 59.1122 47.1215 59.6312C46.2623 60.1817 45.3249 60.4844 44.2991 60.4113C43.3901 60.3463 42.5725 60.0172 41.825 59.488C40.3534 58.4459 38.7132 58.193 36.9612 58.5018C35.9872 58.6734 35.191 59.2148 34.3683 59.7115C33.4339 60.2762 32.4457 60.524 31.3306 60.3575C30.4236 60.2214 29.6964 59.7704 28.9439 59.3214C26.8222 58.0579 24.661 57.9838 22.5393 59.2717C21.4354 59.942 20.3283 60.4865 19.005 60.4336C18.9958 59.6058 18.9867 58.778 18.9775 57.9502C18.9806 57.4211 18.9826 56.8919 18.9857 56.3617C18.9857 55.3145 18.9846 54.2683 18.9836 53.2211C18.9928 53.0871 19.0019 52.953 19.0111 52.8189C20.4604 52.8951 21.7685 52.5081 22.9578 51.6671C24.0851 50.8698 25.3394 50.6128 26.7034 50.8901C27.4875 51.0496 28.1131 51.5147 28.7793 51.9058C30.9193 53.1602 33.0541 53.1582 35.19 51.8956C35.6531 51.6214 36.101 51.2984 36.5976 51.1064C38.18 50.495 39.6577 50.7662 41.0593 51.6996C43.3596 53.2313 45.7037 53.2425 48.0173 51.7484C49.9338 50.5102 51.8036 50.4218 53.7119 51.7494C54.6544 52.4055 55.7117 52.7712 56.8746 52.825C57.3448 52.8473 57.6932 52.7011 57.9461 52.3121Z" fill="#6ED7FC"/>
<path d="M19.005 60.4337C20.3284 60.4865 21.4354 59.9421 22.5394 59.2717C24.661 57.9838 26.8223 58.0579 28.9439 59.3215C29.6965 59.7694 30.4237 60.2214 31.3307 60.3575C32.4458 60.5241 33.434 60.2762 34.3684 59.7115C35.19 59.2148 35.9873 58.6735 36.9613 58.5018C38.7132 58.193 40.3525 58.4459 41.8251 59.4881C42.5726 60.0172 43.3902 60.3463 44.2992 60.4113C45.326 60.4845 46.2624 60.1818 47.1216 59.6313C47.9331 59.1122 48.7537 58.6288 49.7328 58.4784C51.3243 58.2337 52.8304 58.4155 54.1802 59.3489C55.1186 59.9979 56.121 60.4245 57.2748 60.4235C57.5978 60.4235 57.7064 60.7242 57.9461 60.8328C57.9461 61.2046 58.0914 61.7216 57.9055 61.9075C57.7196 62.0933 57.2027 61.9481 56.831 61.9481L56.2226 61.9481C55.011 61.7074 54.0106 61.0228 52.9513 60.4438C51.5893 59.6993 50.1451 59.7034 48.7913 60.457C47.7503 61.037 46.758 61.6921 45.5717 61.9481L43.5425 61.9481C42.3492 61.6708 41.3549 60.9842 40.2956 60.4184C38.9671 59.7095 37.5605 59.7115 36.2382 60.4337C35.185 61.0086 34.1876 61.682 32.9932 61.9481L30.8635 61.9481C29.6772 61.6525 28.6982 60.9344 27.6328 60.3869C26.3125 59.7085 24.921 59.7217 23.619 60.4408C22.5516 61.0299 21.541 61.7196 20.3132 61.9481L18.5886 61.9481C19.1503 61.5591 18.9512 60.9618 19.005 60.4337Z" fill="#2AC1FC"/>
<path d="M57.9463 33.9512C57.6081 34.5708 57.2536 34.6439 56.3599 34.5342C55.1746 34.389 54.2098 33.7928 53.2256 33.2067C51.627 32.253 50.0284 32.2916 48.4522 33.2504C47.5432 33.8029 46.6495 34.3433 45.5546 34.4916C44.0393 34.6967 42.6327 34.4723 41.3499 33.6303C40.4663 33.0503 39.5614 32.5628 38.4686 32.5282C37.4174 32.4957 36.4749 32.7974 35.6188 33.3895C34.4467 34.2001 33.167 34.6084 31.7279 34.5688C30.4452 34.5332 29.3412 34.0589 28.3032 33.3631C26.9636 32.4652 25.5377 32.3007 24.0183 32.8309C23.5308 33.0005 23.1266 33.3103 22.7041 33.5815C21.5706 34.3087 20.3509 34.648 19.0092 34.5505C18.9991 34.5139 18.9889 34.4774 18.9788 34.4418C18.9899 33.9705 19.0001 33.5002 19.0113 33.029C20.1731 33.1204 21.2081 32.7781 22.1577 32.1209C23.8568 30.9437 25.7022 30.7192 27.6613 31.3205C28.3642 31.5359 28.9542 31.9747 29.5768 32.3444C31.214 33.3164 32.8492 33.291 34.4579 32.2997C35.3689 31.739 36.2738 31.1997 37.3666 31.0687C38.7855 30.898 40.1251 31.0849 41.3611 31.8416C42.136 32.3149 42.8744 32.8553 43.8209 32.9792C44.9513 33.1265 46.0086 32.9812 46.9765 32.3535C47.9159 31.7451 48.8727 31.1794 50.0213 31.0575C51.3823 30.9133 52.6934 31.0524 53.8746 31.7969C54.9258 32.4602 55.9688 33.1041 57.2841 33.0533C57.5989 33.0412 57.7716 33.3164 57.9463 33.5449L57.9463 33.9502L57.9463 33.9512Z" fill="#2AC1FC"/>
<path d="M57.9461 52.3121C57.6932 52.7021 57.3458 52.8474 56.8746 52.825C55.7117 52.7712 54.6554 52.4045 53.7119 51.7494C51.8036 50.4219 49.9338 50.5092 48.0173 51.7484C45.7027 53.2435 43.3586 53.2323 41.0593 51.6996C39.6587 50.7662 38.18 50.495 36.5976 51.1064C36.101 51.2984 35.6531 51.6214 35.19 51.8956C33.0541 53.1592 30.9193 53.1602 28.7793 51.9058C28.1131 51.5158 27.4875 51.0496 26.7034 50.8901C25.3394 50.6128 24.0851 50.8698 22.9578 51.6671C21.7685 52.5081 20.4604 52.8941 19.0111 52.8189C18.9999 52.4208 18.9887 52.0216 18.9775 51.6234C18.9867 51.5178 18.9958 51.4112 19.006 51.3055C20.4725 51.4558 21.6029 50.6666 22.8064 50.0115C24.8509 48.8983 26.9167 48.9765 28.8971 50.2045C29.9016 50.8271 30.904 51.3502 32.137 51.3076C33.2166 51.271 34.1022 50.7967 34.9848 50.2502C37.2476 48.8485 39.5206 48.9003 41.7296 50.3457C43.383 51.4274 45.0568 51.6519 46.83 50.7093C47.2007 50.5123 47.5349 50.2451 47.9046 50.045C49.9348 48.9531 51.9742 48.941 53.9638 50.1161C54.9875 50.7205 55.9737 51.3553 57.23 51.3045C57.5723 51.2903 57.7541 51.5686 57.9461 51.8042L57.9461 52.3111L57.9461 52.3121Z" fill="#29C1FC"/>
<path d="M19.0021 42.1693C20.0868 42.2516 21.078 41.9661 21.9718 41.3628C24.4408 39.695 26.9016 39.7133 29.3797 41.3456C31.1093 42.4852 32.8522 42.4801 34.5848 41.3415C35.705 40.6051 36.8954 40.1186 38.2695 40.1308C39.6335 40.143 40.8319 40.5767 41.9532 41.3334C43.5172 42.3897 45.1585 42.4618 46.8302 41.5792C47.1867 41.3902 47.5107 41.1404 47.8641 40.9443C49.9228 39.8017 51.9875 39.8129 54.0066 41.0124C55.0151 41.6117 55.9942 42.2231 57.2302 42.1723C57.5725 42.1581 57.7543 42.4364 57.9462 42.6721L57.9462 43.1789C57.6933 43.5669 57.347 43.7152 56.8747 43.6928C55.7118 43.638 54.6536 43.2744 53.7131 42.6162C51.8037 41.2795 49.935 41.3801 48.0195 42.6162C45.7039 44.1093 43.3608 44.1001 41.0604 42.5685C39.6599 41.635 38.1811 41.3638 36.5988 41.9753C36.1022 42.1673 35.6543 42.4902 35.1911 42.7645C33.0553 44.028 30.9204 44.029 28.7805 42.7746C28.1143 42.3846 27.4886 41.9184 26.7046 41.7589C25.3396 41.4817 24.0863 41.7396 22.9579 42.536C21.7686 43.377 20.4615 43.7639 19.0112 43.6868C19.0011 43.2063 18.9899 42.7259 18.9797 42.2455C18.9828 42.218 18.9899 42.1926 19.0021 42.1683L19.0021 42.1693Z" fill="#29C1FC"/>
<path d="M31.7686 11.2167C32.0753 10.8155 32.382 10.4143 32.6887 10.0121C32.8238 10.0121 32.9589 10.0121 33.095 10.0121C34.1319 11.5092 35.305 12.9028 36.3795 14.3705C36.5552 14.6112 36.93 14.8123 36.7553 15.1841C36.5755 15.5649 36.1825 15.3821 35.8869 15.3872C34.593 15.4095 34.6407 15.2511 34.6448 16.6162C34.6499 18.154 34.6468 19.6917 34.6448 21.2295C34.6448 21.8796 34.594 21.9385 33.9643 21.9436C33.3743 21.9486 32.7832 21.9304 32.1931 21.9222C32.2784 21.6988 32.2875 21.4662 32.2875 21.2285C32.2835 19.6958 32.2814 18.1621 32.2875 16.6294C32.2906 15.7803 32.4643 15.568 33.2686 15.3781C33.9227 15.2226 34.1847 14.5553 33.7917 14.014C33.5459 13.6747 33.2483 13.371 33.0218 13.0206C32.6247 12.4041 32.0093 11.9399 31.7696 11.2157L31.7686 11.2167Z" fill="#F87931"/>
<path d="M49.8313 25.9424C50.8682 24.4453 52.0413 23.0517 53.1158 21.584C53.2915 21.3433 53.6662 21.1422 53.4916 20.7705C53.3118 20.3896 52.9188 20.5724 52.6232 20.5673C51.3293 20.545 51.377 20.7034 51.3811 19.3383C51.3862 17.8005 51.3831 16.2628 51.3811 14.725C51.3811 14.0749 51.3303 14.016 50.7006 14.0109C50.1105 14.0059 49.5195 14.0242 48.9294 14.0323C49.0147 14.2557 49.0238 14.4883 49.0238 14.726C49.0198 16.2587 49.0177 17.7924 49.0238 19.3251C49.0269 20.1742 49.2005 20.3865 50.0049 20.5765C50.659 20.7319 50.921 21.3992 50.528 21.9416C50.2822 22.2808 49.9846 22.5845 49.7581 22.9349C49.361 23.5515 48.7466 24.0156 48.5059 24.7398C48.8126 25.141 49.1193 25.5422 49.426 25.9445C49.5611 25.9445 49.6962 25.9445 49.8323 25.9445L49.8313 25.9424Z" fill="#F87931"/>
<path d="M15.8608 13.9926C15.8567 13.0714 15.8303 12.1491 15.8587 11.2289C15.874 10.7535 15.811 10.3391 15.4434 10.011L18.5877 10.011C18.9595 10.3391 19.0204 10.7566 19.0021 11.2329C18.9666 12.1552 18.9798 13.0795 18.9727 14.0018C17.9357 13.9987 16.8987 13.9957 15.8608 13.9926Z" fill="#1F50F5"/>
<path d="M19.0051 60.4337C18.9513 60.9619 19.1504 61.5601 18.5887 61.9481L15.4443 61.9481C15.812 61.62 15.875 61.2056 15.8597 60.7303C15.8313 59.8101 15.8577 58.8878 15.8618 57.9665C16.9007 57.9605 17.9397 57.9554 18.9787 57.9493C18.9879 58.7771 18.997 59.6049 19.0061 60.4327L19.0051 60.4337Z" fill="#1F50F5"/>
<path d="M31.7684 11.2167C32.0081 11.9399 32.6236 12.405 33.0207 13.0216C33.2472 13.372 33.5448 13.6757 33.7905 14.0149C34.1836 14.5573 33.9215 15.2246 33.2675 15.379C32.4631 15.57 32.2894 15.7813 32.2864 16.6304C32.2803 18.1631 32.2823 19.6968 32.2864 21.2295C32.2864 21.4672 32.2773 21.6987 32.1919 21.9232C31.4417 21.932 31.0666 21.5745 31.0666 20.8506C31.0666 19.2458 31.0534 17.64 31.0748 16.0352C31.0808 15.5507 30.9112 15.3506 30.4248 15.3882C30.0886 15.4136 29.7494 15.3902 29.4112 15.3943C29.2355 15.3963 29.0608 15.3841 28.9683 15.2125C28.8658 15.0205 28.9602 14.858 29.079 14.7036C29.8519 13.7001 30.6208 12.6935 31.3926 11.689C31.5145 11.5295 31.6425 11.3751 31.7674 11.2177L31.7684 11.2167Z" fill="#FF9153"/>
<path d="M48.5059 24.7379C48.7456 24.0147 49.3611 23.5495 49.7582 22.933C49.9847 22.5826 50.2823 22.2789 50.5281 21.9396C50.9211 21.3973 50.6591 20.7299 50.005 20.5745C49.2016 20.3836 49.027 20.1723 49.0239 19.3232C49.0178 17.7905 49.0198 16.2568 49.0239 14.7241C49.0239 14.4864 49.0148 14.2548 48.9295 14.0304C48.1793 14.0216 47.8041 14.3791 47.8041 15.1029C47.8041 16.7078 47.7909 18.3136 47.8123 19.9184C47.8184 20.4029 47.6488 20.603 47.1623 20.5654C46.8261 20.54 46.4869 20.5634 46.1487 20.5593C45.973 20.5573 45.7983 20.5695 45.7059 20.7411C45.6033 20.9331 45.6977 21.0956 45.8176 21.25C46.5905 22.2535 47.3593 23.2601 48.1312 24.2646C48.2531 24.4241 48.381 24.5784 48.5059 24.7359L48.5059 24.7379Z" fill="#FF9153"/>
<path d="M15.8425 28.1231C15.8435 27.0932 15.8446 26.0632 15.8456 25.0333C16.8612 25.0252 17.8758 25.0181 18.8914 25.0099L18.9392 25.0232L18.9879 25.0171C18.9889 26.0673 18.991 27.1175 18.992 28.1668C17.9418 28.1525 16.8917 28.1373 15.8425 28.1231Z" fill="#1F50F5"/>
<path d="M15.8444 32.8228C15.8444 31.7908 15.8423 30.7578 15.8413 29.7259C16.8915 29.7137 17.9406 29.7015 18.9908 29.6883C18.9897 30.7406 18.9877 31.7938 18.9867 32.8461C17.9396 32.838 16.8925 32.8299 15.8454 32.8217L15.8444 32.8228Z" fill="#1F50F5"/>
<path d="M15.8433 18.7217C15.8433 17.6877 15.8423 16.6537 15.8413 15.6187C16.8904 15.6076 17.9396 15.5974 18.9887 15.5862C18.9887 16.6395 18.9867 17.6928 18.9857 18.7461C17.9386 18.738 16.8904 18.7288 15.8433 18.7207L15.8433 18.7217Z" fill="#1F50F5"/>
<path d="M15.8496 23.4021C15.8506 22.3843 15.8516 21.3666 15.8537 20.3499C16.8957 20.3448 17.9377 20.3397 18.9787 20.3347C18.9808 21.3615 18.9838 22.3874 18.9859 23.4143C18.9523 23.4051 18.9219 23.4092 18.8924 23.4275C17.8788 23.4193 16.8642 23.4112 15.8506 23.4021L15.8496 23.4021Z" fill="#1F50F5"/>
<path d="M15.8445 32.8228C16.8916 32.8309 17.9387 32.839 18.9858 32.8471C18.9939 32.9081 19.0031 32.969 19.0112 33.03C19 33.5012 18.9899 33.9715 18.9787 34.4428C17.9367 34.4469 16.8946 34.4509 15.8526 34.454L15.8648 34.4144C15.8617 33.8933 15.8597 33.3723 15.8567 32.8512L15.8445 32.8238L15.8445 32.8228Z" fill="#F7F6F7"/>
<path d="M18.9787 20.3347C17.9367 20.3398 16.8947 20.3448 15.8537 20.3499C15.8465 20.3286 15.8415 20.3073 15.8374 20.2849C15.8435 19.773 15.8496 19.2621 15.8557 18.7502L15.8445 18.7217C16.8916 18.7299 17.9397 18.739 18.9869 18.7471C18.9838 19.2763 18.9818 19.8055 18.9797 20.3357L18.9787 20.3347Z" fill="#EEECED"/>
<path d="M18.9887 15.5863C17.9396 15.5974 16.8904 15.6076 15.8413 15.6188L15.8525 15.5853C15.8494 15.0764 15.8474 14.5675 15.8444 14.0587C15.8525 14.0373 15.8586 14.016 15.8606 13.9937C16.8976 13.9967 17.9345 13.9997 18.9725 14.0028C18.9776 14.531 18.9837 15.0581 18.9887 15.5863Z" fill="#EEECED"/>
<path d="M15.8495 23.4021C16.8631 23.4102 17.8777 23.4184 18.8913 23.4275C18.9198 23.4529 18.9482 23.4793 18.9756 23.5047C18.9766 23.978 18.9776 24.4503 18.9797 24.9236C18.9502 24.9531 18.9208 24.9815 18.8913 25.011C17.8757 25.0191 16.8611 25.0262 15.8455 25.0343L15.8587 25.0049C15.8597 24.4828 15.8607 23.9618 15.8627 23.4397L15.8505 23.4041L15.8495 23.4021Z" fill="#F7F6F7"/>
<path d="M18.9898 29.6893C17.9396 29.7015 16.8905 29.7137 15.8403 29.7269L15.8495 29.6893C15.8485 29.1815 15.8474 28.6747 15.8464 28.1668L15.8413 28.1241C16.8915 28.1384 17.9417 28.1536 18.9908 28.1678C18.9908 28.6747 18.9898 29.1825 18.9888 29.6893L18.9898 29.6893Z" fill="#F7F6F7"/>
<path d="M18.9766 23.5047C18.9482 23.4793 18.9198 23.4529 18.8923 23.4275C18.9218 23.4092 18.9533 23.4052 18.9858 23.4143C18.9939 23.4458 18.9908 23.4753 18.9766 23.5047Z" fill="#F7F6F7"/>
<path d="M18.8914 25.01C18.9208 24.9805 18.9503 24.9521 18.9797 24.9226C18.996 24.9531 18.999 24.9846 18.9878 25.0171L18.9391 25.0232L18.8914 25.01Z" fill="#F7F6F7"/>
<path d="M18.9878 43.8168C18.9868 44.8558 18.9848 45.8939 18.9838 46.933C18.9513 46.9299 18.9208 46.935 18.8924 46.9502C17.8767 46.9543 16.8611 46.9594 15.8445 46.9634L15.8536 46.9187C15.8506 45.9051 15.8475 44.8904 15.8445 43.8767C15.8465 43.8523 15.8496 43.8269 15.8526 43.8026C16.8977 43.8076 17.9428 43.8117 18.9878 43.8168Z" fill="#1F50F5"/>
<path d="M18.9837 53.2212C18.9837 54.2684 18.9847 55.3145 18.9857 56.3617C17.9376 56.3546 16.8894 56.3485 15.8413 56.3414C15.8413 55.3074 15.8423 54.2734 15.8433 53.2384C16.8904 53.2323 17.9365 53.2262 18.9837 53.2202L18.9837 53.2212Z" fill="#1F50F5"/>
<path d="M19.002 42.1693C18.9898 42.1937 18.9817 42.2191 18.9797 42.2465C17.9356 42.2566 16.8916 42.2668 15.8475 42.277C15.8556 42.2607 15.8576 42.2424 15.8536 42.2252C15.8536 41.1983 15.8536 40.1714 15.8536 39.1445L15.8455 39.1049C16.8916 39.11 17.9376 39.1151 18.9848 39.1212C18.9908 40.1379 18.9969 41.1546 19.003 42.1713L19.002 42.1693Z" fill="#1F50F5"/>
<path d="M15.8515 34.454C16.8935 34.4499 17.9355 34.4459 18.9776 34.4428C18.9877 34.4794 18.9979 34.5159 19.008 34.5525C18.9989 35.5428 18.9897 36.5321 18.9816 37.5224C17.9355 37.5427 16.8864 37.4554 15.8413 37.5671C15.8504 37.5458 15.8535 37.5234 15.8494 37.5001L15.8515 34.455L15.8515 34.454Z" fill="#1F50F5"/>
<path d="M19.0062 51.3045C18.9971 51.4102 18.9879 51.5168 18.9778 51.6224C17.9357 51.6184 16.8947 51.6143 15.8527 51.6102C15.8527 50.5956 15.8517 49.5809 15.8507 48.5662C15.8507 48.5469 15.8486 48.5286 15.8425 48.5103C16.8582 48.5875 17.8748 48.5438 18.8914 48.5337C18.9199 48.5509 18.9503 48.557 18.9828 48.554C18.99 49.4712 18.9981 50.3884 19.0052 51.3055L19.0062 51.3045Z" fill="#1F50F5"/>
<path d="M15.8527 51.6113C16.8947 51.6153 17.9357 51.6194 18.9778 51.6235C18.9889 52.0216 19.0001 52.4208 19.0113 52.8189C19.0021 52.953 18.993 53.0871 18.9838 53.2212C17.9367 53.2273 16.8906 53.2333 15.8435 53.2394L15.8547 53.211C15.8486 52.6991 15.8425 52.1882 15.8364 51.6763C15.8405 51.6539 15.8456 51.6326 15.8527 51.6113Z" fill="#EEECED"/>
<path d="M15.8413 56.3414C16.8894 56.3485 17.9376 56.3546 18.9857 56.3617C18.9826 56.8909 18.9806 57.4201 18.9776 57.9503C17.9386 57.9564 16.8996 57.9615 15.8606 57.9676C15.8576 57.9452 15.8525 57.9229 15.8444 57.9026C15.8474 57.3937 15.8494 56.8848 15.8525 56.376L15.8413 56.3424L15.8413 56.3414Z" fill="#EEECED"/>
<path d="M15.8535 39.1435C15.687 39.1354 15.5194 39.1344 15.3538 39.1181C14.91 39.0744 14.5921 38.7484 14.6013 38.3299C14.6114 37.8769 14.8724 37.626 15.3041 37.5499C15.4838 37.5184 15.6687 37.5153 15.8505 37.4991C15.8545 37.5224 15.8515 37.5448 15.8424 37.5661C15.8434 38.0791 15.8444 38.591 15.8454 39.1039L15.8535 39.1435Z" fill="#F7F6F7"/>
<path d="M15.8618 23.4377C15.8608 23.9597 15.8598 24.4808 15.8578 25.0029C15.7572 25.0069 15.6567 25.0151 15.5561 25.014C14.962 25.009 14.5984 24.7073 14.5984 24.2208C14.5984 23.7363 14.9589 23.4377 15.5602 23.4275C15.6607 23.4255 15.7613 23.4336 15.8618 23.4377Z" fill="#F7F6F7"/>
<path d="M15.8516 48.5662C15.6861 48.553 15.5185 48.5469 15.354 48.5266C14.8949 48.4707 14.5973 48.1559 14.5994 47.7364C14.6004 47.2986 14.9234 46.9807 15.4048 46.9461C15.5541 46.935 15.7044 46.9279 15.8547 46.9197L15.8455 46.9644C15.8455 47.4794 15.8455 47.9954 15.8445 48.5103C15.8506 48.5286 15.8537 48.5469 15.8527 48.5662L15.8516 48.5662Z" fill="#F7F6F7"/>
<path d="M15.8555 32.8512C15.8586 33.3722 15.8606 33.8933 15.8637 34.4144C15.6798 34.4144 15.492 34.4347 15.3112 34.4103C14.8552 34.3473 14.5647 34.0091 14.6033 33.5835C14.6449 33.1356 14.912 32.8898 15.3528 32.8441C15.5184 32.8268 15.688 32.8471 15.8555 32.8512Z" fill="#F7F6F7"/>
<path d="M15.8516 43.8025C15.8486 43.8269 15.8455 43.8523 15.8435 43.8767C15.5784 43.894 15.3255 43.9082 15.0706 43.7609C14.6999 43.5466 14.5404 43.248 14.6329 42.8427C14.7222 42.4486 15.0036 42.2668 15.4037 42.2577C15.553 42.2536 15.7023 42.2363 15.8526 42.2252C15.8567 42.2434 15.8547 42.2607 15.8465 42.277C15.8486 42.7858 15.8496 43.2947 15.8516 43.8025Z" fill="#F7F6F7"/>
<path d="M15.8372 51.6763C15.8433 52.1882 15.8494 52.6991 15.8555 53.211C15.7042 53.2151 15.5529 53.2303 15.4026 53.2222C14.91 53.1938 14.6063 52.883 14.6124 52.4239C14.6185 51.979 14.8968 51.7027 15.3843 51.6712C15.5346 51.6611 15.6869 51.6743 15.8383 51.6763L15.8372 51.6763Z" fill="#F7F6F7"/>
<path d="M15.8525 56.3749C15.8494 56.8838 15.8474 57.3927 15.8444 57.9015C15.6758 57.9036 15.5072 57.9188 15.3396 57.9056C14.8917 57.8701 14.6205 57.5867 14.6104 57.1601C14.6002 56.7142 14.8826 56.4044 15.3467 56.3678C15.5133 56.3546 15.6829 56.3719 15.8515 56.3749L15.8525 56.3749Z" fill="#F7F6F7"/>
<path d="M15.8445 14.0586C15.8476 14.5675 15.8496 15.0764 15.8527 15.5852C15.7013 15.5893 15.549 15.6035 15.3987 15.5954C14.899 15.568 14.6014 15.2633 14.6116 14.7991C14.6217 14.3542 14.9061 14.0769 15.3906 14.0505C15.5409 14.0424 15.6932 14.0556 15.8445 14.0586Z" fill="#F7F6F7"/>
<path d="M15.8475 28.1658C15.8485 28.6736 15.8495 29.1804 15.8505 29.6883C15.6819 29.6913 15.5133 29.7086 15.3457 29.6954C14.8826 29.6599 14.5993 29.348 14.6104 28.9021C14.6216 28.4766 14.8958 28.1922 15.3417 28.1586C15.5093 28.1465 15.6778 28.1627 15.8464 28.1658L15.8475 28.1658Z" fill="#F7F6F7"/>
<path d="M15.8546 18.7492C15.8486 19.2611 15.8425 19.772 15.8364 20.2839C15.685 20.2859 15.5337 20.2991 15.3824 20.289C14.8939 20.2565 14.6176 19.9833 14.6105 19.5353C14.6024 19.0783 14.9091 18.7654 15.4007 18.738C15.551 18.7299 15.7023 18.7451 15.8536 18.7492L15.8546 18.7492Z" fill="#F7F6F7"/>
<path d="M15.8425 48.5103C15.8425 47.9954 15.8425 47.4794 15.8435 46.9644C16.8592 46.9604 17.8748 46.9553 18.8914 46.9512L18.9808 47.0376C18.9788 47.5109 18.9778 47.9842 18.9757 48.4575C18.9473 48.4829 18.9189 48.5093 18.8914 48.5347C17.8748 48.5449 16.8582 48.5886 15.8425 48.5114L15.8425 48.5103Z" fill="#F7F6F7"/>
<path d="M15.8515 43.8025C15.8495 43.2937 15.8485 42.7848 15.8464 42.2769C16.8905 42.2668 17.9346 42.2566 18.9786 42.2465C18.9888 42.7269 19 43.2073 19.0101 43.6877C19.002 43.7304 18.9949 43.7731 18.9867 43.8157C17.9417 43.8117 16.8966 43.8066 15.8515 43.8015L15.8515 43.8025Z" fill="#F7F6F7"/>
<path d="M18.9807 47.0365L18.8914 46.9502C18.9198 46.9349 18.9513 46.9299 18.9828 46.9329C18.9828 46.9674 18.9807 47.002 18.9797 47.0355L18.9807 47.0365Z" fill="#F7F6F7"/>
<path d="M18.8914 48.5337C18.9198 48.5083 18.9483 48.4819 18.9757 48.4565C18.9879 48.488 18.9899 48.5205 18.9828 48.553C18.9503 48.557 18.9188 48.5499 18.8904 48.5337L18.8914 48.5337Z" fill="#F7F6F7"/>
<path d="M15.8444 39.1039C15.8444 38.5909 15.8423 38.079 15.8413 37.5661C16.8864 37.4544 17.9345 37.5417 18.9816 37.5214C18.9816 38.0547 18.9826 38.5869 18.9837 39.1201C17.9376 39.1151 16.8915 39.11 15.8444 39.1039Z" fill="#F7F6F7"/>
</g>
<defs>
<filter id="filter0_f_47_531" x="-6.33213" y="0.731403" width="75.5813" height="71.2127" filterUnits="userSpaceOnUse" color-interpolation-filters="sRGB">
<feFlood flood-opacity="0" result="BackgroundImageFix"/>
<feBlend mode="normal" in="SourceGraphic" in2="BackgroundImageFix" result="shape"/>
<feGaussianBlur stdDeviation="8.41143" result="effect1_foregroundBlur_47_531"/>
</filter>
</defs>
</svg>
