<svg width="140" height="140" viewBox="0 0 126 120" fill="none" xmlns="http://www.w3.org/2000/svg">

<path d="M40.9835 98.0015C40.2481 97.6011 39.4151 97.4115 38.7908 96.7622C37.8715 95.8044 37.3928 94.7222 37.4119 93.3909C37.4368 91.6613 37.4138 89.9316 37.4119 88.202C39.4055 88.1924 41.401 88.179 43.3946 88.1751C45.7942 88.1713 48.1918 88.1694 50.5914 88.1751C51.4666 88.1771 51.7883 88.5084 51.8017 89.3838C51.8094 89.8358 51.794 90.286 51.8094 90.738C51.8591 92.3738 53.1001 93.7261 54.7356 93.7415C59.2474 93.7836 63.7612 93.7836 68.2731 93.7415C69.9124 93.7261 71.1572 92.3796 71.2089 90.7476C71.2242 90.2496 71.2013 89.7496 71.2185 89.2516C71.2434 88.5467 71.5766 88.1828 72.2737 88.1809C75.242 88.1771 78.2104 88.1943 81.1787 88.2039C81.1787 91.4697 81.1787 94.7356 81.1806 98.0015H40.9835Z" fill="#DBD9EA"/>
<path d="M81.1826 98.0014C81.1826 94.7356 81.1826 91.4697 81.1807 88.2038C82.6572 88.2 84.1337 88.1981 85.6102 88.1943C85.6102 89.9757 85.5432 91.7589 85.6217 93.5365C85.7079 95.5113 84.1413 97.3464 82.3469 97.8578C82.2397 97.8884 82.142 97.9536 82.0386 98.0014H81.1826Z" fill="#D1CDE5"/>
<path d="M98.0025 55.5127C97.4682 56.8496 96.6218 57.8361 95.0821 57.9261C94.2069 57.9759 93.3279 57.9223 92.4489 57.9166C94.1667 57.2117 94.9327 55.9302 94.8752 54.078C94.8254 52.4881 94.8714 50.8964 94.8618 49.3046C94.858 48.4005 94.5765 47.5922 94.002 46.8816C93.6228 46.4104 92.9889 46.3127 92.5906 45.8779C93.3681 45.8702 94.1456 45.8204 94.9212 45.8606C96.482 45.9411 97.4012 46.8969 98.0006 48.2416V55.5127H98.0025Z" fill="#2C4D66"/>
<path d="M31.322 45.8511C31.3201 39.9629 31.3124 34.0748 31.3201 28.1848C31.322 26.2674 32.5917 25.0013 34.478 25.0013C49.5285 25.0013 64.579 25.0013 79.6294 25.0013C79.819 25.0013 80.0086 25.0147 80.1982 25.0223C81.803 25.6697 82.638 26.7941 82.4752 28.587C82.4178 29.221 82.4714 29.8665 82.4752 30.5063C82.1439 30.5178 81.8126 30.5369 81.4813 30.5369C67.0532 30.5369 52.6252 30.5369 38.1971 30.5369C37.9826 30.5369 37.77 30.5465 37.5555 30.5369C36.9829 30.512 36.7187 30.8185 36.7168 31.3548C36.7148 32.3739 36.7359 33.3948 36.7493 34.4138C36.7416 34.6514 36.7263 34.8889 36.7263 35.1245C36.7263 47.3796 36.7263 59.6347 36.7263 71.8899C36.7263 73.1522 36.8987 73.3226 38.1626 73.3226C52.6232 73.3226 67.0858 73.3226 81.5464 73.3226C81.8547 73.3226 82.1631 73.3341 82.4714 73.3399C82.4714 73.9815 82.4829 74.6213 82.4637 75.2611C82.4503 75.7304 82.5001 76.1977 82.3814 76.6728C82.119 77.7263 81.3281 78.253 80.4759 78.7415C80.3093 78.7472 80.1446 78.7568 79.978 78.7568C66.09 78.7568 52.2038 78.7568 38.3158 78.7606C38.0152 78.7606 37.6973 78.6687 37.4138 78.8564C36.4889 78.8602 35.5639 78.8698 34.6389 78.8641C32.5783 78.8507 31.322 77.596 31.3201 75.5235C31.3144 69.6622 31.3182 63.8028 31.3182 57.9415C31.3469 57.8074 31.4005 57.6733 31.4005 57.5373C31.4044 53.8021 31.4044 50.067 31.4005 46.3299C31.4005 46.169 31.3508 46.0081 31.3239 45.8453L31.322 45.8511Z" fill="#3060FF"/>
<path d="M80.474 78.7453C81.3262 78.2569 82.1171 77.7301 82.3795 76.6766C82.4982 76.2016 82.4484 75.7342 82.4618 75.2649C82.481 74.6252 82.4676 73.9835 82.4695 73.3437L82.4541 73.2997C83.2604 73.3073 84.0685 73.3207 84.8748 73.3227C86.133 73.3265 86.2938 73.1598 86.2938 71.8822C86.2938 58.5832 86.2938 45.2841 86.2938 31.9851C86.2938 31.8184 86.2996 31.6518 86.2919 31.487C86.2632 30.8683 85.9951 30.5331 85.3172 30.5446C84.3692 30.5619 83.4213 30.5216 82.4733 30.5063C82.4714 29.8666 82.4178 29.223 82.4733 28.587C82.6361 26.7942 81.8011 25.6698 80.1963 25.0223C83.1168 25.0147 86.0391 24.984 88.9596 25.0109C90.5223 25.0243 91.7077 26.4455 91.7096 28.2269C91.7154 33.8105 91.7096 39.3922 91.7135 44.9757C91.7135 45.2841 91.7288 45.5925 91.7364 45.9009C91.7364 49.91 91.7345 53.9209 91.7326 57.93C91.725 63.6898 91.7173 69.4477 91.7115 75.2075C91.7096 77.7512 90.5798 78.8775 88.0212 78.8756C87.215 78.8756 86.4107 78.8718 85.6044 78.8698C85.3765 78.6783 85.1065 78.7683 84.8556 78.7664C83.3944 78.7511 81.9313 78.7492 80.4701 78.7434L80.474 78.7453Z" fill="#1F50F5"/>
<path d="M37.412 85.9685C37.4158 84.9418 37.4177 83.9151 37.4216 82.8885C51.6696 82.8885 65.9177 82.8885 80.1657 82.8885C81.0945 82.8885 81.1692 82.9593 81.1807 83.8979C81.1884 84.5875 81.1807 85.2751 81.1807 85.9647C80.8973 85.9762 80.6119 85.9992 80.3285 86.0011C77.5976 86.0049 74.8648 85.9915 72.134 86.0068C70.3644 86.0164 69.089 87.2921 69.045 89.0563C69.0335 89.5313 69.0564 90.0063 69.0354 90.4814C69.0047 91.2111 68.6485 91.5789 67.9189 91.5789C63.6426 91.5885 59.3682 91.5885 55.0918 91.5789C54.3622 91.5789 54.0175 91.2131 53.9849 90.4737C53.9696 90.0944 53.983 89.7133 53.9811 89.334C53.9677 87.2461 52.7401 86.0068 50.6642 86.003C47.7667 85.9992 44.8692 86.0049 41.9698 85.9992C40.4512 85.9973 38.9306 85.9781 37.412 85.9666V85.9685Z" fill="#DBD9EA"/>
<path d="M81.1807 85.9647C81.1807 85.2751 81.1884 84.5875 81.1807 83.8979C81.1692 82.9593 81.0945 82.8884 80.1657 82.8884C65.9177 82.8884 51.6696 82.8884 37.4216 82.8884C37.4177 81.5457 37.4158 80.203 37.412 78.8602C37.6954 78.6725 38.0133 78.7645 38.314 78.7645C52.202 78.7606 66.0881 78.7606 79.9761 78.7606C80.1427 78.7606 80.3074 78.751 80.474 78.7453C81.9352 78.751 83.3983 78.753 84.8595 78.7683C85.1104 78.7702 85.3804 78.6802 85.6083 78.8717C85.6083 81.2354 85.6102 83.601 85.6121 85.9666C84.1356 86.026 82.6591 86.0279 81.1826 85.9666L81.1807 85.9647Z" fill="#D1CDE5"/>
<path d="M81.1806 85.9647C82.6571 86.0279 84.1336 86.026 85.6101 85.9647C86.2785 86.0624 86.7323 86.4129 86.7113 87.1178C86.6921 87.7786 86.2574 88.1215 85.6101 88.1943C84.1336 88.1981 82.6571 88.2 81.1806 88.2039C78.2122 88.1943 75.2439 88.1771 72.2755 88.1809C71.5785 88.1809 71.2452 88.5467 71.2203 89.2516C71.2031 89.7496 71.2261 90.2496 71.2108 90.7476C71.1572 92.3796 69.9124 93.7281 68.275 93.7415C63.7631 93.7836 59.2493 93.7836 54.7374 93.7415C53.102 93.7261 51.861 92.3738 51.8112 90.738C51.7978 90.2879 51.8112 89.8358 51.8035 89.3838C51.7901 88.5103 51.4684 88.179 50.5932 88.1751C48.1937 88.1675 45.796 88.1694 43.3964 88.1751C41.4029 88.179 39.4074 88.1924 37.4138 88.202C36.7397 88.11 36.2896 87.7576 36.3069 87.0488C36.3241 86.3765 36.7761 86.0528 37.4138 85.9666C38.9324 85.9781 40.453 85.9973 41.9716 85.9992C44.8691 86.0049 47.7666 85.9992 50.666 86.003C52.74 86.0068 53.9695 87.2461 53.9829 89.334C53.9848 89.7133 53.9714 90.0944 53.9867 90.4737C54.0174 91.2131 54.3621 91.577 55.0936 91.5789C59.37 91.5885 63.6444 91.5885 67.9207 91.5789C68.6503 91.5789 69.0065 91.2092 69.0372 90.4814C69.0563 90.0063 69.0333 89.5313 69.0468 89.0563C69.0908 87.2921 70.3662 86.0164 72.1357 86.0068C74.8666 85.9915 77.5994 86.003 80.3303 86.0011C80.6137 86.0011 80.8991 85.9781 81.1825 85.9647H81.1806Z" fill="#375E7D"/>
<path d="M31.322 45.8511C31.3488 46.012 31.3967 46.1729 31.3986 46.3357C31.4025 50.0708 31.4025 53.806 31.3986 57.5431C31.3986 57.6771 31.345 57.8131 31.3163 57.9472C30.263 57.9376 29.2097 57.9262 28.1564 57.9166C28.1507 53.9209 28.1469 49.9253 28.1411 45.9315C29.1982 45.7476 30.263 45.8913 31.3239 45.8549L31.322 45.8511Z" fill="#2E5068"/>
<path d="M28.1392 45.9277C28.1449 49.9234 28.1487 53.919 28.1545 57.9128C26.4386 57.8879 25.0559 56.5777 25.0253 54.8767C24.9908 52.9077 24.9927 50.9386 25.0253 48.9695C25.054 47.2494 26.3792 45.9871 28.1392 45.9277Z" fill="#375E7D"/>
<path d="M91.7345 57.9319C91.7345 53.9228 91.7364 49.9119 91.7383 45.9028C92.0237 45.8951 92.3071 45.8856 92.5924 45.8779C92.9908 46.3127 93.6247 46.4104 94.0038 46.8816C94.5764 47.5922 94.858 48.4006 94.8637 49.3047C94.8714 50.8964 94.8273 52.4882 94.8771 54.078C94.9346 55.9283 94.1685 57.2117 92.4507 57.9166C92.2114 57.9223 91.9739 57.9281 91.7345 57.9319Z" fill="#375E7D"/>
<path d="M82.4675 73.3437C82.1591 73.338 81.8508 73.3265 81.5425 73.3265C67.0819 73.3265 52.6193 73.3265 38.1587 73.3265C36.8948 73.3265 36.7224 73.156 36.7224 71.8937C36.7224 59.6386 36.7224 47.3834 36.7224 35.1283C36.7224 34.8908 36.7377 34.6533 36.7454 34.4177C51.6561 34.4177 66.5667 34.4138 81.4774 34.4138C82.3526 34.4138 82.4636 34.5249 82.4636 35.4003C82.4636 41.5988 82.4656 47.7972 82.4636 53.9956C82.4617 60.4316 82.456 66.8675 82.4521 73.3016L82.4675 73.3456V73.3437ZM62.6772 38.3042C61.8997 38.2409 61.1222 38.2409 60.3428 38.3042C59.0769 38.3042 57.813 38.3042 56.5471 38.3042C55.8156 38.2429 55.084 38.2371 54.3525 38.308C53.0406 38.308 51.7307 38.308 50.4189 38.308C49.6874 38.2371 48.9558 38.2429 48.2243 38.3061C46.9431 38.3003 45.6638 38.2754 44.3827 38.2927C43.5056 38.3042 43.2643 38.58 43.2623 39.4726C43.2623 40.1124 43.27 40.754 43.2758 41.3938C43.2719 42.6254 43.2643 43.859 43.2643 45.0906C43.2643 45.9679 43.5209 46.2323 44.3999 46.238C45.6792 46.2457 46.9584 46.238 48.2396 46.238C48.9635 46.238 49.6874 46.238 50.4113 46.2361C51.6848 46.238 52.9602 46.2399 54.2337 46.2418C55.0017 46.2418 55.7696 46.2399 56.5375 46.238C57.8111 46.238 59.0846 46.238 60.36 46.238C61.1279 46.238 61.8959 46.238 62.6657 46.238C63.9393 46.238 65.2147 46.238 66.4882 46.238C67.2561 46.238 68.0241 46.2399 68.792 46.2418C70.0215 46.2418 71.2529 46.2418 72.4823 46.2418C73.2503 46.2418 74.0182 46.238 74.7862 46.238C75.2132 46.2323 75.6403 46.2246 76.0673 46.2188C76.9444 46.2265 77.8234 46.2437 78.7005 46.2399C79.5106 46.2399 79.7577 45.989 79.7596 45.1768C79.7634 43.2767 79.7634 41.3785 79.7596 39.4783C79.7596 38.5627 79.5068 38.2984 78.5703 38.2907C77.3121 38.2812 76.0539 38.3003 74.7957 38.3061C74.0642 38.2448 73.3326 38.239 72.6011 38.3099C71.2893 38.3099 69.9794 38.3099 68.6675 38.3099C67.8 38.2371 66.9306 38.2524 66.0611 38.2984C64.9332 38.3022 63.8052 38.3042 62.6772 38.308V38.3042ZM70.7799 67.8846C72.0132 67.8923 73.2445 67.9134 74.4778 67.9019C76.0788 67.8866 77.3006 66.7162 77.3045 65.2241C77.3083 63.7856 76.1688 62.6056 74.6215 62.5539C73.2962 62.5099 71.9691 62.5654 70.642 62.5769C70.146 62.5769 69.65 62.5807 69.1521 62.5807C62.8343 62.5807 56.5146 62.575 50.1968 62.5865C48.5077 62.5903 47.3702 63.6764 47.3702 65.2202C47.3702 66.7411 48.4885 67.8712 50.1163 67.8751C57.0048 67.8942 63.8914 67.8827 70.7799 67.8846ZM45.8936 56.9416C47.3855 56.9416 48.5498 55.7732 48.5383 54.281C48.5268 52.8406 47.3491 51.6722 45.9051 51.6683C44.4612 51.6664 43.2777 52.831 43.2623 54.2695C43.247 55.7655 44.4037 56.9397 45.8917 56.9416H45.8936ZM55.6873 56.9435C57.1236 56.9416 58.332 55.754 58.3473 54.3289C58.3626 52.9191 57.1427 51.6798 55.7256 51.6683C54.2261 51.6568 53.0655 52.8176 53.0713 54.327C53.077 55.8115 54.2107 56.9454 55.6853 56.9435H55.6873ZM78.5378 55.3786V55.3824C78.894 55.3824 79.2502 55.3824 79.6045 55.3824C79.6523 55.3824 79.7002 55.3824 79.7462 55.3824C80.3839 55.3537 80.8531 54.9227 80.8761 54.3423C80.899 53.7677 80.4452 53.2563 79.8132 53.2352C78.961 53.2045 78.105 53.2045 77.2528 53.2371C76.6495 53.2601 76.2205 53.7466 76.2225 54.3059C76.2225 54.8652 76.6553 55.3326 77.2566 55.3728C77.6817 55.4016 78.1107 55.3786 78.5378 55.3786ZM71.4999 53.2275C71.4999 53.2275 71.4999 53.2237 71.4999 53.2199C71.0978 53.2199 70.6956 53.2199 70.2953 53.2199C70.2475 53.2199 70.2015 53.2199 70.1536 53.2275C69.537 53.3003 69.175 53.7083 69.1827 54.3232C69.1904 54.9361 69.5561 55.3575 70.1862 55.3786C71.0365 55.4092 71.8887 55.4054 72.739 55.3786C73.3288 55.3594 73.7578 54.8901 73.7673 54.327C73.7788 53.7639 73.3594 53.2792 72.7773 53.2333C72.354 53.2007 71.927 53.2275 71.5018 53.2275H71.4999ZM64.2993 55.3843C64.7512 55.3843 65.2032 55.4073 65.6513 55.3786C66.2546 55.3422 66.6567 54.8921 66.6586 54.3078C66.6586 53.7217 66.2603 53.2543 65.6552 53.2333C64.801 53.2026 63.945 53.2026 63.0909 53.2333C62.4972 53.2543 62.0836 53.7294 62.0759 54.3078C62.0682 54.8767 62.4876 55.3403 63.0871 55.3805C63.4892 55.4073 63.8933 55.3863 64.2974 55.3863L64.2993 55.3843Z" fill="#F8F6F7"/>
<path d="M82.4541 73.2996C82.458 66.8637 82.4637 60.4277 82.4656 53.9937C82.4675 47.7953 82.4656 41.5968 82.4656 35.3984C82.4656 34.523 82.3545 34.4119 81.4794 34.4119C66.5687 34.4119 51.658 34.4138 36.7474 34.4158C36.7359 33.3967 36.7129 32.3758 36.7167 31.3568C36.7167 30.8204 36.9829 30.514 37.5555 30.5389C37.7681 30.5484 37.9826 30.5389 38.1971 30.5389C52.6251 30.5389 67.0532 30.5389 81.4813 30.5389C81.8126 30.5389 82.1439 30.5178 82.4752 30.5082C83.4231 30.5235 84.3711 30.5638 85.3191 30.5465C85.997 30.5331 86.2651 30.8702 86.2938 31.4889C86.3015 31.6556 86.2957 31.8222 86.2957 31.9869C86.2957 45.286 86.2957 58.5851 86.2957 71.8841C86.2957 73.1598 86.133 73.3265 84.8767 73.3245C84.0704 73.3226 83.2623 73.3092 82.456 73.3016L82.4541 73.2996Z" fill="#E5E3EA"/>
<path d="M70.7799 67.8846C63.8915 67.8846 57.0049 67.8942 50.1164 67.875C48.4886 67.8712 47.3702 66.7392 47.3702 65.2202C47.3702 63.6763 48.5078 62.5884 50.1969 62.5865C56.5147 62.575 62.8344 62.5807 69.1521 62.5807C69.6481 62.5807 70.1441 62.5788 70.6421 62.5769C70.6746 62.7052 70.7704 62.7474 70.8872 62.7972C72.8252 63.6285 72.9459 66.0956 71.6704 67.128C71.3736 67.3694 70.9197 67.4517 70.7819 67.8827L70.7799 67.8846Z" fill="#395F7E"/>
<path d="M74.7939 38.3042C76.052 38.2984 77.3102 38.2793 78.5665 38.2888C79.503 38.2965 79.7539 38.5589 79.7558 39.4764C79.7596 41.3766 79.7596 43.2748 79.7558 45.1749C79.7539 45.9871 79.5068 46.2361 78.6967 46.238C77.8197 46.2399 76.9406 46.2246 76.0635 46.2169C76.0597 45.0542 76.054 43.8916 76.0501 42.7289C76.0463 41.6677 75.828 41.4359 74.7785 41.3919C74.7766 40.3958 74.7728 39.3979 74.7709 38.4018C74.7785 38.3693 74.7862 38.3386 74.7939 38.3061V38.3042Z" fill="#75CDF7"/>
<path d="M70.7799 67.8846C70.9197 67.4536 71.3717 67.3713 71.6685 67.1299C72.944 66.0956 72.8233 63.6304 70.8853 62.7991C70.7684 62.7493 70.6727 62.7071 70.6401 62.5788C71.9673 62.5673 73.2944 62.5098 74.6196 62.5558C76.167 62.6075 77.3065 63.7874 77.3026 65.226C77.2988 66.7181 76.077 67.8885 74.476 67.9038C73.2446 67.9153 72.0113 67.8923 70.778 67.8865L70.7799 67.8846Z" fill="#2C4D66"/>
<path d="M48.2378 46.2361C46.9585 46.2361 45.6793 46.2457 44.3981 46.2361C43.5191 46.2303 43.2625 45.966 43.2625 45.0887C43.2625 43.8571 43.2701 42.6235 43.2739 41.3919C44.9266 41.3919 46.5813 41.3919 48.2339 41.39C48.2339 43.0047 48.2339 44.6194 48.2339 46.2361H48.2378Z" fill="#A1D3FE"/>
<path d="M45.8937 56.9416C44.4038 56.9416 43.2471 55.7655 43.2644 54.2695C43.2797 52.831 44.4632 51.6664 45.9071 51.6683C47.3492 51.6703 48.5289 52.8406 48.5403 54.281C48.5518 55.7732 47.3894 56.9435 45.8956 56.9416H45.8937Z" fill="#F87931"/>
<path d="M55.6873 56.9435C54.2127 56.9455 53.079 55.8115 53.0733 54.327C53.0675 52.8196 54.228 51.6569 55.7275 51.6684C57.1447 51.6799 58.3646 52.9172 58.3493 54.3289C58.3339 55.754 57.1236 56.9416 55.6892 56.9435H55.6873Z" fill="#F87931"/>
<path d="M54.2319 46.2399C52.9584 46.238 51.6829 46.2361 50.4094 46.2342C50.4152 44.6175 50.4209 43.0009 50.4267 41.3842C51.7327 41.3842 53.0369 41.3842 54.343 41.3842C54.3813 43.0047 54.4617 44.6271 54.2319 46.2437V46.2399Z" fill="#A1D3FE"/>
<path d="M72.4785 46.2399C71.2491 46.2399 70.0177 46.2399 68.7882 46.2399C68.5584 44.6252 68.6408 43.0028 68.6772 41.3804C69.9813 41.3804 71.2855 41.3804 72.5896 41.3804C72.626 43.0009 72.7084 44.6232 72.4785 46.238V46.2399Z" fill="#A1D3FE"/>
<path d="M60.3562 46.2361C59.0827 46.2361 57.8092 46.2361 56.5337 46.2361C56.5337 44.6214 56.5318 43.0066 56.5299 41.3938C57.8092 41.3957 59.0884 41.3976 60.3677 41.4015C60.3639 43.0143 60.3581 44.6271 60.3543 46.238L60.3562 46.2361Z" fill="#A1D3FE"/>
<path d="M66.4844 46.2361C65.2109 46.2361 63.9355 46.2361 62.662 46.238C62.6581 44.6252 62.6524 43.0124 62.6486 41.4015C63.9278 41.3995 65.209 41.3957 66.4883 41.3938C66.4883 43.0085 66.4863 44.6233 66.4844 46.2361Z" fill="#A1D3FE"/>
<path d="M62.6487 41.3995C62.6525 43.0124 62.6582 44.6252 62.6621 46.2361C61.8941 46.2361 61.1262 46.2361 60.3563 46.2361C60.3602 44.6233 60.3659 43.0104 60.3697 41.3976C60.3697 40.4016 60.3736 39.4036 60.3755 38.4076C61.1319 38.4076 61.8884 38.4076 62.6429 38.4076C62.6429 39.4055 62.6467 40.4016 62.6487 41.3995Z" fill="#E4E3EB"/>
<path d="M66.4845 46.2361C66.4845 44.6214 66.4864 43.0066 66.4883 41.3938C66.4902 40.3978 66.4922 39.4017 66.4941 38.4057C67.2141 38.3999 67.9342 38.3961 68.6543 38.3904C68.6619 39.3883 68.6696 40.3843 68.6772 41.3823C68.6389 43.0028 68.5585 44.6252 68.7883 46.2418C68.0204 46.2418 67.2524 46.2399 66.4845 46.238V46.2361Z" fill="#E4E3EB"/>
<path d="M72.4786 46.2399C72.7084 44.6252 72.6261 43.0028 72.5897 41.3823C72.5973 40.3843 72.605 39.3883 72.6127 38.3904C73.3327 38.3942 74.0528 38.398 74.7709 38.4018C74.7728 39.3979 74.7767 40.3958 74.7786 41.3919C74.7786 43.0066 74.7786 44.6214 74.7805 46.2342L72.4767 46.238L72.4786 46.2399Z" fill="#E4E3EB"/>
<path d="M56.5319 41.3919C56.5319 43.0066 56.5319 44.6213 56.5358 46.2342C55.7678 46.2342 54.9999 46.2361 54.2319 46.238C54.4617 44.6233 54.3794 43.0009 54.343 41.3804C54.3507 40.3824 54.3583 39.3864 54.366 38.3884C55.0861 38.3923 55.8061 38.3961 56.5243 38.3999C56.5262 39.396 56.53 40.3939 56.5319 41.39V41.3919Z" fill="#E4E3EB"/>
<path d="M50.4267 41.3823C50.421 42.9989 50.4152 44.6156 50.4095 46.2322C49.6856 46.2322 48.9617 46.2322 48.2378 46.2342C48.2378 44.6194 48.2378 43.0047 48.2378 41.388C48.2416 40.392 48.2435 39.394 48.2474 38.398C48.9674 38.3942 49.6875 38.3923 50.4076 38.3884C50.4152 39.3864 50.421 40.3824 50.4286 41.3804L50.4267 41.3823Z" fill="#E4E3EB"/>
<path d="M48.2472 38.3999C48.2434 39.396 48.2415 40.3939 48.2377 41.39C46.585 41.39 44.9304 41.39 43.2777 41.3919C43.2738 40.7521 43.2623 40.1104 43.2643 39.4707C43.2662 38.5781 43.5075 38.3022 44.3846 38.2907C45.6638 38.2735 46.945 38.2984 48.2262 38.3042C48.2338 38.3348 48.2396 38.3674 48.2472 38.3999Z" fill="#75CDF7"/>
<path d="M50.4266 41.3823C50.4189 40.3843 50.4132 39.3883 50.4055 38.3903C50.4093 38.3616 50.4132 38.3348 50.4189 38.308C51.7307 38.308 53.0406 38.308 54.3525 38.308C54.3582 38.3348 54.362 38.3616 54.3659 38.3903C54.3582 39.3883 54.3505 40.3843 54.3429 41.3823C53.0368 41.3823 51.7327 41.3823 50.4266 41.3823Z" fill="#75CDF7"/>
<path d="M72.6126 38.3884C72.6049 39.3864 72.5973 40.3824 72.5896 41.3804C71.2855 41.3804 69.9813 41.3804 68.6772 41.3804C68.6695 40.3824 68.6618 39.3864 68.6542 38.3884C68.6561 38.3616 68.6618 38.3348 68.6676 38.3061C69.9794 38.3061 71.2893 38.3061 72.6011 38.3061C72.6069 38.3329 72.6107 38.3597 72.6145 38.3884H72.6126Z" fill="#75CDF7"/>
<path d="M56.5318 41.3919C56.5299 40.3958 56.5261 39.3979 56.5242 38.4018C56.5318 38.3693 56.5395 38.3367 56.5471 38.3061C57.813 38.3061 59.0769 38.3061 60.3428 38.3061C60.3505 38.3425 60.362 38.3769 60.3754 38.4114C60.3754 39.4075 60.3715 40.4054 60.3696 41.4014C59.0903 41.3995 57.8111 41.3976 56.5318 41.3938V41.3919Z" fill="#75CDF7"/>
<path d="M66.494 38.4038C66.494 39.3998 66.4902 40.3958 66.4883 41.3919C65.209 41.3938 63.9278 41.3976 62.6486 41.3995C62.6486 40.4016 62.6447 39.4055 62.6428 38.4076C62.6562 38.3731 62.6677 38.3386 62.6754 38.3022C63.8033 38.2984 64.9313 38.2965 66.0593 38.2927C66.1799 38.4229 66.3408 38.3961 66.4921 38.4038H66.494Z" fill="#75CDF7"/>
<path d="M78.5378 55.3786C78.1108 55.3786 77.6818 55.4016 77.2567 55.3729C76.6553 55.3326 76.2244 54.8653 76.2225 54.3059C76.2225 53.7466 76.6496 53.262 77.2528 53.2371C78.105 53.2026 78.9611 53.2045 79.8133 53.2352C80.4452 53.2582 80.8991 53.7677 80.8761 54.3423C80.8532 54.9208 80.384 55.3518 79.7462 55.3824C79.6984 55.3843 79.6505 55.3824 79.6045 55.3824C79.2483 55.3824 78.8921 55.3824 78.5378 55.3824V55.3786Z" fill="#3060FF"/>
<path d="M71.5 53.2275C71.9252 53.2275 72.3522 53.2007 72.7755 53.2333C73.3577 53.2773 73.7771 53.7638 73.7656 54.327C73.7541 54.8901 73.327 55.3613 72.7372 55.3786C71.8869 55.4054 71.0347 55.4073 70.1844 55.3786C69.5563 55.3575 69.1886 54.9361 69.1809 54.3232C69.1732 53.7083 69.5352 53.3003 70.1518 53.2275C70.1978 53.2218 70.2457 53.2199 70.2936 53.2199C70.6957 53.2199 71.0979 53.2199 71.4981 53.2199C71.4981 53.2218 71.4981 53.2237 71.4981 53.2275H71.5Z" fill="#F87931"/>
<path d="M64.2994 55.3843C63.8953 55.3843 63.4913 55.4054 63.0891 55.3786C62.4916 55.3384 62.0722 54.8748 62.0779 54.3059C62.0856 53.7275 62.4993 53.2524 63.0929 53.2314C63.947 53.2007 64.8031 53.2007 65.6572 53.2314C66.2604 53.2543 66.6607 53.7198 66.6607 54.3059C66.6607 54.8921 66.2566 55.3403 65.6534 55.3767C65.2033 55.4035 64.7514 55.3824 64.3013 55.3824L64.2994 55.3843Z" fill="#F87931"/>
<path d="M74.7824 46.2342C74.7824 44.6194 74.7824 43.0047 74.7805 41.3919C75.8281 41.4359 76.0483 41.6677 76.0521 42.7289C76.056 43.8916 76.0617 45.0542 76.0655 46.2169C75.6385 46.2227 75.2114 46.2303 74.7844 46.2361L74.7824 46.2342Z" fill="#A1D3FE"/>
<path d="M66.4941 38.4038C66.3428 38.398 66.1819 38.4229 66.0613 38.2927C66.9307 38.2486 67.7982 38.2314 68.6677 38.3061C68.6619 38.3329 68.6581 38.3616 68.6543 38.3884C67.9342 38.3942 67.2141 38.398 66.4941 38.4038Z" fill="#B5DCF6"/>
<path d="M62.6773 38.3042C62.6696 38.3405 62.6581 38.375 62.6447 38.4095C61.8883 38.4095 61.1318 38.4095 60.3773 38.4095C60.3639 38.375 60.3543 38.3405 60.3447 38.3042C61.1222 38.2409 61.8998 38.2409 62.6792 38.3042H62.6773Z" fill="#B5DCF6"/>
<path d="M72.6125 38.3884C72.6087 38.3616 72.6049 38.3329 72.5991 38.306C73.3307 38.2352 74.0622 38.2428 74.7938 38.3022C74.788 38.3348 74.7804 38.3673 74.7708 38.3999C74.0507 38.3961 73.3307 38.3922 72.6125 38.3884Z" fill="#B5DCF6"/>
<path d="M56.5472 38.3042C56.5395 38.3367 56.5319 38.3693 56.5242 38.3999C55.8042 38.3961 55.086 38.3923 54.3659 38.3884C54.3621 38.3616 54.3583 38.3329 54.3525 38.3061C55.0841 38.2352 55.8156 38.2409 56.5472 38.3042Z" fill="#B5DCF6"/>
<path d="M50.4209 38.308C50.4151 38.3348 50.4113 38.3635 50.4075 38.3903C49.6874 38.3923 48.9673 38.3961 48.2473 38.3999C48.2396 38.3674 48.2339 38.3367 48.2262 38.3041C48.9577 38.2429 49.6893 38.2371 50.4209 38.308Z" fill="#B5DCF6"/>
<defs>
<filter id="filter0_ddddii_2070_1482" x="0" y="0" width="125.358" height="125.358" filterUnits="userSpaceOnUse" color-interpolation-filters="sRGB">
<feFlood flood-opacity="0" result="BackgroundImageFix"/>
<feColorMatrix in="SourceAlpha" type="matrix" values="0 0 0 0 0 0 0 0 0 0 0 0 0 0 0 0 0 0 127 0" result="hardAlpha"/>
<feOffset dx="3" dy="3"/>
<feGaussianBlur stdDeviation="4"/>
<feColorMatrix type="matrix" values="0 0 0 0 0.909804 0 0 0 0 0.909804 0 0 0 0 0.909804 0 0 0 0.9 0"/>
<feBlend mode="normal" in2="BackgroundImageFix" result="effect1_dropShadow_2070_1482"/>
<feColorMatrix in="SourceAlpha" type="matrix" values="0 0 0 0 0 0 0 0 0 0 0 0 0 0 0 0 0 0 127 0" result="hardAlpha"/>
<feOffset dx="-3" dy="-3"/>
<feGaussianBlur stdDeviation="3"/>
<feColorMatrix type="matrix" values="0 0 0 0 1 0 0 0 0 1 0 0 0 0 1 0 0 0 0.9 0"/>
<feBlend mode="normal" in2="effect1_dropShadow_2070_1482" result="effect2_dropShadow_2070_1482"/>
<feColorMatrix in="SourceAlpha" type="matrix" values="0 0 0 0 0 0 0 0 0 0 0 0 0 0 0 0 0 0 127 0" result="hardAlpha"/>
<feOffset dx="3" dy="-3"/>
<feGaussianBlur stdDeviation="3"/>
<feColorMatrix type="matrix" values="0 0 0 0 0.909804 0 0 0 0 0.909804 0 0 0 0 0.909804 0 0 0 0.2 0"/>
<feBlend mode="normal" in2="effect2_dropShadow_2070_1482" result="effect3_dropShadow_2070_1482"/>
<feColorMatrix in="SourceAlpha" type="matrix" values="0 0 0 0 0 0 0 0 0 0 0 0 0 0 0 0 0 0 127 0" result="hardAlpha"/>
<feOffset dx="-3" dy="3"/>
<feGaussianBlur stdDeviation="3"/>
<feColorMatrix type="matrix" values="0 0 0 0 0.909804 0 0 0 0 0.909804 0 0 0 0 0.909804 0 0 0 0.2 0"/>
<feBlend mode="normal" in2="effect3_dropShadow_2070_1482" result="effect4_dropShadow_2070_1482"/>
<feBlend mode="normal" in="SourceGraphic" in2="effect4_dropShadow_2070_1482" result="shape"/>
<feColorMatrix in="SourceAlpha" type="matrix" values="0 0 0 0 0 0 0 0 0 0 0 0 0 0 0 0 0 0 127 0" result="hardAlpha"/>
<feOffset dx="-1" dy="-1"/>
<feGaussianBlur stdDeviation="1"/>
<feComposite in2="hardAlpha" operator="arithmetic" k2="-1" k3="1"/>
<feColorMatrix type="matrix" values="0 0 0 0 0.909804 0 0 0 0 0.909804 0 0 0 0 0.909804 0 0 0 0.5 0"/>
<feBlend mode="normal" in2="shape" result="effect5_innerShadow_2070_1482"/>
<feColorMatrix in="SourceAlpha" type="matrix" values="0 0 0 0 0 0 0 0 0 0 0 0 0 0 0 0 0 0 127 0" result="hardAlpha"/>
<feOffset dx="1" dy="1"/>
<feGaussianBlur stdDeviation="1"/>
<feComposite in2="hardAlpha" operator="arithmetic" k2="-1" k3="1"/>
<feColorMatrix type="matrix" values="0 0 0 0 1 0 0 0 0 1 0 0 0 0 1 0 0 0 0.3 0"/>
<feBlend mode="normal" in2="effect5_innerShadow_2070_1482" result="effect6_innerShadow_2070_1482"/>
</filter>
<linearGradient id="paint0_linear_2070_1482" x1="9" y1="9" x2="114.358" y2="114.358" gradientUnits="userSpaceOnUse">
<stop offset="1" stop-color="white"/>
<stop stop-color="#E8E8E8"/>
</linearGradient>
</defs>
</svg>
