<svg width="55" height="42" viewBox="0 0 55 42" fill="none" xmlns="http://www.w3.org/2000/svg">
<path d="M9.61594 19.638C9.61594 24.6247 9.60391 29.6098 9.5979 34.5965C8.67479 34.5995 7.75169 34.6236 6.83008 34.5995C3.81721 34.5197 1.13359 32.4314 0.294672 29.5421C0.228521 29.3132 0.248066 29.0392 0 28.8917V11.738C0.227018 11.6401 0.198453 11.4037 0.252576 11.2276C1.16817 8.29461 3.14818 6.5541 6.16256 6.09639C7.28562 5.92625 8.45229 6.0452 9.5979 6.03165C9.60391 10.5666 9.61594 15.1031 9.61594 19.638Z" fill="#6E6F80"/>
<path d="M43.0267 41.2469C42.693 41.4878 42.2946 41.6398 41.9262 41.831H11.7208C11.6456 41.7738 11.5765 41.7031 11.4938 41.6624C10.0836 40.9668 9.38147 39.7217 9.66863 38.4193C9.99186 36.9528 11.1315 36.1172 12.8123 36.1142C13.9594 36.1127 15.1065 36.1142 16.2537 36.1142C17.281 36.1142 17.931 35.6138 18.2036 34.613H34.3925C34.4437 34.7802 34.5188 34.9443 34.5399 35.1144C34.6466 35.9365 35.0901 36.1669 35.9095 36.1352C37.7347 36.066 39.5643 36.0976 41.391 36.1217C42.6223 36.1383 43.6597 36.9453 44.034 38.1046C44.4084 39.2639 44.022 40.5257 43.0267 41.2469Z" fill="#585966"/>
<path d="M38.1706 4.13902C38.1601 4.76537 38.1616 5.39171 38.1586 6.01805H21.6479C21.6449 5.24867 21.6449 4.47779 21.6389 3.70841C21.6253 2.0748 22.3334 0.906429 23.8429 0.240939C23.9707 0.185231 24.1406 0.173186 24.1932 3.8147e-05H35.4644C36.4807 0.4442 37.4144 0.969665 37.8774 2.0748C38.1571 2.74631 38.1811 3.43439 38.1706 4.13902Z" fill="#6E6F80"/>
<path d="M55.0001 24.9785C54.4994 25.4994 53.886 25.6214 53.1809 25.5913C52.1932 25.5491 51.2024 25.5853 50.2131 25.5883C50.2131 22.0711 50.2131 18.5555 50.2131 15.0383C51.2069 15.0413 52.2007 15.082 53.1929 15.0338C53.898 15.0007 54.5129 15.0985 55.0001 15.6481V24.977V24.9785Z" fill="#585966"/>
<path d="M43.1289 33.6208C42.4749 34.2471 41.6871 34.6025 40.7715 34.607C38.6442 34.6145 36.5183 34.6115 34.3925 34.613H18.2035C15.335 34.607 12.4664 34.6025 9.5979 34.5964C9.60391 29.6098 9.61594 24.6246 9.61594 19.638C9.61594 15.103 9.60391 10.5665 9.5979 6.03158C13.6151 6.02706 17.6322 6.02255 21.6479 6.01803H38.1586C38.9088 6.01803 39.6605 6.06019 40.4062 6.01201C42.5621 5.86897 44.3422 7.64712 44.1813 9.79265C44.1693 9.94171 44.1813 10.0923 44.1813 10.2428V30.3852C44.2685 31.6078 44.0505 32.737 43.1289 33.6208Z" fill="#3060FF"/>
<path d="M50.213 15.0398V25.5898C50.2055 26.0626 50.2025 26.5353 50.1875 27.0066C50.1319 28.8766 48.663 30.3491 46.7927 30.3913C45.9222 30.4108 45.0518 30.3882 44.1813 30.3852V10.2429C45.0262 10.2399 45.8726 10.2233 46.7176 10.2354C48.6705 10.2625 50.1484 11.741 50.189 13.6953C50.1995 14.144 50.2055 14.5912 50.213 15.0398Z" fill="#6E6F80"/>
</svg>
