<svg width="76" height="56" viewBox="0 0 76 56" fill="none" xmlns="http://www.w3.org/2000/svg">
<path d="M0.922142 23.0618C0.809247 20.6459 1.11568 18.2957 2.11076 16.0722C3.32034 13.3709 5.24439 11.2019 7.49744 9.33108C12.6906 5.0235 18.8256 2.74707 25.3396 1.32992C28.0442 0.741574 30.7827 0.409728 33.5454 0.180483C36.3823 -0.0551757 39.2208 -0.031129 42.0448 0.0891049C45.1461 0.22056 48.233 0.650196 51.2828 1.31228C55.6389 2.25812 59.8144 3.67849 63.7512 5.76735C66.1881 7.06106 68.4637 8.60326 70.4152 10.5398C72.9101 13.0166 74.7809 15.8782 75.3615 19.4355C75.4373 19.8956 75.2164 20.4006 75.5664 20.8174V23.0538C75.1341 23.1067 75.2745 23.4433 75.2454 23.695C74.6148 26.8756 73.0182 29.5111 70.649 31.8693C70.6055 31.531 70.5813 31.3515 70.5587 31.1719C70.4281 30.8513 70.2281 30.6173 69.9023 30.4473C69.3427 30.1556 68.8121 29.8061 68.2702 29.4807C68.4137 29.2594 68.5556 29.0366 68.6992 28.817C69.4507 27.6659 70.299 26.563 70.5506 25.1619C71.5006 22.9431 71.4844 20.6475 70.8909 18.3823C69.8942 14.5733 67.3573 11.8464 64.2366 9.60842C60.953 7.25504 57.2936 5.66795 53.4278 4.5105C49.22 3.25206 44.9171 2.56913 40.5352 2.46492C38.3483 2.41202 36.1565 2.37194 33.9615 2.57233C32.2907 2.72463 30.6198 2.88013 28.9716 3.15907C25.1767 3.80353 21.4899 4.83433 17.9644 6.4118C14.0437 8.16721 10.494 10.4212 7.85709 13.8663C5.62984 16.7776 4.57025 20.0143 5.41212 23.6998C5.52824 24.2096 5.57339 24.7418 5.96369 25.1458C5.86853 25.6027 6.11529 25.9746 6.29592 26.3514C8.24577 30.4265 11.5568 33.1534 15.4307 35.2583C21.835 38.7403 28.8087 40.1206 36.0227 40.4316C40.9916 40.6464 45.9106 40.1574 50.7618 39.032C53.6116 38.3716 56.3453 37.3744 59.0386 36.2554C59.9498 36.7797 60.8611 37.3039 61.7723 37.8265C61.6336 38.1247 61.3271 38.2 61.0675 38.3203C58.1 39.6829 55.0051 40.672 51.8214 41.3838C47.8105 42.28 43.7446 42.7833 39.6353 42.8507C37.8757 42.8795 36.113 42.8603 34.347 42.7481C32.1101 42.6054 29.878 42.413 27.6846 42.0218C22.8946 41.169 18.245 39.8528 13.8631 37.655C10.5327 35.9845 7.52647 33.9245 5.0186 31.1848C3.82998 29.8879 2.89618 28.4194 2.13495 26.8195C1.55758 25.6075 1.39307 24.2914 0.925367 23.0602L0.922142 23.0618Z" fill="#DBD9EA"/>
<path d="M70.5573 31.1708C70.5815 31.3503 70.6041 31.5315 70.6476 31.8681C73.0184 29.51 74.6134 26.8744 75.244 23.6938C75.4892 23.9006 75.3989 24.1828 75.4005 24.4345C75.4085 25.8308 75.3989 27.2287 75.4101 28.625C75.4118 28.9024 75.3037 29.2118 75.5666 29.4442V34.7169C75.2585 35.0551 75.4634 35.4655 75.4101 35.8391C75.2602 38.4746 74.0957 40.7093 72.6265 42.8287C72.004 43.7264 71.2282 44.4943 70.5299 45.3279C70.5089 45.0378 70.4702 44.7492 70.4702 44.459C70.4702 40.5266 70.4686 36.5941 70.4831 32.6633C70.4847 32.1663 70.3509 31.6581 70.5589 31.1708H70.5573Z" fill="#D1CDE5"/>
<path d="M75.5663 29.4456C75.3034 29.2132 75.4131 28.9038 75.4099 28.6264C75.3986 27.2301 75.4099 25.8338 75.4002 24.4359C75.4002 24.1842 75.4905 23.902 75.2438 23.6952C75.2728 23.4435 75.1325 23.1069 75.5647 23.054V29.4456H75.5663Z" fill="#D1CDE5"/>
<path d="M75.4084 35.8399C75.4617 35.4664 75.2568 35.056 75.5649 34.7177V35.8367C75.5133 35.8367 75.4601 35.8383 75.4084 35.8415V35.8399Z" fill="#D1CDE5"/>
<path d="M0.922396 23.0616C1.3901 24.2928 1.55461 25.6074 2.13198 26.821C2.89482 28.4193 3.82862 29.8877 5.01563 31.1862C7.52511 33.9276 10.5297 35.9876 13.8601 37.6564C18.242 39.8543 22.8917 41.1689 27.6816 42.0233C29.875 42.4145 32.1071 42.6053 34.344 42.7495C36.1116 42.8634 37.8728 42.8826 39.6323 42.8521C43.7417 42.7832 47.8075 42.2814 51.8185 41.3853C55.0037 40.6735 58.0986 39.6828 61.0645 38.3217C61.3242 38.2031 61.6306 38.1277 61.7693 37.828C63.0418 38.5558 64.311 39.2868 65.5867 40.0066C65.8851 40.1749 66.0706 40.3577 66.0657 40.744C66.0351 43.4773 66.027 46.2107 66.0109 48.9456C64.5675 49.6974 63.1434 50.4878 61.679 51.1931C57.7599 53.0816 53.6103 54.2262 49.3396 55.0406C44.5013 55.9624 39.6242 56.1131 34.7359 55.9416C31.5168 55.8278 28.3187 55.3773 25.1641 54.6879C20.9434 53.7646 16.8647 52.4292 13.0489 50.3948C9.11531 48.2979 5.60268 45.6832 3.19158 41.8502C1.97393 39.9136 1.21108 37.828 1.05626 35.5099C0.778859 31.3626 1.00626 27.2137 0.920784 23.0665L0.922396 23.0616Z" fill="#D1CDE5"/>
<path d="M66.0122 48.9426C66.0267 46.2092 66.0347 43.4743 66.067 40.741C66.0718 40.3547 65.8864 40.1719 65.588 40.0036C64.3123 39.2838 63.043 38.5512 61.7706 37.8249C60.8593 37.3007 59.9481 36.7765 59.0369 36.2539C54.4163 33.5815 49.7941 30.9091 45.1735 28.2367C44.4735 27.8375 43.772 27.4383 43.072 27.0392C42.4317 26.6175 41.7882 26.2023 41.0818 25.8961C40.3867 25.4152 39.6561 24.9968 38.8869 24.6441C38.5546 24.4309 38.2288 24.2065 37.8885 24.0061C37.1322 23.5604 36.1677 23.2863 35.6645 22.6482C35.1259 21.9653 35.5549 20.9169 35.4678 20.0335C35.4629 19.9806 35.4516 19.9293 35.4436 19.8764C35.4597 18.5571 35.5049 17.2377 35.4758 15.9199C35.4662 15.4406 35.5807 15.1168 36.0032 14.9036C36.7983 14.4226 37.5918 13.9417 38.3869 13.4608C39.0836 12.8227 39.7674 13.0504 40.4464 13.4928C41.3189 14.0908 42.2463 14.5958 43.1897 15.0751C43.3413 15.1777 43.4881 15.2915 43.6478 15.3829C48.7054 18.291 53.7631 21.2006 58.8256 24.1023C61.9689 25.9026 65.1203 27.6868 68.2684 29.4791C68.8103 29.8045 69.3409 30.154 69.9006 30.4458C70.2264 30.6157 70.4263 30.8498 70.557 31.1704C70.3489 31.6577 70.4828 32.1659 70.4812 32.6629C70.4667 36.5954 70.4683 40.5278 70.4683 44.4586C70.4683 44.7488 70.507 45.0374 70.528 45.3275C70.515 47.0252 70.4892 48.7229 70.4957 50.4222C70.4973 50.8503 70.3393 51.11 69.9748 51.3152C68.9539 51.8907 67.9507 52.4967 66.9298 53.0722C66.2493 53.4569 66.0396 53.3255 66.0299 52.5255C66.0154 51.3312 66.0154 50.1353 66.0089 48.941L66.0122 48.9426ZM42.0689 23.1949L42.085 23.1692C41.9447 23.1789 41.8205 23.2157 41.7576 23.3552L41.7641 23.3424C41.2883 23.5412 40.8432 23.7913 40.4625 24.1423L40.469 24.1279C40.2932 24.1728 40.069 24.1968 40.3335 24.4325C40.8657 24.7403 41.3996 25.0481 41.9318 25.3559C42.3398 25.7743 42.7478 25.848 43.2446 25.4569C43.6171 25.1651 44.0639 24.9679 44.4655 24.7098C45.0412 24.3395 45.0461 24.0045 44.4687 23.6582C43.9478 23.344 43.4059 23.0634 42.8736 22.7685C42.6059 22.7075 42.4301 22.8614 42.2592 23.0282C42.1963 23.0827 42.1318 23.1372 42.0689 23.1933V23.1949ZM44.8445 22.2843C44.9138 21.0467 44.5864 20.6716 42.943 20.1442C42.9527 20.6972 42.8204 21.2343 42.993 21.7729C43.3397 22.2266 43.8994 22.3661 44.3445 22.6755C44.9219 23.0763 44.9074 22.7059 44.8445 22.2859V22.2843ZM42.1221 20.5209C42.1366 20.1602 42.3188 19.7241 41.9576 19.4821C41.2689 19.0204 40.5303 18.6324 39.6739 18.1338C39.7174 18.7318 39.7449 19.1246 39.7739 19.5173C39.7094 19.7626 39.7142 20.0063 39.961 20.1393C40.6593 20.5129 41.3012 20.9986 42.1237 21.2952V20.5209H42.1221ZM37.7192 14.8795C37.3321 14.9885 37.008 15.2034 36.6693 15.5095C37.4305 15.9424 38.1579 16.3544 38.9998 16.8321C38.9998 15.944 39.003 15.205 38.9981 14.4643C38.9981 14.2864 39.0175 14.0395 38.7111 14.2559C38.3804 14.4627 38.0514 14.6711 37.7208 14.8779L37.7192 14.8795ZM66.8895 35.0323C66.8589 35.2904 66.7782 35.5485 67.0927 35.7233C67.9201 36.1833 68.7378 36.6595 69.6248 37.1661V33.1166C69.707 32.7046 69.7183 32.2926 69.6119 31.7908C69.1055 32.0826 68.6797 32.4176 68.1959 32.5924C66.9879 33.0252 66.6089 33.8412 66.8911 35.0323H66.8895ZM38.8933 19.3731C38.9643 18.7591 39.2755 18.0409 38.6933 17.5936C37.9885 17.0517 37.1531 16.675 36.3145 16.1925V19.5494C36.3048 20.0496 36.3048 20.5497 36.2838 21.0499C36.2629 21.5276 36.4564 21.5196 36.7919 21.308C37.3741 20.9425 37.9547 20.5738 38.5546 20.2436C38.9385 20.0319 38.9594 19.7306 38.8917 19.3715L38.8933 19.3731ZM40.9609 14.7705C40.6512 14.599 40.34 14.4258 40.0303 14.2543C39.8932 14.1036 39.7223 14.0683 39.7158 14.3104C39.6932 15.2098 39.7094 16.1091 39.711 17.0085C39.711 17.1527 39.7658 17.2682 39.89 17.3387C40.6077 17.7555 41.3286 18.1707 42.1543 18.6468C42.1543 17.8709 42.0834 17.2553 42.1705 16.6606C42.3188 15.6474 41.8931 15.0671 40.9625 14.7705H40.9609ZM63.5349 33.6216C64.2994 34.1827 65.1413 34.6075 65.9541 35.0532C66.3138 33.862 66.0041 33.0605 64.83 32.7046C63.3333 31.8293 61.8383 30.9524 60.34 30.0787C60.19 29.9905 60.0336 29.8126 59.8723 30.061C59.6594 30.3881 59.8981 31.6161 60.2417 31.81C61.3319 32.4256 62.435 33.0204 63.5349 33.6232V33.6216ZM67.5798 30.0979C67.4766 30.0162 67.3814 29.9216 67.2685 29.8574C64.0091 27.977 60.7481 26.0997 57.4822 24.2289C57.3354 24.1439 57.1822 23.982 56.9306 24.1247C56.9306 25.0048 56.9403 25.9058 56.9258 26.8083C56.9209 27.1225 57.0725 27.2828 57.3274 27.4271C60.0868 28.9982 62.8398 30.5772 65.5961 32.1547C65.9331 32.3262 66.2089 32.7944 66.6315 32.5763C67.5104 32.1227 68.3475 31.5888 69.32 31.0197C68.6442 30.6622 68.112 30.3817 67.5798 30.0995V30.0979ZM56.2226 26.7811C56.2226 25.8112 56.1952 24.9952 56.2323 24.1808C56.2549 23.6935 56.0936 23.4017 55.6581 23.1676C54.6743 22.6402 53.7164 22.0647 52.7471 21.51C51.7665 20.9489 50.7859 20.3894 49.6828 19.7594C49.6828 20.8431 49.6892 21.7633 49.6796 22.6835C49.6763 22.9705 49.8392 23.1051 50.0586 23.2302C52.0649 24.3812 54.0679 25.537 56.2242 26.7795L56.2226 26.7811ZM42.922 15.8719C42.922 16.9091 42.9317 17.7844 42.9172 18.6581C42.9123 18.9579 43.014 19.1679 43.2704 19.3137C45.0009 20.3061 46.7346 21.2952 48.4603 22.2955C48.778 22.4799 48.957 22.4815 48.9587 22.0599C48.9587 21.2631 48.9587 20.468 48.9587 19.6712C48.9587 19.4372 48.8571 19.2673 48.6538 19.1502C46.7895 18.0825 44.9251 17.0165 42.922 15.8702V15.8719ZM69.6409 46.5331C68.72 47.0781 67.9491 47.5398 67.1734 47.9935C66.975 48.1089 66.8589 48.2468 66.8605 48.4953C66.8702 49.6784 66.8653 50.8615 66.8653 52.1552C67.762 51.6342 68.5571 51.1645 69.3603 50.7108C69.5796 50.5874 69.6441 50.4254 69.6425 50.193C69.6377 49.0291 69.6393 47.8669 69.6393 46.5347L69.6409 46.5331ZM65.7186 35.8611C64.8848 35.3818 64.1526 34.9618 63.4204 34.5402C63.2833 34.4616 63.1624 34.367 62.985 34.476C62.1399 34.9954 61.2883 35.5068 60.4013 36.0439C62.0593 37.0859 63.6796 37.1222 65.2622 36.1529C65.3751 36.084 65.4848 36.0102 65.7186 35.8611ZM58.9482 31.9623C58.1112 31.483 57.3774 31.063 56.6435 30.6398C56.4387 30.5211 56.2452 30.5276 56.0404 30.6542C55.2582 31.1367 54.4711 31.6113 53.6551 32.1082C55.2205 33.2571 56.7645 33.3581 58.287 32.4112C58.466 32.299 58.6369 32.174 58.9482 31.9623ZM46.8878 28.2078C49.1812 29.8927 49.336 29.9055 51.2811 28.6455C51.3262 28.6166 51.373 28.5926 51.4165 28.5637C51.9197 28.2175 51.8681 27.892 51.3698 27.5987C50.8892 27.3149 50.4005 27.0456 49.9199 26.765C49.7021 26.6384 49.507 26.5855 49.2635 26.741C48.5039 27.2267 47.7313 27.69 46.8895 28.2078H46.8878ZM69.6651 42.4804C68.7474 43.0303 67.9765 43.4952 67.2024 43.9537C67.0089 44.0675 66.8589 44.1829 66.8621 44.4394C66.8718 45.3307 66.8653 46.2205 66.8653 47.2352C67.7636 46.6982 68.5523 46.2189 69.3506 45.754C69.5893 45.6145 69.6716 45.4285 69.67 45.1656C69.6635 44.3192 69.6667 43.4711 69.6667 42.482L69.6651 42.4804ZM41.9479 22.2234C41.1125 21.7393 40.3996 21.3369 39.6981 20.9169C39.4529 20.7694 39.2513 20.8143 39.0304 20.9505C38.2885 21.409 37.5434 21.8627 36.6999 22.3773C37.5321 22.8582 38.2869 23.2895 39.0385 23.7303C39.1949 23.8217 39.3191 23.8217 39.4771 23.7239C40.2609 23.2382 41.0528 22.7653 41.9479 22.2234ZM69.6716 38.6666C68.7555 39.1956 67.983 39.6509 67.2024 40.0901C66.9702 40.2216 66.8557 40.3787 66.8605 40.656C66.8734 41.4672 66.8653 42.28 66.8653 43.213C67.7749 42.6728 68.5878 42.1902 69.399 41.7045C69.6006 41.5843 69.6748 41.4047 69.6732 41.1723C69.6667 40.3803 69.67 39.5884 69.67 38.6666H69.6716ZM56.2162 29.4967C56.1774 28.7753 56.5065 28.0091 56.0662 27.682C55.005 26.8917 53.797 26.2985 52.5503 25.5691C52.5503 26.0677 52.5455 26.3851 52.5503 26.7025C52.5568 27.036 52.481 27.3694 52.8906 27.5922C53.9647 28.1758 55.013 28.8042 56.2145 29.4967H56.2162ZM48.9458 25.3174C48.9135 24.5912 49.2506 23.8201 48.7748 23.4498C47.8523 22.7332 46.7637 22.2282 45.6525 21.5806C45.6525 22.0984 45.6621 22.443 45.6492 22.7877C45.6363 23.1436 45.6476 23.4562 46.0315 23.663C46.9669 24.1712 47.8845 24.7114 48.9458 25.3158V25.3174ZM48.7796 26.1286C47.9394 25.6412 47.1959 25.1924 46.4347 24.7724C45.9637 24.5127 45.7025 24.7852 45.6702 25.2148C45.6202 25.8721 45.646 26.5358 45.6589 27.1979C45.6702 27.7445 45.9766 27.8391 46.4008 27.589C47.1701 27.137 47.9233 26.656 48.7796 26.1286ZM55.5614 30.0258C54.7372 29.5432 54.0292 29.12 53.3132 28.7128C52.9487 28.506 52.5922 28.5028 52.5648 29.0174C52.5229 29.7869 52.5406 30.5596 52.5616 31.3307C52.5697 31.6593 52.7664 31.7395 53.0535 31.5648C53.8631 31.0678 54.6727 30.5724 55.563 30.0258H55.5614ZM56.9903 28.1421C56.8193 29.2306 56.7855 30.1444 57.9902 30.5324C58.3579 30.651 58.7708 31.1752 59.0175 30.9492C59.3385 30.6558 59.1208 30.0594 59.1208 29.5945C59.1208 29.3493 58.9014 29.2435 58.7224 29.1376C58.1773 28.817 57.6257 28.5076 56.9887 28.1437L56.9903 28.1421ZM59.8385 32.4769C59.8385 33.3923 59.8497 34.1346 59.8336 34.8752C59.8239 35.284 59.9239 35.4363 60.3239 35.1878C60.8674 34.8512 61.4174 34.5257 61.9641 34.1939C62.2205 34.0384 62.3318 33.8813 61.9851 33.6889C61.3158 33.3186 60.6513 32.937 59.8385 32.4769ZM49.7425 24.0253C49.5522 25.7471 50.057 26.4236 51.7278 26.7474C51.81 24.9086 51.8036 24.9006 49.7425 24.0253ZM66.0251 39.3126V36.629C65.2364 37.1035 64.5268 37.5316 63.7446 38.0029C64.5252 38.4518 65.2284 38.8557 66.0251 39.3142V39.3126ZM66.8944 39.2116C67.704 38.7211 68.4055 38.2979 69.1619 37.8394C68.3862 37.3985 67.6798 36.9961 66.8944 36.5489V39.21V39.2116ZM59.1095 32.804C58.366 33.2577 57.7112 33.6568 56.9564 34.1169C57.7693 34.5113 58.3466 35.0147 59.1095 35.2487V32.8056V32.804ZM51.702 31.055V29.2948C51.1875 29.609 50.7537 29.8735 50.2231 30.1973C50.765 30.5115 51.194 30.76 51.702 31.055ZM44.8299 27.0488V25.404C44.3655 25.7438 43.8591 25.8753 43.4994 26.3242C43.951 26.5695 44.359 26.7923 44.8299 27.0472V27.0488Z" fill="#232E49"/>
<path d="M36.003 14.9036C35.5804 15.1168 35.4643 15.4422 35.4756 15.92C35.5046 17.2377 35.4595 18.5571 35.4434 19.8765C35.0692 20.0913 34.695 20.3061 34.3192 20.5209C32.1823 21.3337 30.6195 22.5793 31.0179 24.9696C31.0098 25.3142 30.9937 25.6605 30.9937 26.0052C30.9985 28.3297 31.792 29.4711 33.9919 30.3544C35.9756 31.1512 38.048 31.3163 40.1236 30.9861C42.0993 30.6703 43.9798 30.0386 45.1716 28.2367C49.7922 30.9091 54.4145 33.5815 59.0351 36.2539C56.3417 37.3729 53.6081 38.37 50.7583 39.0305C45.9087 40.1559 40.9881 40.6449 36.0191 40.43C28.8052 40.1174 21.8331 38.7387 15.4272 35.2568C11.5549 33.1503 8.24223 30.4234 6.29238 26.3499C6.11175 25.9731 5.865 25.6012 5.96015 25.1443C6.83912 23.3729 7.86323 21.7008 9.26312 20.274C12.4967 16.978 16.4577 14.8459 20.7622 13.3341C28.2407 10.7082 35.9465 9.94035 43.833 10.7195C48.1924 11.1491 52.434 12.0292 56.5304 13.589C60.0592 14.9325 63.3251 16.7135 66.1587 19.2256C68.0441 20.8961 69.473 22.9 70.5487 25.1603C70.2971 26.5615 69.4488 27.6644 68.6972 28.8155C68.5537 29.0367 68.4118 29.2579 68.2682 29.4791C65.1201 27.6869 61.9671 25.9026 58.8254 24.1023C53.7629 21.2022 48.7052 18.291 43.6476 15.3829C43.4879 15.2916 43.3427 15.1777 43.1895 15.0751C49.16 15.5577 54.9596 16.7809 60.5172 19.0845C59.9995 18.6789 59.4544 18.3583 58.8996 18.0553C55.6869 16.3079 52.234 15.2082 48.6762 14.4339C45.97 13.8439 43.2363 13.4063 40.4462 13.4929C39.7672 13.0504 39.0834 12.8228 38.3867 13.4608C38.1754 13.2139 37.8835 13.2973 37.6335 13.3181C35.7482 13.4736 33.8596 13.5249 31.9759 13.759C27.4117 14.3265 23.0346 15.5176 18.8608 17.4317C17.8721 17.8854 16.8754 18.3391 16.0352 19.0557C16.0126 19.0797 15.9916 19.1038 15.9691 19.1262C15.9932 19.1038 16.0174 19.0829 16.0416 19.0605C16.6513 19.0412 17.1448 18.695 17.6899 18.4898C23.591 16.2695 29.7228 15.2114 36.003 14.902V14.9036ZM20.6509 28.809C21.0558 27.1867 21.9992 26.1334 23.8152 25.7086C21.9363 25.3094 21.0606 24.1568 20.6316 22.4607C20.2655 24.2466 19.3043 25.2902 17.5334 25.7086C19.2914 26.1302 20.2816 27.1626 20.6509 28.809Z" fill="#3060FF"/>
<path d="M70.5489 25.1603C69.4731 22.8999 68.0442 20.896 66.1589 19.2256C63.3252 16.7135 60.0594 14.9324 56.5306 13.589C52.4358 12.0292 48.1925 11.1507 43.8332 10.7194C35.9467 9.94033 28.2408 10.7066 20.7624 13.3341C16.4579 14.8459 12.4969 16.978 9.26329 20.274C7.86339 21.7008 6.83928 23.3729 5.96032 25.1443C5.57002 24.7403 5.52648 24.2081 5.40875 23.6983C4.56526 20.0127 5.62486 16.776 7.85372 13.8648C10.4906 10.4197 14.0403 8.16568 17.961 6.41027C21.4849 4.8328 25.1733 3.802 28.9682 3.15754C30.6165 2.8786 32.2873 2.7215 33.9581 2.5708C36.1531 2.37202 38.3449 2.41209 40.5318 2.46339C44.9137 2.5676 49.2166 3.25052 53.4244 4.50897C57.2902 5.66642 60.9496 7.25191 64.2332 9.60688C67.354 11.8448 69.8908 14.5717 70.8875 18.3807C71.481 20.6476 71.4972 22.9432 70.5472 25.1603H70.5489Z" fill="#D1CDE5"/>
<path d="M45.1736 28.2369C43.9818 30.0388 42.1013 30.6704 40.1256 30.9862C38.05 31.318 35.9775 31.1513 33.9938 30.3546C31.794 29.4712 31.0005 28.3298 30.9957 26.0053C30.9957 25.6606 31.0118 25.3144 31.0199 24.9697C31.5311 25.643 32.0037 26.3339 32.752 26.8117C34.8986 28.1775 37.2855 28.3106 39.6998 28.1326C40.8772 28.0461 42.0738 27.7848 43.0721 27.0409C43.7721 27.4401 44.4737 27.8393 45.1736 28.2385V28.2369Z" fill="#D1CDE5"/>
<path d="M65.5961 32.1529C62.8414 30.5754 60.0868 28.9963 57.3274 27.4253C57.0725 27.2794 56.9209 27.1191 56.9258 26.8065C56.9403 25.9039 56.9306 25.003 56.9306 24.1229C57.1838 23.9802 57.3354 24.1421 57.4822 24.2271C60.7464 26.0979 64.0075 27.9767 67.2685 29.8556C67.3814 29.9213 67.4766 30.0159 67.5798 30.0961C67.0701 30.9249 66.1976 31.409 65.5977 32.1513L65.5961 32.1529Z" fill="#3060FF"/>
<path d="M43.0703 27.0391C42.072 27.783 40.8769 28.0443 39.6979 28.1308C37.2836 28.3088 34.8951 28.1757 32.7501 26.8099C32.0018 26.3337 31.5292 25.6428 31.018 24.9679C30.6196 22.5776 32.1824 21.332 34.3193 20.5192C33.2984 21.6093 33.5275 22.8999 33.7258 24.1856C33.8629 24.9807 34.4484 25.42 35.0983 25.739C37.0578 26.6992 39.0625 26.6752 41.0785 25.8961C41.7865 26.2007 42.43 26.6159 43.0687 27.0391H43.0703Z" fill="#E2E4ED"/>
<path d="M36.0032 14.9038C29.7231 15.2132 23.5897 16.2712 17.6901 18.4916C17.145 18.6968 16.6531 19.0446 16.0419 19.0623L16.0354 19.0559C16.874 18.3393 17.8707 17.8856 18.861 17.4319C23.0349 15.5178 27.4119 14.3267 31.9761 13.7592C33.8582 13.5251 35.7484 13.4738 37.6337 13.3183C37.8837 13.2975 38.1756 13.2141 38.3869 13.461C37.5918 13.9419 36.7983 14.4228 36.0032 14.9038Z" fill="#3060FF"/>
<path d="M56.2227 26.7808C54.0664 25.5383 52.0633 24.3825 50.057 23.2315C49.8361 23.1048 49.6748 22.9718 49.678 22.6848C49.6893 21.7646 49.6812 20.8444 49.6812 19.7607C50.7844 20.3907 51.7666 20.9502 52.7455 21.5113C53.7148 22.066 54.6728 22.6415 55.6566 23.1689C56.092 23.403 56.2533 23.6948 56.2307 24.1821C56.1936 24.9949 56.2211 25.8125 56.2211 26.7824L56.2227 26.7808Z" fill="#3060FF"/>
<path d="M40.4462 13.493C43.2363 13.4064 45.9699 13.8441 48.6762 14.434C52.234 15.2099 55.6869 16.3097 58.8996 18.0555C59.4544 18.3569 59.9995 18.6775 60.5172 19.0847C54.9596 16.781 49.16 15.5578 43.1895 15.0753C42.2476 14.5959 41.3203 14.091 40.4462 13.493Z" fill="#3060FF"/>
<path d="M42.922 15.8719C44.9235 17.0181 46.7878 18.0858 48.6538 19.1519C48.857 19.2673 48.9586 19.4373 48.9586 19.6729C48.9586 20.4697 48.9586 21.2648 48.9586 22.0616C48.9586 22.4832 48.778 22.4816 48.4603 22.2972C46.7346 21.2969 45.0009 20.3077 43.2704 19.3154C43.0139 19.1679 42.9123 18.9595 42.9172 18.6597C42.9317 17.786 42.922 16.9107 42.922 15.8735V15.8719Z" fill="#3060FF"/>
<path d="M41.0805 25.8962C39.0645 26.6769 37.0598 26.701 35.1003 25.7391C34.4504 25.4201 33.8649 24.9808 33.7278 24.1857C33.7278 23.7544 33.7278 23.3248 33.7278 22.791C35.1939 24.3893 36.976 24.6971 38.8855 24.6442C39.6548 24.9952 40.3854 25.4153 41.0805 25.8962Z" fill="#E76419"/>
<path d="M38.8857 24.646C36.9761 24.7005 35.194 24.3927 33.728 22.7928C33.728 23.325 33.728 23.7562 33.728 24.1875C33.5296 22.9018 33.3006 21.6113 34.3215 20.5211C34.6957 20.3063 35.0698 20.0915 35.4456 19.8783C35.4537 19.9312 35.4633 19.9825 35.4682 20.0354C35.5553 20.9187 35.1263 21.9672 35.6649 22.6501C36.1681 23.2881 37.1326 23.5639 37.889 24.0079C38.2293 24.2083 38.555 24.4328 38.8873 24.646H38.8857Z" fill="#F87931"/>
<path d="M65.7184 35.8612C65.4845 36.0103 65.3749 36.084 65.262 36.153C63.6793 37.1234 62.059 37.087 60.4011 36.0439C61.2881 35.5069 62.1396 34.9955 62.9847 34.4761C63.1621 34.3671 63.2831 34.4617 63.4202 34.5402C64.1524 34.9618 64.8846 35.3819 65.7184 35.8612Z" fill="#D1CDE5"/>
<path d="M58.948 31.9624C58.6367 32.174 58.4658 32.2991 58.2867 32.4113C56.7654 33.3582 55.2214 33.2572 53.6548 32.1083C54.4709 31.6113 55.2579 31.1368 56.0401 30.6543C56.245 30.5276 56.4369 30.5212 56.6433 30.6398C57.3771 31.0615 58.1126 31.4831 58.948 31.9624Z" fill="#3060FF"/>
<path d="M46.8878 28.2079C47.7296 27.6901 48.5022 27.2268 49.2618 26.741C49.5053 26.5855 49.7005 26.6384 49.9182 26.7651C50.4004 27.0456 50.8891 27.3166 51.3681 27.5987C51.8664 27.8921 51.918 28.2175 51.4148 28.5638C51.3713 28.5942 51.3229 28.6183 51.2794 28.6455C49.3344 29.9056 49.1795 29.8912 46.8862 28.2079H46.8878Z" fill="#3060FF"/>
<path d="M69.6648 42.4805C69.6648 43.4713 69.66 44.3177 69.6681 45.1642C69.6697 45.4271 69.5874 45.613 69.3487 45.7525C68.5504 46.2174 67.7618 46.6967 66.8634 47.2338C66.8634 46.2206 66.8683 45.3293 66.8602 44.438C66.857 44.1815 67.0086 44.066 67.2005 43.9522C67.9763 43.4953 68.7472 43.0288 69.6632 42.4789L69.6648 42.4805Z" fill="#D1CDE5"/>
<path d="M41.9476 22.2236C41.0525 22.7655 40.2622 23.24 39.4768 23.7241C39.3187 23.8219 39.1946 23.8219 39.0381 23.7306C38.2866 23.2897 37.5318 22.8569 36.6996 22.3775C37.5415 21.8629 38.2882 21.4092 39.03 20.9507C39.251 20.8145 39.4526 20.7696 39.6977 20.9171C40.3993 21.3387 41.1121 21.7411 41.9476 22.2236Z" fill="#F87931"/>
<path d="M69.6714 38.6667C69.6714 39.5885 69.6682 40.3804 69.6746 41.1724C69.6763 41.4048 69.6021 41.5844 69.4005 41.7046C68.5892 42.1887 67.7764 42.6713 66.8668 43.2131C66.8668 42.2785 66.8749 41.4673 66.862 40.6562C66.8571 40.3804 66.9716 40.2217 67.2039 40.0903C67.9845 39.651 68.757 39.1973 69.673 38.6667H69.6714Z" fill="#D1CDE5"/>
<path d="M63.5351 33.6215C62.4368 33.0188 61.3336 32.424 60.2418 31.8084C59.8982 31.6144 59.6596 30.3864 59.8724 30.0594C60.0337 29.8125 60.1902 29.9905 60.3401 30.077C61.8368 30.9507 63.3335 31.8276 64.8285 32.7029C64.3963 33.0091 63.9657 33.3137 63.5334 33.6199L63.5351 33.6215Z" fill="#3060FF"/>
<path d="M40.9611 14.7706C41.8917 15.0672 42.3175 15.6475 42.1691 16.6607C42.082 17.2538 42.153 17.871 42.153 18.6469C41.3272 18.1708 40.6063 17.7556 39.8886 17.3388C39.7661 17.2666 39.7096 17.1512 39.7096 17.0085C39.7096 16.1092 39.6919 15.2098 39.7145 14.3105C39.7209 14.0684 39.8903 14.1037 40.029 14.2544C39.8177 14.4051 39.7741 14.6792 39.9386 14.7882C40.2467 14.9934 40.6225 15.003 40.9595 14.7706H40.9611Z" fill="#3060FF"/>
<path d="M56.2162 29.4967C55.0147 28.8042 53.9663 28.1757 52.8922 27.5922C52.481 27.3694 52.5584 27.0359 52.5519 26.7025C52.5455 26.385 52.5519 26.0676 52.5519 25.5691C53.7986 26.2985 55.0082 26.8916 56.0678 27.682C56.5081 28.009 56.1775 28.7753 56.2178 29.4967H56.2162Z" fill="#3060FF"/>
<path d="M36.3146 19.5509V16.194C37.1532 16.6765 37.987 17.0533 38.6934 17.5951C39.2756 18.0424 38.9644 18.7606 38.8934 19.3746C38.0257 19.3233 37.1629 19.3425 36.3146 19.5525V19.5509Z" fill="#3060FF"/>
<path d="M69.625 33.1165V37.1659C68.7379 36.6593 67.9203 36.1816 67.0929 35.7231C66.7784 35.5484 66.8591 35.2903 66.8897 35.0322C67.109 34.8927 67.3268 34.7484 67.5493 34.6138C68.2815 34.1697 68.8025 33.4387 69.625 33.1165Z" fill="#D1CDE5"/>
<path d="M48.9461 25.3176C47.8848 24.7133 46.9672 24.173 46.0318 23.6648C45.6479 23.4564 45.6382 23.1454 45.6495 22.7895C45.6624 22.4448 45.6528 22.1002 45.6528 21.5824C46.7656 22.23 47.8542 22.735 48.7751 23.4516C49.2509 23.8219 48.9138 24.5914 48.9461 25.3192V25.3176Z" fill="#3060FF"/>
<path d="M48.7799 26.1287C47.9235 26.6561 47.1703 27.1371 46.401 27.5891C45.9769 27.8392 45.6705 27.743 45.6592 27.198C45.6463 26.5375 45.6205 25.8722 45.6705 25.2149C45.7027 24.7853 45.9656 24.5128 46.4349 24.7725C47.1945 25.1925 47.9396 25.6397 48.7799 26.1287Z" fill="#3060FF"/>
<path d="M55.5613 30.0257C54.671 30.5708 53.8614 31.0677 53.0518 31.5647C52.7663 31.7394 52.5696 31.6593 52.5599 31.3306C52.5389 30.5595 52.5212 29.7868 52.5631 29.0173C52.5921 28.5027 52.9469 28.506 53.3114 28.7128C54.0291 29.1199 54.7355 29.5432 55.5596 30.0257H55.5613Z" fill="#3060FF"/>
<path d="M42.8739 22.7718C43.4061 23.0668 43.948 23.3473 44.469 23.6616C45.0463 24.0094 45.0415 24.3429 44.4657 24.7132C44.0642 24.9713 43.6174 25.1685 43.2449 25.4602C42.7465 25.8514 42.3385 25.7777 41.9321 25.3593C42.9094 24.7356 42.8949 23.7545 42.8739 22.7718Z" fill="#D1CDE5"/>
<path d="M65.5963 32.1529C66.1979 31.4107 67.0688 30.9265 67.5784 30.0977C68.1107 30.3783 68.6429 30.6604 69.3186 31.0179C68.3461 31.587 67.5091 32.1225 66.6301 32.5745C66.2076 32.7926 65.9318 32.3244 65.5947 32.1529H65.5963Z" fill="#D1CDE5"/>
<path d="M69.6246 33.1166C68.8037 33.4372 68.2811 34.1699 67.5489 34.6139C67.3264 34.7486 67.1086 34.8929 66.8893 35.0323C66.6087 33.8412 66.9861 33.0252 68.194 32.5924C68.6779 32.4193 69.1053 32.0842 69.6101 31.7908C69.7165 32.2942 69.7052 32.7046 69.623 33.1166H69.6246Z" fill="#E2E4ED"/>
<path d="M56.9904 28.1421C57.6259 28.506 58.179 28.8154 58.7242 29.136C58.9032 29.2418 59.1225 29.3476 59.1225 29.5929C59.1225 30.0578 59.3402 30.6542 59.0193 30.9475C58.7725 31.1736 58.3581 30.6494 57.992 30.5307C56.7872 30.1428 56.8227 29.2306 56.992 28.1405L56.9904 28.1421Z" fill="#3060FF"/>
<path d="M59.8384 32.4766C60.6512 32.9367 61.314 33.3183 61.985 33.6886C62.3317 33.881 62.222 34.0381 61.964 34.1936C61.4173 34.5254 60.8673 34.8508 60.3238 35.1875C59.9222 35.436 59.8238 35.2821 59.8335 34.8749C59.8496 34.1342 59.8384 33.392 59.8384 32.4766Z" fill="#3060FF"/>
<path d="M49.7427 24.0252C51.8038 24.9005 51.8103 24.9086 51.728 26.7473C50.0572 26.4235 49.5524 25.747 49.7427 24.0252Z" fill="#3060FF"/>
<path d="M36.3145 19.551C37.1644 19.3426 38.0257 19.3218 38.8933 19.3731C38.9611 19.7322 38.9385 20.0336 38.5563 20.2452C37.9547 20.577 37.3741 20.9442 36.7935 21.3097C36.458 21.5197 36.2645 21.5293 36.2855 21.0516C36.3064 20.5514 36.3064 20.0512 36.3161 19.551H36.3145Z" fill="#F87931"/>
<path d="M42.8737 22.7718C42.893 23.7545 42.9076 24.734 41.9318 25.3592C41.3996 25.0514 40.8658 24.7436 40.3336 24.4358C40.3787 24.3348 40.4239 24.2322 40.469 24.1296L40.4626 24.144C41.0335 24.0975 41.6109 24.0607 41.7641 23.3441L41.7576 23.3569C41.9109 23.3713 42.0447 23.3505 42.085 23.1709L42.0689 23.1966C42.1318 23.1421 42.1963 23.0876 42.2592 23.0331C42.4302 22.8663 42.606 22.7124 42.8737 22.7734V22.7718Z" fill="#E76419"/>
<path d="M63.5352 33.6217C63.9658 33.3155 64.3981 33.0109 64.8303 32.7047C66.0044 33.0606 66.314 33.8621 65.9544 35.0532C65.1415 34.6076 64.3013 34.1828 63.5352 33.6217Z" fill="#D1CDE5"/>
<path d="M66.0251 39.3126C65.2284 38.8541 64.5252 38.4502 63.7446 38.0013C64.5268 37.53 65.2364 37.1035 66.0251 36.6274V39.311V39.3126Z" fill="#D1CDE5"/>
<path d="M66.8947 39.2115V36.5503C67.6801 36.9976 68.3881 37.3983 69.1622 37.8408C68.4042 38.2993 67.7043 38.7225 66.8947 39.2131V39.2115Z" fill="#D1CDE5"/>
<path d="M38.7096 14.2573C39.0144 14.0409 38.9951 14.2877 38.9967 14.4657C39.0031 15.2047 38.9983 15.9438 38.9983 16.8335C38.1581 16.3558 37.4307 15.9438 36.6678 15.5109C37.0081 15.2047 37.3307 14.9899 37.7178 14.8809C37.9532 14.8905 38.1887 14.9146 38.4242 14.9081C38.9709 14.8937 38.979 14.6324 38.708 14.2589L38.7096 14.2573Z" fill="#3060FF"/>
<path d="M59.1094 32.8036V35.2468C58.3465 35.0127 57.7691 34.5093 56.9563 34.115C57.7095 33.6549 58.3643 33.2557 59.1094 32.802V32.8036Z" fill="#3060FF"/>
<path d="M39.7724 19.5173C39.7433 19.1245 39.7159 18.7318 39.6724 18.1338C40.5287 18.6324 41.2674 19.0203 41.9561 19.482C42.3173 19.7241 42.1351 20.1601 42.1206 20.5208C41.4109 20.0158 40.6642 19.599 39.7724 19.5173Z" fill="#3060FF"/>
<path d="M39.7724 19.5174C40.6643 19.5991 41.4126 20.0159 42.1206 20.5209C42.1206 20.7534 42.1206 20.9842 42.1206 21.2952C41.2981 20.9986 40.6562 20.5129 39.9579 20.1394C39.7111 20.0063 39.7063 19.7626 39.7708 19.5174H39.7724Z" fill="#F87931"/>
<path d="M42.9931 21.7712C42.8206 21.2342 42.9512 20.6955 42.9432 20.1425C44.5866 20.6715 44.914 21.045 44.8446 22.2826C44.514 21.978 44.2011 21.651 43.8463 21.3785C43.6479 21.2262 43.4221 20.9408 43.1657 21.053C42.8932 21.1717 43.1012 21.5372 42.9948 21.7712H42.9931Z" fill="#3060FF"/>
<path d="M42.9929 21.7715C43.0994 21.5375 42.8913 21.1736 43.1639 21.0533C43.4203 20.9411 43.6461 21.2265 43.8445 21.3788C44.1993 21.6513 44.5122 21.9783 44.8428 22.2829C44.9057 22.7046 44.9218 23.0749 44.3428 22.6725C43.8977 22.3631 43.3381 22.2252 42.9913 21.7699L42.9929 21.7715Z" fill="#D1CDE5"/>
<path d="M51.7021 31.0551C51.1941 30.7602 50.7651 30.5117 50.2232 30.1975C50.7538 29.8736 51.1876 29.6091 51.7021 29.2949V31.0551Z" fill="#3060FF"/>
<path d="M44.8299 27.0487C44.359 26.7922 43.951 26.571 43.4994 26.3257C43.859 25.8769 44.3655 25.7438 44.8299 25.4055V27.0503V27.0487Z" fill="#D1CDE5"/>
<path d="M40.9608 14.7704C40.6237 15.0029 40.248 14.9933 39.9399 14.7881C39.7754 14.6791 39.819 14.4049 40.0302 14.2542C40.3399 14.4258 40.6512 14.5989 40.9608 14.7704Z" fill="#3060FF"/>
<path d="M38.7097 14.2575C38.9807 14.6311 38.9742 14.8924 38.4259 14.9068C38.1904 14.9132 37.9549 14.8892 37.7195 14.8795C38.0501 14.6711 38.3791 14.4643 38.7097 14.2575Z" fill="#3060FF"/>
<path d="M41.7624 23.3438C41.6092 24.0604 41.0319 24.0973 40.4609 24.1438C40.8416 23.7927 41.2867 23.5426 41.7624 23.3438Z" fill="#F87931"/>
<path d="M40.4675 24.1297C40.4223 24.2323 40.3772 24.3333 40.332 24.4359C40.0675 24.1986 40.2917 24.1762 40.4675 24.1297Z" fill="#F87931"/>
<path d="M42.0834 23.1694C42.0431 23.3505 41.9092 23.3698 41.756 23.3553C41.8189 23.2143 41.9447 23.179 42.0834 23.1694Z" fill="#F87931"/>
<path d="M20.6513 28.809C20.2804 27.1626 19.2901 26.1286 17.5338 25.7085C19.3046 25.2885 20.2675 24.2465 20.632 22.4606C21.0626 24.1567 21.9367 25.3094 23.8156 25.7085C21.9996 26.1334 21.0545 27.1866 20.6513 28.809Z" fill="#F5F8FC"/>
<path d="M16.0418 19.0622C16.0176 19.0847 15.9934 19.1055 15.9692 19.128C15.9918 19.1039 16.0128 19.0799 16.0354 19.0574L16.0418 19.0638V19.0622Z" fill="#3060FF"/>
</svg>
