<svg width="82" height="82" viewBox="0 0 82 82" fill="none" xmlns="http://www.w3.org/2000/svg">
<g clip-path="url(#clip0_2070_1573)">
<path d="M29.513 81.9836H9.97681C11.8463 76.999 13.7202 72.0173 15.5837 67.0296C16.3193 65.0596 17.031 63.0807 17.7531 61.1062C18.1858 60.1943 18.5319 59.2511 18.8094 58.281C18.9974 57.8288 19.2033 57.3826 19.3704 56.9215C20.2686 54.444 21.2936 52.0129 22.0948 49.4997C22.5155 48.652 22.8274 47.764 23.1004 46.8596C23.5047 45.8373 23.9091 44.815 24.3134 43.7927C27.5898 43.8031 30.8662 43.815 34.1427 43.8255C34.1994 44.9657 33.9293 46.0761 33.8488 47.2013C33.7891 48.0222 34.2516 48.5341 34.9692 48.5684C35.7003 48.6027 36.1434 48.1416 36.23 47.3267C36.3568 46.1566 36.5194 44.9911 36.6656 43.8225C41.3416 43.8225 46.019 43.821 50.6949 43.8195C51.1843 45.8074 51.6721 47.7953 52.163 49.7817C52.3853 50.6831 52.9344 51.104 53.658 50.9369C54.3816 50.7697 54.6666 50.1324 54.4622 49.2265C54.0549 47.4237 53.5028 45.6537 53.2193 43.821C54.7054 43.8106 56.1929 43.8001 57.6789 43.7897C58.0832 44.809 58.4876 45.8283 58.8904 46.8476C59.2157 47.8983 59.5767 48.934 60.0572 49.9265C60.1541 50.5473 60.4466 51.1025 60.6644 51.6801C61.4939 53.8829 62.3429 56.0797 63.1844 58.2781C63.4634 59.2466 63.808 60.1913 64.2422 61.1032C64.2676 61.2241 64.275 61.351 64.3183 61.4644C66.883 68.3026 69.4493 75.1409 72.017 81.9792H42.189C42.189 80.4405 42.195 78.9018 42.1875 77.3631C42.183 76.5199 41.7563 76.0334 41.0342 76.014C40.2748 75.9931 39.8108 76.4915 39.8063 77.3631C39.7988 78.9018 39.8048 80.4405 39.8048 81.9792H31.9002C32.1613 79.6764 32.4209 77.3721 32.688 75.0693C32.7685 74.3768 32.3359 73.7067 31.7331 73.6291C31.0677 73.544 30.5246 73.9693 30.4037 74.7111C30.2575 75.611 30.1247 76.5139 30.0173 77.4183C29.8368 78.9361 29.6801 80.4584 29.5145 81.9777L29.513 81.9836ZM60.9807 75.9528C60.9777 75.9184 60.9837 75.8423 60.9658 75.7707C60.2735 72.947 59.5872 70.1204 58.88 67.2997C58.7367 66.7281 58.0251 66.3491 57.4685 66.4834C56.9255 66.6147 56.4391 67.3729 56.5719 67.9206C56.8389 69.022 57.1314 70.1189 57.3999 71.2203C57.8087 72.8963 58.1981 74.5768 58.6114 76.2513C58.7815 76.9378 59.344 77.3064 59.9945 77.2004C60.5838 77.1049 60.9897 76.6079 60.9807 75.9498V75.9528ZM21.3145 74.4499C21.2981 75.423 21.6591 75.9095 22.3007 76.011C22.8915 76.1035 23.5003 75.6453 23.6808 74.9215C24.2284 72.7202 24.7729 70.5159 25.2877 68.3071C25.3861 67.8862 25.4727 67.4102 25.1847 67.0147C24.9266 66.661 24.5641 66.4073 24.103 66.4864C23.5823 66.5759 23.2004 66.8729 23.0646 67.4191C22.6752 68.9742 22.2828 70.5293 21.8949 72.0844C21.68 72.9441 21.4726 73.8052 21.3145 74.4499ZM50.6919 67.2699C50.4517 65.4417 50.207 63.4105 49.9056 61.3868C49.8101 60.742 49.1014 60.3749 48.4673 60.5242C47.8437 60.6719 47.4841 61.2704 47.5766 61.9569C47.8273 63.812 48.0734 65.6685 48.3017 67.5266C48.3927 68.2743 48.9955 68.8996 49.643 68.8518C50.295 68.8041 50.6889 68.2862 50.6934 67.2684L50.6919 67.2699ZM27.3198 56.9215C27.736 56.9035 28.1434 56.6021 28.2896 56.0424C28.7073 54.447 29.1057 52.8457 29.4862 51.2398C29.6443 50.5697 29.2564 49.9578 28.6372 49.7922C27.9852 49.6191 27.3257 49.9892 27.1512 50.6802C26.7409 52.3024 26.3455 53.9292 25.9695 55.5589C25.8009 56.2902 26.3783 56.9304 27.3198 56.9185V56.9215ZM39.8048 59.2869C39.8048 60.0809 39.7899 60.8734 39.8093 61.6673C39.8272 62.4255 40.3076 62.8971 41.0103 62.8896C41.7131 62.8822 42.1786 62.4106 42.186 61.6405C42.1995 60.0779 42.2024 58.5169 42.186 56.9543C42.1786 56.1961 41.6892 55.7245 40.985 55.7305C40.2822 55.738 39.8242 56.2096 39.8078 56.9797C39.7914 57.7483 39.8048 58.5169 39.8048 59.2854V59.2869Z" fill="#3060FF"/>
<path d="M17.7534 61.1077C17.0312 63.0822 16.3196 65.0611 15.584 67.0311C13.7205 72.0173 11.8465 77.0005 9.97708 81.9851C8.16281 81.9851 6.34705 81.9672 4.53427 81.9986C4.08817 82.006 3.99865 81.9075 4.00014 81.4628C4.01655 70.8965 4.01208 60.3317 4.01208 49.7653C4.50742 49.7653 5.00425 49.7549 5.4996 49.7668C7.5869 49.822 9.43548 50.5399 10.9155 51.9965C13.1535 54.1993 14.0099 56.8857 13.3415 59.9869C13.2237 60.5331 13.2908 60.5794 13.8413 60.5316C15.1767 60.4182 16.512 60.4913 17.7519 61.1062L17.7534 61.1077Z" fill="#D1CDE5"/>
<path d="M72.0186 81.9836C69.4523 75.1454 66.8846 68.3071 64.3199 61.4688C64.2766 61.3554 64.2676 61.2286 64.2438 61.1077C65.509 60.4809 66.8667 60.4197 68.2274 60.5391C68.7287 60.5838 68.7765 60.5018 68.6735 60.0585C68.3975 58.8691 68.3139 57.6677 68.5959 56.4648C69.0987 54.3187 70.1595 52.5457 71.9992 51.2562C73.8134 49.9847 75.8351 49.637 77.9851 49.7653C77.9851 60.3063 77.9806 70.8472 78 81.3881C78 81.8986 77.9015 82.012 77.3883 82C75.5994 81.9597 73.809 81.9851 72.0201 81.9851L72.0186 81.9836Z" fill="#D1CDE5"/>
<path d="M22.0934 49.5011C21.2922 52.0144 20.2672 54.444 19.369 56.9229C19.2019 57.3841 18.996 57.8303 18.808 58.2825C17.9262 58.1392 17.0355 57.996 16.1508 58.1855C15.6032 58.3019 15.6077 58.0855 15.7091 57.6856C16.0045 56.5155 16.0075 55.3454 15.7986 54.1545C15.0303 49.7817 10.6856 46.7506 6.29015 47.5043C5.50088 47.6401 4.79069 47.9998 4.01038 48.1266V37.8349C5.92162 37.8349 7.83436 37.8349 9.74561 37.8349C10.041 37.8349 10.3305 37.8483 10.6274 37.9215C15.1511 39.0378 17.8457 43.2166 16.9684 47.7804C16.8057 48.6266 16.8177 48.5758 17.6383 48.4937C19.2213 48.337 20.7297 48.6236 22.0919 49.5026L22.0934 49.5011Z" fill="#D1CDE5"/>
<path d="M63.1859 58.2826C62.3444 56.0843 61.497 53.8874 60.6659 51.6846C60.4481 51.1056 60.1557 50.5519 60.0602 49.931C61.8327 48.8371 63.7394 48.2297 65.8387 48.455C66.331 48.5073 66.3937 48.4356 66.2908 47.9819C66.0237 46.8178 65.9715 45.6508 66.1953 44.4598C66.8667 40.8795 70.4579 37.5992 74.0432 37.8201C75.3517 37.9007 76.6706 37.8335 77.985 37.8335V48.1252C76.3767 47.6238 74.7936 47.2059 73.048 47.4954C69.8969 48.0163 67.1233 50.4713 66.3325 53.5681C65.9804 54.9456 65.9819 56.3007 66.2773 57.6752C66.3236 57.8871 66.5235 58.2453 66.064 58.1811C65.0927 58.0468 64.1408 58.1289 63.1859 58.2841V58.2826Z" fill="#D1CDE5"/>
<path d="M77.9851 37.832C76.6707 37.832 75.3533 37.8992 74.0433 37.8186C70.458 37.5977 66.8668 40.878 66.1954 44.4583C65.9716 45.6493 66.0238 46.8164 66.2909 47.9804C66.3953 48.4341 66.3312 48.5058 65.8388 48.4535C63.7411 48.2282 61.8343 48.8356 60.0603 49.9295C59.5799 48.9386 59.2188 47.9013 58.8936 46.8507C60.399 46.2119 61.9507 45.8478 63.5933 46.1045C64.0186 46.1716 63.9977 45.9717 63.932 45.6956C63.2308 42.7749 63.9604 40.2184 65.9 37.9723C67.1055 36.741 68.5498 35.9202 70.2074 35.465C71.2115 35.4546 72.2156 35.4441 73.2182 35.4352C74.009 35.4352 74.7997 35.4352 75.592 35.4352C76.3902 35.4382 77.1869 35.4411 77.9851 35.4456V37.832Z" fill="#DBD9EA"/>
<path d="M63.1859 58.2825C64.1408 58.1288 65.0927 58.0467 66.064 58.1796C66.522 58.2423 66.3221 57.8856 66.2773 57.6736C65.9804 56.2991 65.9804 54.944 66.3325 53.5665C67.1233 50.4682 69.8969 48.0147 73.048 47.4939C74.7936 47.2058 76.3781 47.6237 77.985 48.1237V49.7638C75.8336 49.6355 73.8134 49.9832 71.9991 51.2548C70.1595 52.5442 69.1002 54.3157 68.5959 56.4633C68.3139 57.6662 68.3975 58.8676 68.6735 60.057C68.7764 60.5003 68.7302 60.5809 68.2274 60.5376C66.8667 60.4182 65.509 60.4794 64.2437 61.1062C63.8096 60.1958 63.4649 59.2511 63.1859 58.2811V58.2825Z" fill="#DBD9EA"/>
<path d="M4.01038 48.1251C4.79218 47.9997 5.50237 47.6385 6.29015 47.5027C10.6856 46.7491 15.0303 49.7802 15.7986 54.1529C16.0075 55.3439 16.0045 56.5154 15.7091 57.684C15.6077 58.084 15.6032 58.3019 16.1508 58.184C17.034 57.9944 17.9247 58.1377 18.808 58.281C18.5305 59.251 18.1829 60.1942 17.7517 61.1061C16.5103 60.4897 15.1765 60.4181 13.8411 60.5315C13.2906 60.5778 13.2235 60.5315 13.3413 59.9868C14.0082 56.8856 13.1533 54.1992 10.9153 51.9964C9.43528 50.5398 7.58669 49.8219 5.49939 49.7667C5.00405 49.7533 4.50721 49.7652 4.01187 49.7652V48.1251H4.01038Z" fill="#DBD9EA"/>
<path d="M22.0933 49.5011C20.7312 48.6221 19.2227 48.3355 17.6397 48.4922C16.8191 48.5728 16.8072 48.6236 16.9698 47.7789C17.8471 43.2165 15.1526 39.0363 10.6288 37.9199C10.3319 37.8468 10.0425 37.8334 9.74707 37.8334C7.83583 37.8304 5.92309 37.8334 4.01184 37.8334V35.447C5.20693 35.444 6.40202 35.441 7.59711 35.438C8.38787 35.438 9.17862 35.438 9.97087 35.438C10.5766 35.4485 11.1839 35.4589 11.7896 35.4679C13.4054 35.8992 14.7975 36.732 16.0373 37.8364C16.4461 38.4557 16.9594 38.9975 17.313 39.6601C18.3111 41.5331 18.5782 43.4971 18.1187 45.5626C18.0485 45.8805 17.874 46.267 18.4648 46.1551C20.0971 45.8447 21.604 46.3148 23.1004 46.8625C22.8274 47.7669 22.5156 48.6549 22.0948 49.5026L22.0933 49.5011Z" fill="#DBD9EA"/>
<path d="M61.4299 8C61.9387 8.57309 62.2535 9.2596 62.5728 9.94313C62.2968 9.98939 62.2624 10.2312 62.1819 10.4326C60.9495 13.4861 59.9976 16.6307 59.2695 19.8379C59.0218 20.9303 58.704 22.0451 58.9636 23.2003C59.3844 25.0762 60.575 26.2523 62.3191 26.9358C61.5791 27.2208 60.8331 27.0716 60.0886 26.9567C57.2613 25.9389 56.0975 23.9987 56.6869 20.902C57.4388 16.956 58.6115 13.125 60.2333 9.44018C60.4631 8.91634 60.7585 8.43429 61.1315 8L61.4299 8Z" fill="#DBD9EA"/>
<path d="M8.9325 8C9.44127 8.57309 9.75608 9.2596 10.0754 9.94313C9.79935 9.98939 9.76503 10.2312 9.68447 10.4326C8.45208 13.4861 7.50018 16.6321 6.77209 19.8379C6.52442 20.9303 6.20811 22.0451 6.46623 23.2018C6.88697 25.0777 8.07759 26.2553 9.82322 26.9343C9.0817 27.2208 8.3357 27.0731 7.5897 26.9567C6.12456 26.506 5.0369 25.621 4.39683 24.2062C4.27001 23.9241 4.2715 23.5823 4.00891 23.3629V21.1258C4.26404 21.0034 4.20138 20.7363 4.24166 20.5408C4.83399 17.6231 5.69636 14.783 6.70197 11.9862C7.20328 10.5938 7.67027 9.17453 8.63261 8H8.93101L8.9325 8Z" fill="#DBD9EA"/>
<path d="M75.6025 16.9426C76.614 19.1185 77.1616 21.4362 77.6853 23.7614C77.7688 24.1301 77.733 24.533 77.9852 24.8554V26.794C77.4824 27.9193 76.7871 28.864 75.5905 29.3341C75.5428 29.3296 75.495 29.3222 75.4488 29.3117C75.2578 28.955 74.8341 28.9237 74.5581 28.673C73.4406 27.6581 73.0556 26.4791 73.3331 24.9524C73.833 22.2033 74.479 19.5095 75.6025 16.9426Z" fill="#D1CDE5"/>
<path d="M29.5132 81.9837C29.6803 80.4629 29.8355 78.9421 30.016 77.4243C30.1234 76.5199 30.2562 75.617 30.4024 74.7171C30.5233 73.9753 31.0649 73.55 31.7318 73.6351C32.3346 73.7112 32.7672 74.3828 32.6867 75.0753C32.4196 77.3781 32.1615 79.6824 31.8989 81.9852H29.5132V81.9837Z" fill="#1F50F5"/>
<path d="M39.8049 81.9837C39.8049 80.445 39.7989 78.9063 39.8064 77.3676C39.8108 76.4945 40.2749 75.9976 41.0343 76.0185C41.7579 76.0393 42.1846 76.5259 42.1876 77.3676C42.1951 78.9063 42.1891 80.445 42.1891 81.9837H39.8034H39.8049Z" fill="#1F50F5"/>
<path d="M57.6819 43.7941C57.6879 42.5271 57.6834 41.26 57.7088 39.9944C57.7147 39.6557 57.5969 39.4631 57.3194 39.2751C53.8579 36.9395 50.0668 35.4023 45.9578 34.7172C39.0588 33.5681 32.5477 34.7426 26.447 38.1737C25.0146 38.9796 24.298 40.2073 24.297 41.857C24.297 42.5032 24.3089 43.1479 24.3164 43.7941C23.9121 44.8164 23.5077 45.8387 23.1034 46.861C21.6054 46.3133 20.1 45.8417 18.4678 46.1536C17.8769 46.2656 18.0515 45.879 18.1216 45.5611C18.5812 43.4956 18.3141 41.5316 17.3159 39.6586C16.9623 38.9945 16.4491 38.4528 16.0403 37.8349C17.8307 37.8349 19.6196 37.8304 21.41 37.8334C21.7114 37.8334 21.9814 37.817 22.2351 37.5916C22.808 37.0827 23.3899 36.5768 24.015 36.1335C28.6357 32.8592 33.7891 31.0578 39.4303 30.6892C41.6832 30.5415 43.9376 30.7086 46.1607 31.1265C50.8948 32.0145 55.2052 33.871 58.9486 36.932C59.7364 37.5767 60.5033 37.9394 61.5507 37.8558C62.7607 37.7588 63.9841 37.8289 65.2031 37.8379C65.4403 37.8394 65.7059 37.7513 65.9043 37.9752C63.9632 40.2228 63.2336 42.7778 63.9364 45.6985C64.002 45.9745 64.0229 46.1745 63.5977 46.1074C61.9565 45.8507 60.4033 46.2148 58.8979 46.8536C58.4936 45.8343 58.0892 44.8149 57.6864 43.7956L57.6819 43.7941Z" fill="#2C4D66"/>
<path d="M60.9809 75.9527C60.9898 76.6094 60.5855 77.1064 59.9947 77.2034C59.3442 77.3093 58.7817 76.9407 58.6116 76.2542C58.1983 74.5797 57.8074 72.8992 57.4001 71.2233C57.1315 70.1218 56.8391 69.0249 56.572 67.9235C56.4392 67.3758 56.9256 66.6177 57.4687 66.4863C58.0252 66.3505 58.7369 66.7311 58.8802 67.3027C59.5874 70.1233 60.2737 72.9485 60.966 75.7736C60.9839 75.8453 60.9779 75.9214 60.9809 75.9557V75.9527Z" fill="#1F50F5"/>
<path d="M21.3146 74.4499C21.4728 73.8052 21.6817 72.9441 21.895 72.0844C22.2829 70.5293 22.6753 68.9742 23.0647 67.4191C23.202 66.8729 23.5825 66.5759 24.1032 66.4864C24.5642 66.4073 24.9267 66.6595 25.1849 67.0147C25.4728 67.4102 25.3848 67.8863 25.2878 68.3071C24.7716 70.5174 24.2285 72.7202 23.6809 74.9215C23.5004 75.6439 22.8917 76.1035 22.3008 76.011C21.6593 75.9095 21.2982 75.423 21.3146 74.4499Z" fill="#1F50F5"/>
<path d="M50.692 67.2699C50.6875 68.2877 50.2936 68.8056 49.6416 68.8534C48.9941 68.9011 48.3913 68.2758 48.3003 67.5281C48.072 65.67 47.8259 63.8135 47.5752 61.9584C47.4827 61.2719 47.8423 60.6719 48.4659 60.5257C49.1015 60.3764 49.8087 60.7436 49.9042 61.3883C50.2056 63.412 50.4503 65.4432 50.6905 67.2714L50.692 67.2699Z" fill="#1F50F5"/>
<path d="M50.6965 43.8225C51.538 43.8225 52.381 43.8225 53.2225 43.824C53.506 45.6552 54.0565 47.4252 54.4653 49.2295C54.6697 50.1354 54.3847 50.7727 53.6611 50.9399C52.936 51.107 52.3885 50.6861 52.1662 49.7847C51.6753 47.7983 51.1874 45.8104 50.698 43.8225H50.6965Z" fill="#1F50F5"/>
<path d="M27.32 56.9215C26.3785 56.9334 25.8011 56.2931 25.9697 55.5619C26.3442 53.9307 26.7411 52.3054 27.1514 50.6831C27.3259 49.9922 27.9854 49.6205 28.6374 49.7952C29.2566 49.9593 29.6445 50.5727 29.4863 51.2428C29.1059 52.8486 28.7075 54.4485 28.2898 56.0454C28.1435 56.6051 27.7362 56.905 27.32 56.9244V56.9215Z" fill="#1F50F5"/>
<path d="M39.805 59.287C39.805 58.5184 39.7931 57.7498 39.808 56.9812C39.8244 56.2111 40.2824 55.7395 40.9852 55.732C41.6894 55.7246 42.1773 56.1962 42.1862 56.9558C42.2026 58.5169 42.2012 60.0794 42.1862 61.642C42.1788 62.4121 41.7133 62.8837 41.0105 62.8911C40.3063 62.8986 39.8259 62.427 39.8095 61.6689C39.7916 60.8764 39.805 60.0824 39.805 59.2885V59.287Z" fill="#1F50F5"/>
<path d="M34.1443 43.8284C34.9858 43.8284 35.8258 43.8269 36.6673 43.8254C36.5196 44.994 36.3569 46.1596 36.2316 47.3296C36.1436 48.143 35.702 48.6042 34.9709 48.5713C34.2532 48.5385 33.7922 48.0266 33.8504 47.2043C33.931 46.0775 34.201 44.9671 34.1443 43.8284Z" fill="#1F50F5"/>
<path d="M65.9001 37.9738C65.7017 37.7499 65.4361 37.838 65.1988 37.8365C63.9814 37.8275 62.7564 37.7589 61.5464 37.8544C60.4991 37.938 59.7322 37.5753 58.9444 36.9306C55.201 33.8696 50.8906 32.0131 46.1565 31.1251C43.9334 30.7087 41.679 30.5415 39.4261 30.6878C33.7864 31.0564 28.6315 32.8563 24.0108 36.1321C23.3856 36.5754 22.8053 37.0813 22.2308 37.5902C21.9757 37.8156 21.7072 37.8335 21.4058 37.832C19.6169 37.8305 17.8265 37.832 16.0361 37.8335C14.7962 36.7276 13.4027 35.8963 11.7869 35.465C14.7604 35.4576 17.7325 35.4486 20.706 35.4411C21.7609 35.665 22.4725 35.1083 23.1141 34.3875C25.1014 32.9861 27.1365 31.6698 29.385 30.7087C34.3309 28.5969 39.4589 27.8388 44.8018 28.5477C50.3818 29.2879 55.3188 31.4728 59.6412 35.0695C59.7695 35.177 59.8769 35.3367 60.0828 35.2979C60.8661 35.6083 61.6822 35.3695 62.4789 35.4411C65.0541 35.4486 67.6308 35.4576 70.206 35.465C68.5484 35.9202 67.1041 36.741 65.8986 37.9723L65.9001 37.9738Z" fill="#395F7E"/>
<path d="M9.82474 26.9343C8.07911 26.2538 6.8885 25.0778 6.46775 23.2018C6.20815 22.0467 6.52445 20.9303 6.77361 19.8379C7.50171 16.6307 8.4536 13.4861 9.68599 10.4327C9.76805 10.2312 9.80087 9.98941 10.0769 9.94315C11.633 13.6742 12.8043 17.5231 13.5145 21.5004C13.9576 23.9808 12.5297 26.109 9.9814 26.9597C9.92918 26.9507 9.87846 26.9433 9.82624 26.9343H9.82474Z" fill="#D1CDE5"/>
<path d="M23.105 16.9426C24.1196 19.1245 24.6776 21.4467 25.1834 23.7823C25.3132 24.3853 25.434 24.9971 25.4758 25.6105C25.5966 27.4238 24.6776 28.5983 23.0946 29.3341C23.0468 29.3296 22.9991 29.3222 22.9528 29.3117C22.7618 28.955 22.3381 28.9237 22.0621 28.673C20.9446 27.6581 20.5597 26.4791 20.8372 24.9524C21.337 22.2018 21.983 19.5095 23.1065 16.9426H23.105Z" fill="#D1CDE5"/>
<path d="M23.105 16.9426C21.9815 19.5096 21.3355 22.2034 20.8357 24.9524C20.5582 26.4792 20.9431 27.6582 22.0606 28.673C22.3366 28.9237 22.7604 28.9551 22.9513 29.3118C22.2113 29.6013 21.4683 29.4744 20.7253 29.3267C18.6499 28.2014 18.0695 27.0881 18.4813 24.6927C18.9647 21.8751 19.7286 19.129 20.8819 16.5053C21.1057 15.9979 21.2952 15.2398 21.886 15.2293C22.541 15.2174 22.6559 16.0337 22.9498 16.5292C23.0244 16.6531 23.0543 16.8038 23.105 16.9426Z" fill="#DBD9EA"/>
<path d="M9.82471 26.9343C9.87693 26.9432 9.92765 26.9507 9.97987 26.9596C9.97689 29.7848 9.97391 32.6099 9.97092 35.4366C9.18016 35.4366 8.3894 35.4366 7.59715 35.4366C7.59566 32.6099 7.59268 29.7833 7.59119 26.9581C8.33718 27.0746 9.08318 27.2223 9.82471 26.9358V26.9343Z" fill="#F87931"/>
<path d="M62.4801 35.4425C61.6834 35.3709 60.8673 35.6097 60.084 35.2993C60.084 32.5189 60.087 29.7385 60.0885 26.9581C60.833 27.0731 61.5775 27.2208 62.319 26.9373C62.3712 26.9447 62.4249 26.9537 62.4771 26.9611C62.4771 29.7878 62.4801 32.6159 62.4801 35.4425Z" fill="#F87931"/>
<path d="M20.7253 29.3266C21.4683 29.4744 22.2113 29.6012 22.9514 29.3117C22.9976 29.3222 23.0454 29.3296 23.0931 29.3341C23.1006 31.019 23.108 32.7025 23.1155 34.3874C22.4754 35.1083 21.7622 35.6664 20.7074 35.4411C20.7134 33.4024 20.7193 31.3638 20.7238 29.3266H20.7253Z" fill="#F87931"/>
<path d="M62.4771 26.9597C62.4249 26.9522 62.3712 26.9433 62.319 26.9358C60.5749 26.2538 59.3842 25.0763 58.9635 23.2003C58.7039 22.0452 59.0217 20.9303 59.2694 19.8379C59.9975 16.6307 60.9493 13.4861 62.1817 10.4327C62.2638 10.2312 62.2966 9.98941 62.5726 9.94315C64.1273 13.6742 65.3 17.5231 66.0102 21.5004C66.4533 23.9808 65.0255 26.109 62.4771 26.9597Z" fill="#D1CDE5"/>
<path d="M75.6023 16.9426C74.4789 19.5095 73.8328 22.2034 73.333 24.9524C73.0555 26.4791 73.4404 27.6581 74.5579 28.673C74.8339 28.9237 75.2577 28.9551 75.4486 29.3117C74.7086 29.6013 73.9656 29.4744 73.2226 29.3267C71.1472 28.1999 70.5668 27.088 70.9786 24.6912C71.462 21.8735 72.2259 19.1275 73.3792 16.5038C73.603 15.9964 73.7925 15.2382 74.3834 15.2278C75.0383 15.2159 75.1532 16.0322 75.4472 16.5277C75.5218 16.6516 75.5516 16.8023 75.6023 16.9411V16.9426Z" fill="#DBD9EA"/>
<path d="M73.2226 29.3266C73.9656 29.4744 74.7086 29.6012 75.4487 29.3117C75.4949 29.3222 75.5427 29.3296 75.5904 29.3341C75.5904 31.3683 75.5904 33.4009 75.5919 35.4351C74.8011 35.4351 74.0104 35.4351 73.2181 35.4351C73.2181 33.3979 73.2211 31.3623 73.2226 29.3266Z" fill="#F87931"/>
</g>
<defs>
<clipPath id="clip0_2070_1573">
<rect width="81.0443" height="81.0443" fill="white" transform="translate(0.797241 0.631134)"/>
</clipPath>
</defs>
</svg>
