<svg width="55" height="56" viewBox="0 0 55 56" fill="none" xmlns="http://www.w3.org/2000/svg">
<path d="M13.4421 12.4077C14.6217 11.5894 15.8038 10.7695 16.9834 9.95128C17.0747 9.94076 17.1677 9.93262 17.2591 9.9221C17.799 9.85754 18.2538 10.0916 18.509 10.5663C18.7502 11.0154 18.6785 11.5724 18.3148 11.9621C18.214 12.0707 18.0955 12.1741 17.9658 12.2359C17.6196 12.4021 17.6543 12.5893 17.864 12.856C18.1477 13.2193 18.4117 13.5998 18.6526 13.9928C18.8181 14.262 18.9695 14.2873 19.2355 14.1274C20.9408 13.1172 22.7775 12.449 24.7106 12.0416C25.0114 11.9774 25.4271 12.0131 25.5875 11.8279C25.7722 11.6117 25.589 11.2104 25.5702 10.8888C25.5577 10.6473 25.6066 10.3421 25.4824 10.1782C25.3409 9.99457 25.0317 10.1633 24.7955 10.158C24.1553 10.1441 23.6436 9.69589 23.5704 9.0774C23.4988 8.46128 23.8999 7.83082 24.52 7.75996C25.8517 7.60772 27.1881 7.49795 28.526 7.42589C29.1268 7.39313 29.6265 7.93069 29.6785 8.5287C29.7325 9.14996 29.3156 9.70685 28.6948 9.8275C28.5244 9.86115 28.3448 9.87651 28.1715 9.88051C27.9941 9.88379 27.9383 9.95065 27.9601 10.1293C28.0042 10.5179 28.0452 10.9122 28.0516 11.3023C28.057 11.5944 28.1488 11.6963 28.4561 11.6874C29.4602 11.6673 30.4614 11.7548 31.4492 11.9397C37.6229 13.0751 42.1534 16.4529 45.0038 22.0247C46.6438 25.2269 47.2404 28.6668 46.7893 32.2417C45.9509 38.8435 42.5416 43.7094 36.6459 46.7633C33.0733 48.6108 29.2416 49.1199 25.2722 48.4352C21.4381 47.7729 18.1214 46.079 15.3607 43.3229C14.8445 42.8074 14.3639 42.2566 13.8675 41.7238C13.4187 41.0769 12.9717 40.4324 12.523 39.7855C12.2908 39.3441 12.0475 38.907 11.8289 38.4598C9.60031 33.8657 9.3011 29.1381 10.8551 24.2839C10.9454 24.0028 11.2038 23.6898 11.0991 23.4524C10.9852 23.1968 10.5813 23.1529 10.3066 23.0158C10.0773 22.9036 9.82962 22.7091 9.60685 22.7333C9.37768 22.7584 9.36666 23.1183 9.24108 23.3181C8.89725 23.8736 8.22743 24.0811 7.65218 23.8003C7.09232 23.5264 6.79516 22.8694 7.05183 22.2898C7.57834 21.1038 8.12095 19.9208 8.71467 18.7657C9.15105 17.917 10.3252 17.9338 10.8109 18.7559C11.0546 19.1681 11.0432 19.5987 10.8016 19.9917C10.5709 20.3702 10.6745 20.5449 11.0623 20.6774C11.354 20.778 11.6361 20.9206 11.9079 21.0737C12.131 21.1973 12.2461 21.1703 12.3799 20.9366C12.6458 20.4668 12.9385 20.0101 13.2474 19.5668C14.1954 18.2013 15.3075 16.986 16.6059 15.948C16.8219 15.777 16.845 15.6376 16.6755 15.4135C16.413 15.0707 16.1758 14.7034 15.93 14.349C15.7178 14.043 15.4586 13.9926 15.1524 14.1979C14.4188 14.6892 13.5139 14.4257 13.2402 13.6503C13.0824 13.1891 13.2365 12.7969 13.4421 12.4077ZM41.6027 21.0268C36.5449 13.7454 26.5313 11.9341 19.2489 16.9855C11.969 22.0353 10.1546 32.0546 15.1932 39.3388C20.2375 46.626 30.3156 48.449 37.5832 43.3866C44.8557 38.3209 46.6556 28.3011 41.6011 21.0244L41.6027 21.0268Z" fill="#B3BAE5"/>
<path d="M23.4179 25.1336C22.4281 23.7067 21.4399 22.2821 20.4501 20.8551C19.8908 20.0488 20.0187 19.4106 20.834 18.8592C26.5295 15.0141 34.2976 16.0968 38.7795 21.3647C43.4263 26.8247 43.0413 34.9789 37.8971 39.9845C32.745 44.999 24.4504 45.1023 19.167 40.2177C18.4792 39.5816 17.8586 38.8849 17.3129 38.1186C16.7738 37.3617 16.8962 36.685 17.6818 36.1366C19.7183 34.7204 21.7582 33.309 23.7964 31.8952C24.6549 31.2997 25.5045 30.6962 26.373 30.115C26.6355 29.9399 26.6693 29.8108 26.4805 29.5437C25.4491 28.0822 24.435 26.6051 23.4155 25.1353L23.4179 25.1336ZM24.6781 34.2531L20.6683 37.0346C20.1673 37.3821 20.1396 37.7688 20.5854 38.1947C25.0292 42.4428 31.7448 42.4449 36.2166 38.2017C40.7184 33.9307 40.6971 26.3789 36.1731 22.1371C32.6696 18.8536 27.8959 18.0962 23.5133 20.1217C23.2108 20.2611 23.1546 20.468 23.3449 20.7423C25.3229 23.5938 27.3009 26.4454 29.2789 29.297C29.8431 30.1103 29.728 30.7468 28.9217 31.306C27.5067 32.2876 26.0939 33.2675 24.6789 34.2491L24.6781 34.2531Z" fill="#B3BAE5"/>
<path d="M18.9833 22.9504C19.2606 23.3604 19.1743 23.8606 18.8632 24.3618C18.0695 25.645 17.5798 27.0415 17.352 28.5311C17.1527 29.8282 17.183 31.1212 17.4411 32.4075C17.5031 32.7203 17.5208 33.0251 17.3882 33.3214C17.1753 33.7966 16.6916 34.0793 16.176 34.0318C15.6195 33.9811 15.1924 33.5939 15.0731 33.0004C14.5674 30.5295 14.7321 28.1009 15.5424 25.7141C15.8752 24.7365 16.3157 23.8074 16.8665 22.9357C17.3564 22.1591 18.4002 22.1149 18.984 22.9464L18.9833 22.9504Z" fill="#B3BAE5"/>
</svg>
