<svg width="97" height="88" viewBox="0 0 97 88" fill="none" xmlns="http://www.w3.org/2000/svg">
<path d="M38.0075 18.115L41.1737 16.8638C41.6616 16.9503 42.0634 16.8297 42.3408 16.4025L42.6743 16.2708C43.2884 16.7493 43.8502 16.2269 44.4026 16.1291C53.4862 14.527 61.5795 16.6278 68.6776 22.4486C69.8001 23.369 70.8137 24.4166 71.8773 25.4062C72.0227 25.6262 72.1525 25.8599 72.3159 26.067C74.2828 28.5572 75.9088 31.2414 77.0136 34.21C77.4314 35.3343 77.7105 36.5077 78.052 37.6583C78.3056 39.2645 78.5599 40.8723 78.8136 42.4785C78.7806 42.769 78.7136 43.0614 78.7209 43.3511C78.8213 47.6962 77.9412 51.828 76.1044 55.7812C73.4005 61.6018 69.1678 65.9776 63.4834 69.0084C62.5135 69.0263 61.6818 69.5367 60.7659 69.7686C56.749 70.7878 52.709 70.9879 48.6332 70.2896C43.907 69.481 39.6204 67.6396 35.819 64.7247C32.1213 61.8893 29.3183 58.3407 27.3318 54.1728C26.378 52.1718 25.7597 50.0535 25.3092 47.8766C23.8783 40.9602 25.0298 34.4331 28.4623 28.3341C30.6292 24.4839 33.6047 21.2763 37.3933 18.8609C37.6393 18.7044 38.1386 18.6237 38.0068 18.1134L38.0075 18.115ZM58.9749 64.5096C60.3718 64.0474 61.6283 63.306 62.8197 62.4851C67.1136 59.5275 70.1369 55.6181 71.6798 50.6409C73.6613 44.2564 72.9 38.1409 69.4739 32.4338C66.533 27.5355 62.2102 24.1991 56.6604 22.5394C51.7715 21.0777 46.9063 21.1562 42.1138 22.9909C41.8654 22.8461 41.6113 22.9446 41.4433 23.0837C40.6255 23.7569 39.5825 23.9855 38.677 24.5002C33.1906 27.623 29.7115 32.2826 28.0704 38.2283C26.3732 44.3742 27.3331 50.3022 30.6994 55.6905C34.5839 61.9071 40.3872 65.3777 47.7232 66.276C50.5591 66.6225 53.3884 66.3902 56.1161 65.5839C57.0749 65.3006 58.1597 65.2182 58.9725 64.5086L58.9749 64.5096Z" fill="#3060FF"/>
<path d="M63.4271 69.0227C63.2383 69.1719 62.9146 69.1507 62.861 69.4663L62.3613 69.6638C62.2601 69.5719 62.2002 69.5861 62.1947 69.7297L59.1979 70.9142C59.0141 70.7804 58.9068 70.8305 58.8648 71.0459L58.365 71.2434C57.0608 71.3212 55.8398 71.7943 54.5558 71.9883C49.1379 72.8088 43.8922 72.1772 38.8556 70.0846C34.9559 68.4641 31.5519 66.0932 28.7162 62.9605C28.5584 62.7858 28.3735 62.6352 28.2016 62.4738C27.2516 61.1478 26.3016 59.8219 25.3522 58.4977C25.2636 58.3128 25.1887 58.1188 25.0832 57.9445C23.7493 55.7398 22.8473 53.3703 22.1931 50.8874C21.7194 49.0922 21.5657 47.2565 21.2867 45.436C21.3323 43.1104 21.387 40.7929 21.855 38.4935C22.7715 33.9847 24.6608 29.9344 27.5351 26.334C30.0586 23.1744 33.138 20.6649 36.7672 18.8193C36.8588 18.7735 36.9086 18.6487 36.9788 18.5598C37.0905 18.5157 37.2004 18.4722 37.312 18.4281C37.4945 18.5586 37.6078 18.5234 37.6452 18.2964L37.9783 18.1647C38.1083 18.6754 37.6094 18.756 37.3653 18.9117C33.5802 21.3255 30.6074 24.5308 28.4424 28.3785C25.0131 34.4732 23.8625 40.9958 25.2921 47.9075C25.7423 50.0829 26.36 52.1997 27.3129 54.1993C29.2986 58.362 32.0982 61.9104 35.7924 64.7439C39.5898 67.6552 43.8724 69.4953 48.595 70.3049C52.6672 71.0028 56.7028 70.8012 60.7168 69.7843C61.6301 69.5533 62.4628 69.0425 63.4317 69.0247L63.4271 69.0227Z" fill="#1F50F5"/>
<path d="M83.6786 20.6699C84.7539 20.2486 85.8422 19.8547 86.9004 19.3962C87.6939 19.0519 88.4808 18.8057 89.3527 19.0115L94.2967 31.1923C92.4695 31.9127 90.6434 32.6309 88.8162 33.3514L88.8009 33.3708C87.0926 29.1382 85.3866 24.9065 83.6783 20.6739L83.6786 20.6699Z" fill="#DBD9EA"/>
<path d="M3.78667 52.735C4.5132 51.9413 5.52411 51.6676 6.47895 51.2938C7.80913 54.572 9.13598 57.8516 10.4768 61.1275C11.0327 62.4879 12.6689 63.2414 14.0615 62.8091C14.1345 62.8413 14.2091 62.873 14.2821 62.9053C14.8688 64.3987 15.4571 65.8914 16.0437 67.3848C15.0177 67.7829 13.9736 68.1462 12.9672 68.5881C12.1362 68.9531 11.305 69.1748 10.3961 69.0241L3.786 52.7333L3.78667 52.735Z" fill="#D1CDE5"/>
<path d="M88.7968 33.3364C90.6271 32.6149 92.4565 31.8958 94.2869 31.1743L95.8934 35.1307C94.9412 36.4371 93.3524 36.5999 92.0229 37.2249C91.5712 37.4378 91.0989 37.6092 90.6345 37.8004C90.0225 36.3121 89.4088 34.8246 88.7968 33.3364Z" fill="#D1CDE5"/>
<path d="M42.3988 16.4536C42.121 16.8821 41.7184 17.0031 41.2297 16.9163L42.3988 16.4536Z" fill="#FEFEFE"/>
<path d="M37.7219 18.3079C37.6845 18.5354 37.5709 18.5707 37.3881 18.4399L37.7219 18.3079Z" fill="#3060FF"/>
<path d="M58.8513 70.9872C58.8934 70.7712 59.0009 70.7211 59.1851 70.8552L58.8513 70.9872Z" fill="#3060FF"/>
<path d="M62.193 69.6622C62.1985 69.5183 62.2586 69.5042 62.3599 69.5963L62.193 69.6622Z" fill="#3060FF"/>
<path d="M42.116 22.9923C46.9084 21.1577 51.7734 21.0792 56.6622 22.5408C62.2118 24.2005 66.5338 27.5351 69.4753 32.4349C72.9007 38.1403 73.6619 44.2556 71.6812 50.6416C70.1366 55.6193 67.1151 59.528 62.8212 62.4855C61.6299 63.3064 60.3735 64.0478 58.9766 64.5099C58.558 64.3941 58.1589 64.5404 57.758 64.6108C51.8306 65.6658 46.2895 64.6131 41.2373 61.4005C35.6997 57.8787 32.2002 52.8627 31.1766 46.4301C29.8016 37.793 32.6133 30.6042 39.4296 24.9817C40.2917 24.2699 41.3424 23.8126 42.1183 22.9933L42.116 22.9923ZM47.0072 36.1624C43.2026 37.666 39.3966 39.1663 35.5939 40.6748C34.6636 41.0424 34.2528 41.6983 34.543 42.4273C35.6187 45.1242 36.7128 47.8138 37.8202 50.4982C38.0826 51.1348 38.5361 51.4606 39.3079 51.3029C39.7205 51.2183 40.1174 51.1189 40.5042 50.966C46.753 48.4965 53.0018 46.0271 59.2506 43.5576C60.2777 43.1517 61.3171 42.7716 62.3307 42.3327C63.6278 41.7723 63.8332 41.2396 63.3195 39.9697C62.3275 37.5266 61.3365 35.0813 60.3428 32.6389C59.8889 31.5213 59.3282 31.2933 58.1721 31.7483C54.4508 33.2189 50.7295 34.6895 47.0082 36.1601L47.0072 36.1624ZM45.3043 32.4355C46.8865 31.8103 48.4714 31.1916 50.0496 30.5564C50.9079 30.2115 51.4227 29.2638 51.144 28.5916C50.8645 27.9177 49.8369 27.593 48.9692 27.934C45.8588 29.1556 42.7494 30.3844 39.6427 31.6198C38.769 31.965 38.2421 32.8734 38.4882 33.5605C38.7407 34.268 39.8047 34.6013 40.722 34.2445C42.2519 33.6475 43.7754 33.0397 45.3026 32.4362L45.3043 32.4355ZM63.8214 51.6931C64.9835 51.2339 66.1539 50.7904 67.3066 50.3081C67.8738 50.0706 68.3177 49.6771 68.3876 49.0201C68.4442 48.4735 68.2031 48.037 67.7514 47.7392C67.2218 47.388 66.6641 47.5204 66.1283 47.7302C63.8832 48.6098 61.6394 49.4927 59.401 50.3888C58.452 50.7676 58.1079 51.4641 58.4395 52.2475C58.807 53.1143 59.5153 53.3815 60.4973 53.0029C61.6084 52.5753 62.7121 52.1296 63.8208 51.6914L63.8214 51.6931ZM42.9563 58.4199C43.548 59.8676 45.1923 60.5817 46.6331 60.0181C48.1483 59.4231 48.8799 57.7987 48.2928 56.3243C47.7024 54.8417 46.0397 54.1348 44.5392 54.7278C43.022 55.3274 42.3411 56.9145 42.9569 58.4215L42.9563 58.4199ZM53.862 52.5815C53.862 52.5815 53.8614 52.5799 53.8607 52.5782C53.5006 52.7206 53.1207 52.8286 52.782 53.0141C52.1276 53.3703 51.8578 53.9399 52.0815 54.653C52.3003 55.3489 52.7739 55.7433 53.5657 55.6255C54.4947 55.488 55.3362 55.0923 56.1464 54.6669C56.7431 54.3545 57.0411 53.3396 56.7322 52.8744C56.3171 52.2522 55.6899 51.9893 54.9451 52.1612C54.5719 52.2475 54.2208 52.4359 53.8607 52.5782L53.862 52.5815ZM34.1751 33.7977C33.0817 34.2069 32.6792 34.8021 32.9137 35.5894C33.0893 36.1838 33.4285 36.6141 34.0757 36.6453C34.9159 36.6844 35.6812 36.4202 36.2051 35.7521C36.5378 35.328 36.7379 34.7725 36.3987 34.2658C36.0256 33.7092 35.4308 33.4928 34.758 33.575C34.5575 33.6007 34.3702 33.7206 34.1768 33.7971L34.1751 33.7977ZM55.6512 28.3465C56.8269 27.8876 57.1955 27.2752 56.838 26.3758C56.4648 25.4329 55.7636 25.2356 54.5422 25.7297C53.4735 26.1616 53.1297 26.8064 53.4972 27.6922C53.8579 28.5616 54.5555 28.7738 55.6512 28.3465Z" fill="#DBD9EA"/>
<path d="M42.0863 23.0371C41.3095 23.8564 40.2616 24.3127 39.4004 25.024C32.5911 30.6423 29.7822 37.8257 31.1558 46.4563C32.1783 52.8841 35.6736 57.8947 41.2062 61.4156C46.2532 64.6257 51.7887 65.6776 57.71 64.6234C58.1122 64.5524 58.5093 64.4069 58.9273 64.5226C58.1171 65.231 57.0317 65.314 56.0739 65.5971C53.349 66.4027 50.5228 66.6349 47.6898 66.2886C40.3599 65.3917 34.5627 61.9237 30.6839 55.7113C27.3212 50.3272 26.3623 44.4038 28.0577 38.2627C29.6971 32.3216 33.1718 27.6639 38.6532 24.5452C39.5577 24.0309 40.5996 23.8025 41.4166 23.1298C41.5844 22.9908 41.8382 22.8924 42.0863 23.0371Z" fill="#D1CDE5"/>
<path d="M71.9481 25.3576C73.9474 24.5558 75.9467 23.7539 77.9461 22.9521C79.673 27.1778 81.4006 31.4053 83.1275 35.6311L83.1045 35.6268C81.4409 36.2845 79.7773 36.9421 78.1153 37.5991C77.7743 36.4495 77.4948 35.2755 77.0782 34.1538C75.9747 31.1878 74.3507 28.5058 72.3861 26.0178C72.2229 25.8109 72.094 25.579 71.9481 25.3576Z" fill="#DBD9EA"/>
<path d="M78.0963 37.5868C79.7628 36.9282 81.4292 36.2696 83.0941 35.6117C83.6942 37.0991 84.2926 38.5873 84.8927 40.0747C82.8815 40.8523 80.8711 41.6316 78.8583 42.4098C78.6038 40.8011 78.3501 39.1939 78.0963 37.5868Z" fill="#D1CDE5"/>
<path d="M16.0537 67.369C15.4659 65.8738 14.8765 64.3792 14.2886 62.884C16.1677 62.1414 18.0485 61.3981 19.9282 60.6572C20.5447 62.1373 21.1605 63.6157 21.7787 65.0951C21.971 66.2454 21.6585 66.8434 20.6348 67.2575C19.8922 67.5586 19.1469 67.8532 18.3989 68.1411C17.3695 68.5364 16.6665 68.3015 16.0537 67.369Z" fill="#2C4D66"/>
<path d="M21.7925 65.086C21.1756 63.605 20.5595 62.1256 19.941 60.6452L19.9843 60.6281C21.7537 59.9269 23.5231 59.2256 25.2925 58.5244C26.2439 59.8522 27.1954 61.1799 28.1469 62.5076C26.0295 63.3674 23.9115 64.2255 21.7941 65.0853L21.7925 65.086Z" fill="#D1CDE5"/>
<path d="M19.9411 60.6721C18.0648 61.4139 16.1869 62.1564 14.31 62.8966C14.237 62.8643 14.1624 62.8327 14.0894 62.8004C13.9081 62.2108 13.7684 61.6048 13.5394 61.036C12.2073 57.7156 10.8585 54.4018 9.50465 51.09C9.38701 50.8001 9.36289 50.4408 9.00924 50.2883C8.89379 48.8566 9.23286 48.3021 10.5417 47.7808C11.1211 47.5517 11.6951 47.3095 12.2811 47.0969C13.4855 46.6608 14.1307 46.8892 14.8384 47.9759C16.5541 52.2034 18.2692 56.4292 19.985 60.6566L19.9417 60.6738L19.9411 60.6721Z" fill="#375E7D"/>
<path d="M20.0056 60.6401C18.2892 56.4118 16.5734 52.1851 14.857 47.9568C16.9841 47.1312 19.1113 46.3057 21.2391 45.4817C21.5197 47.3014 21.6717 49.1375 22.1469 50.9319C22.8027 53.4138 23.7029 55.7837 25.0364 57.9881C25.142 58.1624 25.2169 58.3564 25.3054 58.5413C23.5384 59.2398 21.7727 59.9416 20.0063 60.6418L20.0056 60.6401Z" fill="#DBD9EA"/>
<path d="M8.99376 50.2994C9.34866 50.4513 9.37175 50.8127 9.48859 51.1008C10.8391 54.4117 12.188 57.7234 13.5187 61.0422C13.748 61.6124 13.8875 62.2182 14.068 62.8058C12.6763 63.238 11.0429 62.4841 10.4858 61.1247C9.14662 57.8513 7.82239 54.5719 6.49083 51.2935C7.32559 50.9633 8.15901 50.6297 8.99309 50.2978L8.99376 50.2994Z" fill="#DBD9EA"/>
<path d="M84.9029 40.0617C84.3031 38.5751 83.705 37.0878 83.1052 35.6011L83.1282 35.6054C85.0083 34.8605 86.8894 34.1133 88.7694 33.3684L88.7848 33.349C89.3966 34.8366 90.0084 36.3243 90.6219 37.8112C90.8438 38.8867 90.4953 39.5486 89.4763 39.9647C88.7644 40.2556 88.0461 40.5357 87.3271 40.814C86.2207 41.2436 85.5958 41.0486 84.9006 40.0608L84.9029 40.0617Z" fill="#2C4D66"/>
<path d="M88.7815 33.3814C86.9043 34.1255 85.0262 34.8719 83.149 35.616C81.4227 31.3909 79.6957 27.1642 77.971 22.9385C77.7049 21.9926 78.0134 21.2056 78.8463 20.7635C79.6994 20.3096 80.6267 19.9525 81.5611 19.7035C82.6091 19.4248 83.1321 19.7378 83.6613 20.6848C85.3694 24.9171 87.0751 29.1484 88.7831 33.3807L88.7815 33.3814Z" fill="#375E7D"/>
<path d="M47.0062 36.1622C50.7319 34.6892 54.4577 33.2161 58.1834 31.743C59.3419 31.285 59.9017 31.514 60.3567 32.6352C61.3516 35.0816 62.3455 37.5303 63.337 39.9781C63.853 41.2495 63.6456 41.7837 62.347 42.345C61.3322 42.7846 60.2915 43.1654 59.2633 43.5719C53.0069 46.0455 46.7506 48.5191 40.4943 50.9927C40.107 51.1458 39.7103 51.247 39.2966 51.3301C38.5239 51.4881 38.0698 51.1618 37.8072 50.5241C36.6984 47.8352 35.603 45.1411 34.5259 42.4398C34.2347 41.708 34.6451 41.0533 35.5782 40.6843C39.3854 39.1733 43.1959 37.6706 47.0052 36.1645L47.0062 36.1622Z" fill="#F7F6F7"/>
<path d="M45.3285 32.4691C43.7987 33.0743 42.2726 33.6839 40.7401 34.2826C39.8219 34.6421 38.7561 34.3079 38.5026 33.5966C38.2561 32.9076 38.7829 31.9989 39.659 31.6503C42.7716 30.413 45.884 29.1796 49.0013 27.9539C49.8704 27.6119 50.8998 27.9375 51.1797 28.6134C51.4589 29.2875 50.9425 30.2363 50.0834 30.5838C48.5026 31.2208 46.915 31.8413 45.3301 32.4684L45.3285 32.4691Z" fill="#85A1FE"/>
<path d="M63.8182 51.6597C62.7094 52.0983 61.6033 52.5434 60.4896 52.9744C59.506 53.3539 58.7967 53.086 58.4287 52.2171C58.0958 51.4302 58.4394 50.7343 59.3916 50.3539C61.6334 49.4556 63.8807 48.5705 66.1292 47.6888C66.6652 47.4767 67.2261 47.345 67.7548 47.6978C68.2063 47.9986 68.4487 48.4339 68.392 48.9818C68.322 49.6404 67.8774 50.0349 67.3094 50.273C66.1549 50.7565 64.9827 51.201 63.8188 51.6614L63.8182 51.6597Z" fill="#85A1FE"/>
<path d="M42.9115 58.4218C42.2962 56.9163 42.9772 55.329 44.4939 54.7276C45.9946 54.1346 47.6575 54.8416 48.248 56.3244C48.8352 57.7989 48.1059 59.4245 46.5882 60.0185C45.1461 60.5846 43.5016 59.8704 42.9108 58.4202L42.9115 58.4218Z" fill="#FD7931"/>
<path d="M53.8372 52.5628C54.1976 52.4203 54.5483 52.23 54.9225 52.1453C55.6679 51.9732 56.2956 52.2364 56.7111 52.8592C57.0219 53.3243 56.7221 54.3409 56.1248 54.6536C55.3133 55.0778 54.4717 55.4755 53.542 55.6132C52.7494 55.7311 52.2754 55.3363 52.0565 54.6397C51.8318 53.9242 52.1019 53.354 52.7576 52.9991C53.0956 52.8157 53.4751 52.7059 53.8372 52.5628C53.8372 52.5628 53.8379 52.5644 53.8385 52.5661L53.8372 52.5628Z" fill="#85A1FE"/>
<path d="M34.1753 33.8485C34.3688 33.772 34.5579 33.6514 34.7568 33.6264C35.4292 33.5424 36.025 33.7606 36.3982 34.3175C36.7377 34.8245 36.5375 35.3802 36.2046 35.8046C35.6804 36.4731 34.913 36.738 34.0742 36.6982C33.4249 36.6677 33.0872 36.2366 32.9116 35.6418C32.6786 34.8535 33.0813 34.2579 34.1736 33.8492L34.1753 33.8485Z" fill="#85A1FE"/>
<path d="M55.6984 28.3544C54.6022 28.7819 53.905 28.5713 53.5434 27.6998C53.1757 26.8135 53.5197 26.1684 54.5889 25.7363C55.8108 25.2419 56.51 25.4384 56.8857 26.3827C57.2434 27.2826 56.8747 27.8953 55.6984 28.3544Z" fill="#85A1FE"/>
</svg>
