<svg width="236" height="175" viewBox="0 0 236 175" fill="none" xmlns="http://www.w3.org/2000/svg">
<path d="M235.431 153.787H0.569244V153.905H235.431V153.787Z" fill="#EBEBEB"/>
<path d="M211.898 161.345H201.714V161.463H211.898V161.345Z" fill="#EBEBEB"/>
<path d="M162.469 158.912H146.446V159.029H162.469V158.912Z" fill="#EBEBEB"/>
<path d="M207.773 156.986H186.857V157.104H207.773V156.986Z" fill="#EBEBEB"/>
<path d="M81.8407 159.354H76.6079V159.471H81.8407V159.354Z" fill="#EBEBEB"/>
<path d="M72.4228 159.354H54.3901V159.471H72.4228V159.354Z" fill="#EBEBEB"/>
<path d="M44.7279 157.371H31.7166V157.489H44.7279V157.371Z" fill="#EBEBEB"/>
<path d="M111.894 132.838H21.1948C20.4843 132.836 19.8033 132.553 19.3013 132.05C18.7994 131.548 18.5174 130.866 18.5174 130.156V2.65863C18.5236 1.95218 18.8083 1.2767 19.3096 0.778903C19.8109 0.28111 20.4884 0.00121019 21.1948 0H111.894C112.605 0 113.287 0.28258 113.79 0.785574C114.293 1.28857 114.576 1.97078 114.576 2.68212V130.156C114.576 130.867 114.293 131.549 113.79 132.052C113.287 132.555 112.605 132.838 111.894 132.838ZM21.1948 0.093945C20.5155 0.0951893 19.8643 0.365945 19.3844 0.846782C18.9044 1.32762 18.6349 1.97925 18.6349 2.65863V130.156C18.6349 130.835 18.9044 131.487 19.3844 131.967C19.8643 132.448 20.5155 132.719 21.1948 132.72H111.894C112.573 132.719 113.225 132.448 113.706 131.968C114.187 131.487 114.457 130.835 114.458 130.156V2.65863C114.457 1.97882 114.187 1.3272 113.706 0.846496C113.225 0.365792 112.573 0.0951866 111.894 0.093945H21.1948Z" fill="#EBEBEB"/>
<path d="M213.499 132.838H122.796C122.085 132.836 121.403 132.553 120.901 132.051C120.398 131.548 120.115 130.867 120.114 130.156V2.65863C120.121 1.95175 120.407 1.27627 120.909 0.778609C121.411 0.280945 122.089 0.00119699 122.796 0H213.499C214.205 0.00244467 214.881 0.28289 215.382 0.780552C215.882 1.27821 216.166 1.95299 216.172 2.65863V130.156C216.172 130.865 215.891 131.546 215.39 132.049C214.889 132.551 214.209 132.835 213.499 132.838ZM122.796 0.093945C122.116 0.0951866 121.464 0.365792 120.984 0.846496C120.503 1.3272 120.232 1.97882 120.231 2.65863V130.156C120.232 130.835 120.503 131.487 120.984 131.968C121.464 132.448 122.116 132.719 122.796 132.72H213.499C214.179 132.719 214.831 132.448 215.311 131.968C215.792 131.487 216.063 130.835 216.064 130.156V2.65863C216.063 1.97882 215.792 1.3272 215.311 0.846496C214.831 0.365792 214.179 0.0951866 213.499 0.093945H122.796Z" fill="#EBEBEB"/>
<path d="M54.5875 56.193C57.1924 56.193 59.6906 55.1582 61.5326 53.3162C63.3746 51.4743 64.4094 48.976 64.4094 46.3711C64.4094 43.7662 63.3746 41.2679 61.5326 39.426C59.6906 37.584 57.1924 36.5492 54.5875 36.5492H53.3803V56.193H54.5875Z" fill="#E0E0E0"/>
<path d="M53.3708 56.193C58.7953 56.193 63.1927 51.7956 63.1927 46.3711C63.1927 40.9466 58.7953 36.5492 53.3708 36.5492C47.9463 36.5492 43.5489 40.9466 43.5489 46.3711C43.5489 51.7956 47.9463 56.193 53.3708 56.193Z" fill="#F5F5F5"/>
<path d="M52.9199 47.6017C49.4317 47.6017 46.0864 46.216 43.6198 43.7495C41.1533 41.283 39.7676 37.9377 39.7676 34.4495V26.6004C39.7676 26.2728 39.8978 25.9585 40.1295 25.7269C40.3611 25.4952 40.6754 25.365 41.003 25.365C41.3307 25.365 41.6449 25.4952 41.8766 25.7269C42.1082 25.9585 42.2384 26.2728 42.2384 26.6004V34.4542C42.2409 37.2855 43.3664 40.0002 45.368 42.0027C47.3696 44.0052 50.0839 45.1319 52.9152 45.1357C53.0835 45.1253 53.2522 45.1495 53.4108 45.2067C53.5694 45.264 53.7147 45.3531 53.8375 45.4686C53.9604 45.5842 54.0583 45.7236 54.1252 45.8784C54.1922 46.0332 54.2267 46.2001 54.2267 46.3687C54.2267 46.5373 54.1922 46.7042 54.1252 46.859C54.0583 47.0138 53.9604 47.1532 53.8375 47.2688C53.7147 47.3843 53.5694 47.4734 53.4108 47.5307C53.2522 47.5879 53.0835 47.6121 52.9152 47.6017H52.9199Z" fill="#E0E0E0"/>
<path d="M30.082 33.5147H51.9335C52.283 33.5147 52.6278 33.4346 52.9414 33.2804C53.255 33.1261 53.529 32.902 53.7423 32.6251C53.9556 32.3483 54.1024 32.0262 54.1716 31.6837C54.2408 31.3411 54.2304 30.9873 54.1412 30.6494L52.2388 23.4861C52.1104 22.9995 51.8248 22.5689 51.4264 22.2614C51.028 21.9539 50.5391 21.7867 50.0358 21.7857H31.9797C31.4758 21.7864 30.9862 21.9535 30.587 22.2609C30.1878 22.5684 29.9013 22.9991 29.772 23.4861L27.8931 30.64C27.8016 30.977 27.7889 31.3306 27.8559 31.6733C27.9228 32.0161 28.0677 32.3388 28.2792 32.6167C28.4908 32.8945 28.7634 33.12 29.076 33.2757C29.3886 33.4314 29.7328 33.5132 30.082 33.5147Z" fill="#F5F5F5"/>
<path d="M193.287 56.193C195.892 56.193 198.39 55.1582 200.232 53.3162C202.074 51.4743 203.109 48.976 203.109 46.3711C203.109 43.7662 202.074 41.2679 200.232 39.426C198.39 37.584 195.892 36.5492 193.287 36.5492H192.08V56.193H193.287Z" fill="#E0E0E0"/>
<path d="M192.08 56.193C197.504 56.193 201.902 51.7956 201.902 46.3711C201.902 40.9466 197.504 36.5492 192.08 36.5492C186.655 36.5492 182.258 40.9466 182.258 46.3711C182.258 51.7956 186.655 56.193 192.08 56.193Z" fill="#F5F5F5"/>
<path d="M191.629 47.6017C188.141 47.6017 184.796 46.216 182.329 43.7495C179.862 41.283 178.477 37.9377 178.477 34.4495V26.6004C178.477 26.2728 178.607 25.9585 178.839 25.7269C179.07 25.4952 179.385 25.365 179.712 25.365C180.04 25.365 180.354 25.4952 180.586 25.7269C180.817 25.9585 180.948 26.2728 180.948 26.6004V34.4542C180.95 37.2855 182.076 40.0002 184.077 42.0027C186.079 44.0052 188.793 45.1319 191.624 45.1357C191.793 45.1253 191.961 45.1495 192.12 45.2067C192.279 45.264 192.424 45.3531 192.547 45.4686C192.67 45.5842 192.767 45.7236 192.834 45.8784C192.901 46.0332 192.936 46.2001 192.936 46.3687C192.936 46.5373 192.901 46.7042 192.834 46.859C192.767 47.0138 192.67 47.1532 192.547 47.2688C192.424 47.3843 192.279 47.4734 192.12 47.5307C191.961 47.5879 191.793 47.6121 191.624 47.6017H191.629Z" fill="#E0E0E0"/>
<path d="M168.791 33.5147H190.643C190.992 33.5148 191.337 33.4346 191.651 33.2804C191.964 33.1261 192.238 32.902 192.451 32.6252C192.665 32.3483 192.812 32.0262 192.881 31.6837C192.95 31.3411 192.94 30.9873 192.85 30.6494L190.972 23.4955C190.843 23.0089 190.557 22.5783 190.159 22.2708C189.761 21.9633 189.272 21.7961 188.769 21.7951H170.689C170.185 21.7958 169.695 21.9629 169.296 22.2703C168.897 22.5778 168.61 23.0085 168.481 23.4955L166.602 30.6494C166.513 30.9858 166.501 31.3383 166.569 31.6799C166.637 32.0214 166.782 32.3429 166.993 32.6196C167.204 32.8962 167.476 33.1208 167.788 33.276C168.1 33.4312 168.443 33.5128 168.791 33.5147Z" fill="#F5F5F5"/>
<path d="M63.5027 122.532H70.6472V94.8511H63.5027V122.532Z" fill="#E6E6E6"/>
<path d="M44.1361 122.527H67.843L71.4223 90.1304H47.7154L44.1361 122.527Z" fill="#F0F0F0"/>
<path d="M41.5667 122.527H66.058L69.6373 90.1304H45.1506L41.5667 122.527Z" fill="#F5F5F5"/>
<path d="M64.2871 119.977L67.3027 92.6858H46.9167L43.9011 119.977H64.2871Z" fill="white"/>
<path d="M60.0785 113.358L60.2241 112.264C60.9804 105.415 56.7059 99.3135 51.1538 99.3135L51.0269 100.427C50.2707 107.271 54.5452 113.372 60.102 113.372L60.0785 113.358Z" fill="#F5F5F5"/>
<path d="M28.3251 153.787H49.3875L49.3875 122.527H28.3251L28.3251 153.787Z" fill="#E6E6E6"/>
<path d="M30.4389 153.787H28.3204V147.761H32.6607L30.4389 153.787Z" fill="#F0F0F0"/>
<path d="M87.3553 153.787H108.418V122.527H87.3553V153.787Z" fill="#E6E6E6"/>
<path d="M28.3205 150.091H89.2013V122.532H28.3205V150.091Z" fill="#F0F0F0"/>
<path d="M87.0828 153.787H89.2013V147.761H84.8611L87.0828 153.787Z" fill="#F0F0F0"/>
<path d="M29.9645 135.374H87.5573V124.251H29.9645V135.374Z" fill="#E6E6E6"/>
<path d="M54.9208 131.522H62.6008C64.252 131.523 65.886 131.187 67.4028 130.534C68.9196 129.882 70.2873 128.926 71.4222 127.727H46.0994C47.2348 128.926 48.6026 129.881 50.1193 130.533C51.636 131.186 53.2697 131.522 54.9208 131.522Z" fill="#F0F0F0"/>
<path d="M29.9645 148.292H87.5573V137.169H29.9645V148.292Z" fill="#E6E6E6"/>
<path d="M54.9208 144.421H62.6008C64.252 144.422 65.886 144.085 67.4028 143.433C68.9196 142.78 70.2873 141.825 71.4222 140.626H46.0994C47.2348 141.824 48.6026 142.779 50.1193 143.432C51.636 144.084 53.2697 144.421 54.9208 144.421Z" fill="#F0F0F0"/>
<path d="M85.3448 121.254H85.8897C85.8897 120.132 85.8897 117.29 85.9461 110.775C86.0447 98.9612 86.2326 98.2425 86.2326 98.2425L84.9362 103.696C84.1142 109.732 85.1757 115.801 85.3448 121.254Z" fill="#E6E6E6"/>
<path d="M84.2691 102.869C82.3902 100.648 78.4211 99.9994 74.3439 99.4451C72.7421 99.229 78.5479 102.888 81.3897 105.486C83.5974 107.506 85.0066 108.065 85.6172 110.075C85.9273 107.567 85.8756 104.8 84.2691 102.869Z" fill="#E6E6E6"/>
<path d="M86.7446 106.853C88.6235 104.631 92.5926 103.987 96.6698 103.433C98.2716 103.217 92.4423 106.876 89.624 109.474C87.4163 111.493 86.0071 112.052 85.3965 114.063C85.0865 111.555 85.1193 108.769 86.7446 106.853Z" fill="#E6E6E6"/>
<path d="M85.9461 97.7023C87.3553 95.0437 90.8594 92.5354 94.8098 91.5959C96.3599 91.2248 91.2164 96.4998 89.2624 99.9053C87.7452 102.545 85.7348 105.655 85.42 107.891C84.9503 103.485 84.5463 100.375 85.9461 97.7023Z" fill="#E6E6E6"/>
<path d="M85.777 122.527C84.1142 122.527 82.7379 121.696 82.6392 120.625L82.3621 118.802H89.1966L88.9147 120.625C88.8208 121.696 87.468 122.527 85.777 122.527Z" fill="#F0F0F0"/>
<path d="M89.6382 119.502H81.9206L81.6999 117.468H89.8589L89.6382 119.502Z" fill="#F0F0F0"/>
<path d="M80.206 80.6608L155.46 80.6608V12.0202L80.206 12.0202L80.206 80.6608Z" fill="#E6E6E6"/>
<path d="M78.515 80.6608L154.723 80.6608V12.0202L78.515 12.0202L78.515 80.6608Z" fill="#F5F5F5"/>
<path d="M151.679 77.5888V15.0969L81.5494 15.0969V77.5888H151.679Z" fill="#FAFAFA"/>
<path d="M143.078 77.5888L115.478 15.0969H106.102L133.703 77.5888H143.078Z" fill="white"/>
<path d="M131.044 77.5888L103.443 15.0969H96.9893L124.59 77.5888H131.044Z" fill="white"/>
<path d="M107.591 77.5841V15.0922H103.965V77.5841H107.591Z" fill="#E6E6E6"/>
<path d="M131.697 77.5841V15.0922H128.071V77.5841H131.697Z" fill="#E6E6E6"/>
<path d="M106.938 79.5381V12.8093H102.353V79.5381H106.938Z" fill="#F5F5F5"/>
<path d="M131.044 79.5381V12.8093H126.46V79.5381H131.044Z" fill="#F5F5F5"/>
<path d="M81.8783 77.5888V15.0969H81.5542V77.5888H81.8783Z" fill="#E6E6E6"/>
<path d="M77.2375 8.06512H158.763C158.867 8.06634 158.967 8.10831 159.04 8.18204C159.114 8.25577 159.156 8.35543 159.157 8.45969C159.156 8.56352 159.114 8.66268 159.04 8.73566C158.966 8.80865 158.866 8.84957 158.763 8.84956H77.2375C77.1337 8.84957 77.034 8.80865 76.9601 8.73566C76.8863 8.66268 76.8442 8.56352 76.8429 8.45969C76.8441 8.35543 76.8861 8.25577 76.9598 8.18204C77.0336 8.10831 77.1332 8.06634 77.2375 8.06512Z" fill="#E6E6E6"/>
<path d="M155.46 10.6534C155.6 10.6521 155.734 10.5956 155.833 10.4962C155.931 10.3968 155.986 10.2625 155.986 10.1226V8.98583C155.987 8.91635 155.974 8.84744 155.948 8.78307C155.922 8.7187 155.883 8.66014 155.834 8.61079C155.785 8.56144 155.727 8.52227 155.663 8.49554C155.599 8.46881 155.53 8.45504 155.46 8.45505C155.32 8.45504 155.186 8.51032 155.087 8.60885C154.987 8.70737 154.931 8.84118 154.93 8.98114V10.1179C154.93 10.2591 154.985 10.3946 155.085 10.4949C155.184 10.5952 155.319 10.6521 155.46 10.6534Z" fill="#E6E6E6"/>
<path d="M83.1465 10.6534C83.2869 10.6521 83.4212 10.5958 83.5205 10.4965C83.6198 10.3973 83.6761 10.263 83.6773 10.1226V8.98583C83.6773 8.84506 83.6214 8.71005 83.5219 8.61051C83.4223 8.51097 83.2873 8.45505 83.1465 8.45505C83.007 8.45505 82.8732 8.51048 82.7745 8.60914C82.6759 8.7078 82.6204 8.84161 82.6204 8.98114V10.1179C82.6198 10.1876 82.6329 10.2567 82.659 10.3213C82.6852 10.386 82.7237 10.4448 82.7726 10.4946C82.8214 10.5443 82.8796 10.5839 82.9438 10.6112C83.0079 10.6384 83.0768 10.6527 83.1465 10.6534Z" fill="#E6E6E6"/>
<path opacity="0.6" d="M77.3596 62.2102L153.516 62.2102V8.45506L77.3596 8.45506V62.2102Z" fill="#E0E0E0"/>
<path d="M160.411 96.2791H147.278C145.882 96.2791 144.751 97.4105 144.751 98.8062V104.884C144.751 106.28 145.882 107.411 147.278 107.411H160.411C161.807 107.411 162.938 106.28 162.938 104.884V98.8062C162.938 97.4105 161.807 96.2791 160.411 96.2791Z" fill="#FAFAFA"/>
<path d="M162.088 94.2217H145.601C145.131 94.2217 144.751 94.6024 144.751 95.0719V95.7577C144.751 96.2273 145.131 96.6079 145.601 96.6079H162.088C162.558 96.6079 162.938 96.2273 162.938 95.7577V95.0719C162.938 94.6024 162.558 94.2217 162.088 94.2217Z" fill="#E6E6E6"/>
<path d="M145.018 119.779C145.018 119.779 145.258 127.61 154.38 127.61C163.502 127.61 163.742 119.779 163.742 119.779H145.018Z" fill="#F0F0F0"/>
<path d="M165.818 119.779C165.818 119.779 166.057 127.61 175.179 127.61C184.301 127.61 184.541 119.779 184.541 119.779H165.818Z" fill="#F0F0F0"/>
<path d="M180.022 91.239H161.985C160.065 91.239 158.509 92.7952 158.509 94.7149V103.94C158.509 105.86 160.065 107.416 161.985 107.416H180.022C181.942 107.416 183.498 105.86 183.498 103.94V94.7149C183.498 92.7952 181.942 91.239 180.022 91.239Z" fill="#F0F0F0"/>
<path d="M182.333 88.4113H159.674C159.03 88.4113 158.509 88.9329 158.509 89.5762V90.5251C158.509 91.1684 159.03 91.69 159.674 91.69H182.333C182.977 91.69 183.498 91.1684 183.498 90.5251V89.5762C183.498 88.9329 182.977 88.4113 182.333 88.4113Z" fill="#F5F5F5"/>
<path d="M138.146 153.787H140.514V114.969H138.146V153.787Z" fill="#E6E6E6"/>
<path d="M206.505 107.412H193.686V114.965H206.505V107.412Z" fill="#E6E6E6"/>
<path d="M129.95 114.969L193.682 114.969V107.416L129.95 107.416V114.969Z" fill="#F5F5F5"/>
<path d="M206.505 127.586H193.686V135.139H206.505V127.586Z" fill="#E6E6E6"/>
<path d="M129.95 135.139H193.682V127.586L129.95 127.586V135.139Z" fill="#F5F5F5"/>
<path d="M201.878 153.787H204.246V114.969H201.878V153.787Z" fill="#E6E6E6"/>
<path d="M191.319 153.787H193.686V114.969H191.319V153.787Z" fill="#F5F5F5"/>
<path d="M129.95 153.787H132.317V114.969H129.95V153.787Z" fill="#F5F5F5"/>
<path d="M118 175C168.299 175 209.075 172.619 209.075 169.683C209.075 166.746 168.299 164.365 118 164.365C67.7008 164.365 26.9254 166.746 26.9254 169.683C26.9254 172.619 67.7008 175 118 175Z" fill="#F5F5F5"/>
<path d="M122.89 145.849H62.9673C62.0037 145.835 61.0809 145.458 60.3839 144.792C59.687 144.127 59.2675 143.222 59.2095 142.26L53.8358 38.1931C53.8061 37.7302 53.8722 37.2662 54.0301 36.83C54.1881 36.3939 54.4344 35.9951 54.7537 35.6586C55.073 35.3221 55.4583 35.0552 55.8856 34.8746C56.3129 34.694 56.7728 34.6036 57.2366 34.6091H117.159C118.122 34.6216 119.045 34.9981 119.742 35.6629C120.439 36.3277 120.859 37.2316 120.917 38.1931L126.281 142.26C126.311 142.723 126.245 143.186 126.088 143.622C125.93 144.058 125.685 144.456 125.367 144.793C125.049 145.13 124.664 145.397 124.238 145.579C123.812 145.761 123.353 145.852 122.89 145.849Z" fill="#5881B9"/>
<path opacity="0.8" d="M122.89 145.849H62.9673C62.0037 145.835 61.0809 145.458 60.3839 144.792C59.687 144.127 59.2675 143.222 59.2095 142.26L53.8358 38.1931C53.8061 37.7302 53.8722 37.2662 54.0301 36.83C54.1881 36.3939 54.4344 35.9951 54.7537 35.6586C55.073 35.3221 55.4583 35.0552 55.8856 34.8746C56.3129 34.694 56.7728 34.6036 57.2366 34.6091H117.159C118.122 34.6216 119.045 34.9981 119.742 35.6629C120.439 36.3277 120.859 37.2316 120.917 38.1931L126.281 142.26C126.311 142.723 126.245 143.186 126.088 143.622C125.93 144.058 125.685 144.456 125.367 144.793C125.049 145.13 124.664 145.397 124.238 145.579C123.812 145.761 123.353 145.852 122.89 145.849Z" fill="white"/>
<path d="M111.245 31.2177H104.618V31.6874H111.245V31.2177Z" fill="#5881B9"/>
<path d="M102.321 31.2177H99.8922V31.6874H102.321V31.2177Z" fill="#5881B9"/>
<path d="M125.469 139.245H68.1623C67.2395 139.236 66.3543 138.878 65.685 138.242C65.0156 137.607 64.6118 136.742 64.5548 135.82L59.4255 36.2861C59.397 35.8431 59.4603 35.399 59.6115 34.9816C59.7627 34.5642 59.9985 34.1826 60.3042 33.8607C60.6098 33.5387 60.9786 33.2834 61.3876 33.1107C61.7965 32.938 62.2368 32.8517 62.6807 32.8571H119.987C120.91 32.8673 121.794 33.2267 122.463 33.8629C123.131 34.4991 123.534 35.365 123.59 36.2861L128.719 135.82C128.748 136.263 128.684 136.706 128.533 137.123C128.382 137.54 128.147 137.921 127.842 138.243C127.537 138.564 127.168 138.819 126.76 138.991C126.351 139.164 125.912 139.25 125.469 139.245Z" fill="#5881B9"/>
<path d="M125.469 136.957H68.1623C67.8263 136.946 67.5061 136.811 67.2628 136.579C67.0195 136.347 66.8699 136.033 66.8424 135.698L61.7083 36.1687C61.6967 36.0363 61.7133 35.9029 61.757 35.7774C61.8008 35.6519 61.8706 35.5371 61.962 35.4406C62.0536 35.3443 62.1647 35.2686 62.2877 35.2184C62.4108 35.1682 62.5431 35.1446 62.676 35.1494H119.982C120.317 35.162 120.636 35.2971 120.879 35.5291C121.121 35.7611 121.27 36.0738 121.297 36.4082L126.455 135.938C126.466 136.07 126.45 136.203 126.406 136.328C126.362 136.453 126.293 136.567 126.202 136.663C126.111 136.759 126.001 136.835 125.878 136.886C125.756 136.937 125.624 136.961 125.492 136.957H125.469ZM62.676 35.2668C62.5592 35.263 62.4429 35.2836 62.3345 35.3273C62.2262 35.371 62.1281 35.4368 62.0465 35.5204C61.9681 35.6072 61.9081 35.709 61.8702 35.8196C61.8322 35.9302 61.8171 36.0474 61.8258 36.164L66.9551 135.694C66.9813 135.998 67.118 136.283 67.3394 136.494C67.5609 136.705 67.8519 136.828 68.1576 136.84H125.464C125.58 136.844 125.696 136.824 125.804 136.78C125.911 136.737 126.008 136.67 126.089 136.586C126.169 136.501 126.23 136.399 126.268 136.288C126.306 136.177 126.32 136.059 126.309 135.943L121.185 36.4129C121.16 36.1085 121.024 35.8238 120.803 35.6126C120.583 35.4014 120.292 35.2784 119.987 35.2668H62.676Z" fill="white"/>
<path opacity="0.3" d="M105.424 71.424C111.942 64.7355 111.518 53.7507 104.476 46.8887C97.4345 40.0268 86.4424 39.8862 79.9245 46.5747C73.4065 53.2632 73.831 64.248 80.8725 71.11C87.914 77.9719 98.9061 78.1125 105.424 71.424Z" fill="white"/>
<path d="M106.727 59.0019C106.858 61.3102 106.394 63.6135 105.379 65.6907C104.279 67.9187 102.573 69.7908 100.457 71.0914C98.3399 72.392 95.8988 73.0681 93.4147 73.0419C90.8402 73.0187 88.3157 72.3295 86.0866 71.0413C83.8576 69.7531 82 67.9098 80.6946 65.6907C79.478 63.6615 78.778 61.3647 78.656 59.0019C78.5401 57.1898 78.7996 55.3733 79.418 53.6661C80.0365 51.9589 81.0007 50.3978 82.2502 49.0803C83.4998 47.7629 85.0078 46.7175 86.6799 46.0097C88.352 45.3018 90.1522 44.9467 91.9679 44.9665C95.7469 45.0059 99.3705 46.4758 102.109 49.0801C104.848 51.6844 106.498 55.2297 106.727 59.0019Z" fill="white"/>
<path d="M105.364 65.6907C104.265 67.9187 102.559 69.7908 100.442 71.0914C98.3258 72.392 95.8847 73.0681 93.4006 73.0418C90.8261 73.0187 88.3016 72.3294 86.0725 71.0412C83.8435 69.753 81.9859 67.9097 80.6805 65.6907C84.25 63.2255 88.4895 61.914 92.8275 61.9329C97.2815 61.9497 101.636 63.2547 105.364 65.6907Z" fill="#5881B9"/>
<path d="M97.0255 58.6755C99.3738 56.2658 99.2201 52.3074 96.6822 49.8342C94.1442 47.361 90.1832 47.3096 87.8349 49.7193C85.4867 52.129 85.6404 56.0874 88.1783 58.5606C90.7162 61.0338 94.6773 61.0852 97.0255 58.6755Z" fill="#5881B9"/>
<path d="M117.253 100.521H72.3804C71.9896 100.517 71.6148 100.365 71.3315 100.095C71.0483 99.826 70.8776 99.4593 70.8538 99.0692L70.5156 92.4931C70.504 92.306 70.5311 92.1186 70.5952 91.9424C70.6593 91.7663 70.7591 91.6053 70.8882 91.4695C71.0174 91.3337 71.1732 91.2261 71.3459 91.1533C71.5186 91.0804 71.7045 91.044 71.8919 91.0463H116.765C117.155 91.0503 117.529 91.2016 117.812 91.4699C118.095 91.7383 118.266 92.1038 118.291 92.4931L118.629 99.0692C118.642 99.2566 118.615 99.4446 118.551 99.6213C118.487 99.798 118.388 99.9595 118.259 100.096C118.129 100.232 117.973 100.34 117.8 100.413C117.627 100.486 117.441 100.523 117.253 100.521Z" fill="white"/>
<path opacity="0.3" d="M103.514 87.4155H84.7717C84.3793 87.4125 84.0027 87.2604 83.7183 86.99C83.4339 86.7196 83.2631 86.3511 83.2404 85.9593L83.17 84.5502C83.1576 84.3627 83.1842 84.1747 83.248 83.9981C83.3118 83.8214 83.4115 83.6598 83.5407 83.5235C83.67 83.3872 83.826 83.2791 83.9991 83.206C84.1721 83.1329 84.3584 83.0964 84.5462 83.0987H103.283C103.674 83.1027 104.049 83.2547 104.332 83.524C104.616 83.7934 104.786 84.16 104.81 84.5502L104.885 85.9593C104.897 86.1464 104.87 86.3339 104.806 86.5102C104.742 86.6865 104.643 86.8479 104.515 86.9843C104.386 87.1208 104.231 87.2294 104.059 87.3036C103.887 87.3777 103.701 87.4158 103.514 87.4155Z" fill="black"/>
<path opacity="0.3" d="M110.484 132.138H82.4091C81.7443 132.13 81.1072 131.87 80.6254 131.412C80.1437 130.954 79.853 130.331 79.8115 129.667L79.6471 126.426C79.6305 126.107 79.679 125.789 79.7896 125.49C79.9002 125.19 80.0705 124.917 80.2903 124.686C80.5101 124.454 80.7746 124.27 81.0678 124.145C81.361 124.019 81.6768 123.955 81.9957 123.955H110.062C110.727 123.963 111.364 124.223 111.845 124.681C112.327 125.139 112.618 125.762 112.659 126.426L112.824 129.667C112.84 129.985 112.792 130.303 112.682 130.601C112.572 130.9 112.402 131.173 112.184 131.404C111.965 131.635 111.702 131.819 111.409 131.945C111.117 132.071 110.803 132.137 110.484 132.138Z" fill="black"/>
<path d="M118.075 116.426H73.1977C72.8072 116.42 72.4331 116.268 72.15 115.999C71.867 115.73 71.696 115.364 71.6711 114.974L71.3329 108.398C71.3213 108.211 71.3484 108.023 71.4125 107.847C71.4765 107.67 71.5762 107.509 71.7053 107.373C71.8344 107.237 71.9902 107.129 72.1629 107.055C72.3356 106.982 72.5216 106.945 72.7092 106.947H117.582C117.973 106.951 118.348 107.103 118.631 107.372C118.914 107.641 119.085 108.008 119.108 108.398L119.451 114.974C119.462 115.161 119.435 115.349 119.37 115.525C119.306 115.701 119.206 115.862 119.077 115.998C118.948 116.134 118.793 116.242 118.621 116.315C118.448 116.389 118.263 116.427 118.075 116.426Z" fill="white"/>
<path d="M78.0735 95.7812C78.0864 95.9888 78.0564 96.1968 77.9853 96.3923C77.9142 96.5877 77.8036 96.7664 77.6603 96.9172C77.5171 97.0679 77.3442 97.1875 77.1527 97.2685C76.9611 97.3495 76.7549 97.39 76.5469 97.3877C76.1149 97.3825 75.7008 97.214 75.3879 96.916C75.0751 96.6179 74.8867 96.2125 74.8606 95.7812C74.847 95.5739 74.8764 95.366 74.9469 95.1705C75.0175 94.9751 75.1277 94.7963 75.2706 94.6455C75.4135 94.4947 75.586 94.375 75.7774 94.294C75.9687 94.213 76.1747 94.1724 76.3825 94.1748C76.815 94.1798 77.2297 94.3482 77.5433 94.6461C77.8569 94.9441 78.0463 95.3495 78.0735 95.7812Z" fill="#263238"/>
<path d="M83.0197 95.7812C83.0333 95.9886 83.0039 96.1965 82.9334 96.3919C82.8628 96.5874 82.7527 96.7661 82.6098 96.917C82.4669 97.0678 82.2943 97.1875 82.103 97.2685C81.9116 97.3495 81.7056 97.3901 81.4978 97.3877C81.0654 97.3836 80.6507 97.2155 80.3377 96.9172C80.0246 96.619 79.8365 96.2129 79.8115 95.7812C79.7979 95.5739 79.8273 95.366 79.8979 95.1705C79.9684 94.9751 80.0786 94.7963 80.2215 94.6455C80.3644 94.4947 80.5369 94.375 80.7283 94.294C80.9196 94.213 81.1257 94.1724 81.3334 94.1748C81.7658 94.1788 82.1805 94.347 82.4936 94.6452C82.8067 94.9435 82.9947 95.3496 83.0197 95.7812Z" fill="#263238"/>
<path d="M87.9378 95.7812C87.9514 95.9886 87.922 96.1965 87.8514 96.3919C87.7809 96.5874 87.6707 96.7661 87.5278 96.917C87.3849 97.0678 87.2123 97.1875 87.021 97.2685C86.8296 97.3495 86.6236 97.3901 86.4158 97.3877C85.9833 97.3826 85.5687 97.2142 85.2551 96.9163C84.9415 96.6184 84.7521 96.2129 84.7249 95.7812C84.7119 95.5737 84.7419 95.3656 84.813 95.1702C84.8841 94.9747 84.9948 94.796 85.138 94.6453C85.2813 94.4945 85.4541 94.3749 85.6457 94.294C85.8373 94.213 86.0435 94.1724 86.2515 94.1748C86.6835 94.1799 87.0976 94.3485 87.4104 94.6465C87.7233 94.9445 87.9117 95.3499 87.9378 95.7812Z" fill="#263238"/>
<path d="M92.8932 95.7812C92.9061 95.9884 92.8762 96.196 92.8054 96.3911C92.7346 96.5862 92.6244 96.7647 92.4817 96.9154C92.3389 97.0661 92.1666 97.1858 91.9756 97.267C91.7846 97.3483 91.5789 97.3893 91.3713 97.3876C90.9388 97.3826 90.5242 97.2142 90.2106 96.9163C89.8969 96.6183 89.7076 96.2129 89.6803 95.7812C89.6674 95.574 89.6973 95.3664 89.7681 95.1713C89.8389 94.9761 89.9491 94.7977 90.0919 94.647C90.2347 94.4963 90.4069 94.3766 90.5979 94.2953C90.7889 94.2141 90.9946 94.173 91.2022 94.1747C91.6348 94.1798 92.0494 94.3482 92.363 94.6461C92.6766 94.944 92.866 95.3495 92.8932 95.7812Z" fill="#263238"/>
<path d="M78.9049 111.677C78.9185 111.884 78.8891 112.092 78.8186 112.287C78.748 112.483 78.6379 112.662 78.4949 112.812C78.352 112.963 78.1795 113.083 77.9882 113.164C77.7968 113.245 77.5908 113.285 77.383 113.283C76.9505 113.278 76.5359 113.11 76.2223 112.812C75.9086 112.514 75.7192 112.108 75.692 111.677C75.6791 111.469 75.7091 111.261 75.7802 111.066C75.8513 110.87 75.9619 110.691 76.1052 110.541C76.2485 110.39 76.4213 110.27 76.6129 110.189C76.8044 110.108 77.0106 110.068 77.2186 110.07C77.6507 110.075 78.0647 110.244 78.3776 110.542C78.6904 110.84 78.8788 111.245 78.9049 111.677Z" fill="#263238"/>
<path d="M83.8418 111.677C83.8547 111.884 83.8248 112.091 83.754 112.287C83.6832 112.482 83.5729 112.66 83.4302 112.811C83.2874 112.962 83.1152 113.081 82.9241 113.162C82.7331 113.244 82.5274 113.285 82.3198 113.283C81.8873 113.278 81.4727 113.11 81.1591 112.812C80.8455 112.514 80.6561 112.108 80.6288 111.677C80.6152 111.469 80.6446 111.261 80.7152 111.066C80.7857 110.871 80.8959 110.692 81.0388 110.541C81.1817 110.39 81.3543 110.27 81.5456 110.189C81.737 110.108 81.943 110.068 82.1507 110.07C82.5833 110.075 82.9979 110.244 83.3115 110.542C83.6251 110.839 83.8145 111.245 83.8418 111.677Z" fill="#263238"/>
<path d="M88.7786 111.677C88.7915 111.884 88.7615 112.092 88.6904 112.288C88.6193 112.483 88.5087 112.662 88.3654 112.813C88.2221 112.963 88.0493 113.083 87.8577 113.164C87.6662 113.245 87.4599 113.285 87.252 113.283C86.8196 113.279 86.4049 113.111 86.0918 112.813C85.7787 112.514 85.5907 112.108 85.5657 111.677C85.5521 111.469 85.5815 111.261 85.652 111.066C85.7226 110.871 85.8327 110.692 85.9757 110.541C86.1186 110.39 86.2911 110.27 86.4824 110.189C86.6738 110.108 86.8798 110.068 87.0876 110.07C87.5201 110.075 87.9347 110.244 88.2483 110.542C88.562 110.839 88.7514 111.245 88.7786 111.677Z" fill="#263238"/>
<path d="M93.7106 111.677C93.7242 111.884 93.6948 112.092 93.6242 112.287C93.5537 112.483 93.4435 112.662 93.3006 112.812C93.1577 112.963 92.9851 113.083 92.7938 113.164C92.6024 113.245 92.3964 113.285 92.1887 113.283C91.7561 113.278 91.3415 113.11 91.0279 112.812C90.7143 112.514 90.5249 112.108 90.4976 111.677C90.4847 111.469 90.5147 111.261 90.5858 111.066C90.6569 110.87 90.7676 110.691 90.9108 110.541C91.0541 110.39 91.2269 110.27 91.4185 110.189C91.6101 110.108 91.8163 110.068 92.0242 110.07C92.4566 110.074 92.8713 110.242 93.1844 110.541C93.4975 110.839 93.6856 111.245 93.7106 111.677Z" fill="#263238"/>
<path d="M98.6474 111.677C98.661 111.884 98.6316 112.092 98.561 112.287C98.4905 112.483 98.3803 112.661 98.2374 112.812C98.0945 112.963 97.922 113.083 97.7306 113.164C97.5393 113.245 97.3332 113.285 97.1255 113.283C96.6929 113.278 96.2783 113.11 95.9647 112.812C95.6511 112.514 95.4617 112.108 95.4345 111.677C95.4216 111.469 95.4515 111.262 95.5223 111.067C95.5931 110.872 95.7033 110.693 95.846 110.542C95.9888 110.392 96.1611 110.272 96.3521 110.191C96.5431 110.11 96.7488 110.068 96.9564 110.07C97.3889 110.075 97.8035 110.244 98.1171 110.542C98.4307 110.839 98.6201 111.245 98.6474 111.677Z" fill="#263238"/>
<path d="M103.584 111.677C103.597 111.884 103.567 112.092 103.496 112.288C103.425 112.483 103.314 112.662 103.171 112.813C103.028 112.963 102.855 113.083 102.663 113.164C102.472 113.245 102.266 113.285 102.058 113.283C101.626 113.278 101.212 113.109 100.899 112.811C100.586 112.513 100.397 112.108 100.371 111.677C100.358 111.469 100.387 111.261 100.458 111.066C100.528 110.871 100.638 110.692 100.781 110.541C100.924 110.39 101.097 110.27 101.288 110.189C101.479 110.108 101.685 110.068 101.893 110.07C102.326 110.075 102.74 110.244 103.054 110.542C103.368 110.839 103.557 111.245 103.584 111.677Z" fill="#263238"/>
<path d="M169.364 74.0095L170.214 76.6446L173.333 73.7887C172.686 73.3574 172.015 72.9637 171.322 72.6097C171.072 72.4768 170.779 72.4486 170.508 72.5314C170.236 72.6142 170.009 72.8011 169.876 73.0513L169.364 74.0095Z" fill="#E4897B"/>
<path d="M173.309 78.8148L174.652 75.6771L173.332 73.7888L170.214 76.6447L173.309 78.8148Z" fill="#E4897B"/>
<path d="M139.578 54.6476C137.977 56.8036 136.318 58.8281 134.548 60.8244C132.771 62.8492 130.873 64.7644 128.864 66.5597L128.751 66.6584L128.526 66.8416C128.376 66.9588 128.219 67.067 128.056 67.1657C127.724 67.3456 127.371 67.4814 127.004 67.5697C126.403 67.7105 125.78 67.7297 125.172 67.626C124.295 67.4688 123.45 67.1705 122.668 66.7429C121.402 66.0409 120.214 65.2047 119.127 64.2487C117.084 62.4696 115.219 60.4952 113.56 58.3537L115.439 56.5734C117.393 58.1658 119.441 59.7535 121.489 61.1016C122.449 61.7534 123.468 62.3133 124.533 62.7738C124.912 62.9443 125.317 63.0491 125.731 63.0838C125.848 63.0838 125.905 63.0603 125.834 63.0603C125.783 63.0642 125.734 63.0786 125.689 63.1026C125.658 63.1144 125.63 63.1302 125.604 63.1496L125.567 63.173L125.628 63.1073C126.487 62.2336 127.319 61.2942 128.155 60.3547C128.991 59.4153 129.799 58.4288 130.611 57.4518C132.227 55.4884 133.848 53.4686 135.403 51.4957L139.578 54.6476Z" fill="#E4897B"/>
<path d="M113.659 52.4774L110 53.2243L111.799 56.4278L115.054 53.9054L113.659 52.4774Z" fill="#E4897B"/>
<path d="M115.514 57.2404L115.045 53.9054L111.79 56.4278C111.79 56.4278 112.292 59.3307 114.608 59.3307L115.514 57.2404Z" fill="#E4897B"/>
<path d="M115.759 56.5734C115.666 56.5746 115.577 56.6121 115.511 56.6779C115.445 56.7437 115.408 56.8326 115.406 56.9257C115.404 56.9523 115.404 56.979 115.406 57.0056C115.358 56.981 115.305 56.9681 115.251 56.968C115.158 56.968 115.068 57.0051 115.002 57.0712C114.936 57.1372 114.899 57.2268 114.899 57.3203C114.902 57.3541 114.91 57.3872 114.922 57.4189H114.899C114.806 57.4201 114.717 57.4576 114.651 57.5234C114.585 57.5892 114.548 57.6781 114.547 57.7712C114.549 57.8464 114.575 57.9189 114.622 57.9779C114.528 57.9779 114.439 58.015 114.373 58.0811C114.307 58.1471 114.27 58.2367 114.27 58.3302C114.272 58.4067 114.298 58.4805 114.345 58.5416C114.266 58.5567 114.195 58.5987 114.143 58.6603C114.092 58.722 114.064 58.7995 114.063 58.8798C114.065 58.934 114.078 58.9871 114.104 59.0351C114.129 59.0832 114.165 59.1248 114.209 59.1569C114.14 59.1804 114.081 59.2247 114.038 59.2837C113.996 59.3426 113.974 59.4132 113.974 59.4857C113.974 59.5791 114.011 59.6687 114.077 59.7348C114.143 59.8009 114.233 59.838 114.326 59.838C114.419 59.838 114.509 59.8009 114.575 59.7348C114.641 59.6687 114.678 59.5791 114.678 59.4857C114.679 59.4316 114.666 59.3782 114.642 59.33C114.617 59.2817 114.581 59.2401 114.537 59.2086C114.605 59.1837 114.663 59.1389 114.704 59.0801C114.745 59.0214 114.767 58.9515 114.767 58.8798C114.765 58.8032 114.739 58.7294 114.692 58.6684C114.771 58.6532 114.842 58.6112 114.894 58.5496C114.945 58.4879 114.973 58.4104 114.974 58.3302C114.971 58.2551 114.945 58.1828 114.899 58.1235C114.945 58.1241 114.992 58.1154 115.035 58.098C115.078 58.0805 115.117 58.0546 115.15 58.0217C115.182 57.9889 115.208 57.9498 115.226 57.9068C115.243 57.8637 115.252 57.8176 115.251 57.7712C115.256 57.7385 115.256 57.7053 115.251 57.6726C115.345 57.6726 115.434 57.6354 115.5 57.5694C115.566 57.5033 115.604 57.4137 115.604 57.3203C115.606 57.2937 115.606 57.267 115.604 57.2404C115.65 57.2644 115.702 57.2773 115.754 57.278C115.847 57.278 115.937 57.2409 116.003 57.1748C116.069 57.1087 116.106 57.0191 116.106 56.9257C116.106 56.8323 116.069 56.7427 116.003 56.6766C115.937 56.6105 115.847 56.5734 115.754 56.5734H115.759Z" fill="#263238"/>
<path d="M158.701 51.073C159.795 53.0082 160.847 54.9623 161.876 56.9351C162.905 58.908 163.91 60.8855 164.892 62.8818L165.258 63.6287L165.568 64.2393L165.93 64.8734L166.338 65.5263C166.907 66.3953 167.513 67.2878 168.142 68.1709L171.97 73.5351L170.092 75.3201C168.328 73.8932 166.65 72.364 165.066 70.7403C164.272 69.923 163.487 69.0821 162.717 68.1662L162.158 67.4663L161.622 66.7007C161.449 66.4282 161.247 66.1182 161.096 65.8692L160.669 65.1553C159.523 63.2764 158.41 61.3364 157.31 59.4106C156.211 57.4847 155.145 55.54 154.116 53.5766L158.701 51.073Z" fill="#E4897B"/>
<path d="M140.931 37.7282C140.992 38.0006 140.894 38.2542 140.72 38.3012C140.546 38.3482 140.353 38.1603 140.292 37.8879C140.231 37.6154 140.335 37.3571 140.508 37.3148C140.682 37.2725 140.875 37.4557 140.931 37.7282Z" fill="#263238"/>
<path d="M140.917 38.2495C140.773 39.1659 140.506 40.0586 140.123 40.9035C140.339 40.9903 140.572 41.0282 140.804 41.0144C141.036 41.0006 141.262 40.9354 141.467 40.8236L140.917 38.2495Z" fill="#DE5753"/>
<path d="M140.212 36.07C140.186 36.07 140.16 36.0641 140.137 36.0527C140.113 36.0413 140.092 36.0247 140.076 36.0042C140.064 35.9864 140.055 35.9662 140.05 35.945C140.046 35.9237 140.045 35.9017 140.049 35.8803C140.053 35.8589 140.061 35.8385 140.073 35.8202C140.085 35.802 140.1 35.7863 140.118 35.7741C140.338 35.6373 140.587 35.5556 140.844 35.536C141.102 35.5164 141.361 35.5594 141.598 35.6613C141.638 35.6789 141.669 35.7112 141.686 35.7515C141.703 35.7917 141.703 35.8368 141.687 35.8774C141.679 35.8975 141.667 35.9158 141.652 35.9312C141.636 35.9466 141.618 35.9588 141.598 35.9671C141.578 35.9754 141.556 35.9797 141.535 35.9796C141.513 35.9795 141.491 35.9751 141.471 35.9667C141.285 35.8854 141.082 35.8498 140.88 35.8628C140.677 35.8759 140.48 35.9373 140.306 36.0418C140.279 36.0603 140.246 36.0701 140.212 36.07Z" fill="#263238"/>
<path d="M150.302 38.5924C150.607 41.7677 150.157 44.8397 150.871 47.597C150.871 47.597 150.081 50.157 145.389 50.157C140.222 50.157 143.04 47.597 143.04 47.597C145.859 46.9253 145.891 44.8397 145.478 42.8763L150.302 38.5924Z" fill="#E4897B"/>
<path d="M151.509 48.4754C151.913 47.6675 152.355 46.7374 151.509 46.4462C150.598 46.1268 145.539 45.8027 143.768 46.4039C143.296 46.5301 142.892 46.8351 142.642 47.2543C142.391 47.6734 142.313 48.1737 142.425 48.6492L151.509 48.4754Z" fill="#263238"/>
<path d="M161.566 163.966C161.891 163.89 162.207 163.777 162.506 163.628C162.522 163.621 162.535 163.609 162.544 163.594C162.553 163.578 162.558 163.561 162.557 163.543C162.554 163.526 162.547 163.51 162.537 163.496C162.526 163.482 162.512 163.471 162.496 163.464C162.346 163.412 160.998 162.933 160.617 163.229C160.578 163.262 160.548 163.305 160.53 163.354C160.513 163.403 160.509 163.455 160.519 163.506C160.527 163.594 160.558 163.679 160.607 163.752C160.656 163.826 160.722 163.887 160.801 163.929C161.043 164.032 161.315 164.045 161.566 163.966ZM162.224 163.562C161.627 163.821 161.139 163.9 160.904 163.774C160.851 163.745 160.806 163.703 160.773 163.652C160.74 163.601 160.72 163.543 160.716 163.482C160.716 163.412 160.716 163.384 160.749 163.37C160.937 163.215 161.684 163.384 162.224 163.562Z" fill="#205295"/>
<path d="M162.487 163.637L162.529 163.614C162.541 163.603 162.549 163.588 162.553 163.573C162.557 163.557 162.557 163.54 162.552 163.525C162.552 163.478 162.224 162.435 161.721 162.177C161.662 162.143 161.596 162.122 161.527 162.116C161.459 162.111 161.391 162.12 161.327 162.144C161.261 162.158 161.202 162.194 161.161 162.246C161.119 162.298 161.096 162.363 161.096 162.43C161.096 162.858 162.036 163.511 162.44 163.633L162.487 163.637ZM161.42 162.299C161.496 162.283 161.575 162.297 161.641 162.336C161.969 162.614 162.206 162.984 162.322 163.398C161.881 163.191 161.28 162.679 161.275 162.425C161.275 162.402 161.275 162.35 161.383 162.313L161.42 162.299Z" fill="#205295"/>
<path d="M137.361 166.428C137.694 166.42 138.025 166.375 138.348 166.291C138.364 166.288 138.38 166.279 138.392 166.266C138.403 166.254 138.411 166.238 138.413 166.221C138.417 166.204 138.415 166.186 138.409 166.17C138.402 166.154 138.39 166.141 138.376 166.132C138.24 166.042 137.023 165.296 136.605 165.512C136.558 165.535 136.519 165.571 136.491 165.616C136.464 165.661 136.45 165.713 136.45 165.765C136.441 165.853 136.453 165.941 136.486 166.023C136.519 166.105 136.571 166.178 136.638 166.235C136.85 166.38 137.105 166.448 137.361 166.428ZM138.089 166.164C137.45 166.296 136.957 166.273 136.751 166.099C136.705 166.059 136.67 166.009 136.649 165.952C136.627 165.895 136.62 165.835 136.628 165.775C136.628 165.704 136.661 165.681 136.685 165.671C136.901 165.559 137.596 165.883 138.089 166.164Z" fill="#205295"/>
<path d="M138.329 166.282C138.344 166.286 138.36 166.286 138.376 166.282C138.389 166.272 138.4 166.26 138.408 166.245C138.415 166.23 138.419 166.214 138.418 166.197C138.418 166.15 138.324 165.065 137.883 164.708C137.831 164.663 137.77 164.63 137.705 164.609C137.639 164.589 137.57 164.583 137.502 164.591C137.435 164.592 137.371 164.616 137.32 164.658C137.268 164.701 137.233 164.76 137.22 164.826C137.14 165.248 137.897 166.071 138.287 166.282C138.3 166.287 138.315 166.287 138.329 166.282ZM137.568 164.751C137.643 164.752 137.714 164.781 137.77 164.83C138.035 165.171 138.191 165.584 138.216 166.014C137.831 165.718 137.347 165.075 137.394 164.845C137.394 164.821 137.394 164.769 137.526 164.755H137.568V164.751Z" fill="#205295"/>
<path d="M142.387 166.16H138.935L138.902 158.17H142.35L142.387 166.16Z" fill="#E4897B"/>
<path d="M166.503 162.787L163.125 163.506L160.068 155.986L163.445 155.267L166.503 162.787Z" fill="#E4897B"/>
<path d="M162.82 163.163L166.611 162.355C166.677 162.342 166.745 162.351 166.805 162.382C166.865 162.413 166.912 162.463 166.94 162.524L168.128 165.408C168.156 165.48 168.167 165.557 168.162 165.634C168.156 165.711 168.134 165.786 168.097 165.853C168.06 165.921 168.009 165.979 167.947 166.025C167.885 166.07 167.814 166.102 167.738 166.117C166.409 166.376 165.756 166.437 164.089 166.794C163.06 167.01 160.965 167.569 159.551 167.87C158.137 168.17 157.705 166.799 158.259 166.545C160.763 165.418 161.604 164.422 162.308 163.487C162.434 163.32 162.616 163.205 162.82 163.163Z" fill="#263238"/>
<path d="M138.972 165.761H142.73C142.798 165.758 142.865 165.781 142.917 165.824C142.97 165.867 143.005 165.928 143.017 165.995L143.58 169.063C143.594 169.138 143.59 169.216 143.57 169.29C143.549 169.364 143.513 169.432 143.463 169.491C143.413 169.549 143.351 169.595 143.282 169.627C143.212 169.659 143.136 169.674 143.059 169.673C141.702 169.673 139.743 169.575 138.033 169.575C136.032 169.575 134.303 169.683 131.959 169.683C130.55 169.683 130.207 168.25 130.804 168.119C133.528 167.531 135.736 167.466 138.122 166.028C138.376 165.863 138.67 165.771 138.972 165.761Z" fill="#263238"/>
<path d="M157.451 48.3814C160.66 49.1236 164.027 57.9403 164.027 57.9403L157.362 62.3932C155.832 60.073 154.49 57.6335 153.351 55.0984C151.608 51.0588 154.177 47.6205 157.451 48.3814Z" fill="#205295"/>
<path opacity="0.2" d="M154.92 54.0181L157.677 62.196L157.362 62.4074C157.362 62.4074 156.103 60.5285 154.765 58.0248L154.92 54.0181Z" fill="black"/>
<path d="M135.924 63.793C135.952 67.6448 136.182 72.4359 136.755 78.3826H155.215C155.455 75.5643 154.205 61.7263 157.451 48.3767C155.421 47.9832 153.367 47.7227 151.303 47.597C148.69 47.4466 146.071 47.4466 143.458 47.597C141.656 47.7722 139.871 48.0862 138.117 48.5364C138.117 48.5364 136.534 50.2462 136.06 58.2644C135.966 59.8661 135.914 61.6887 135.924 63.793Z" fill="#205295"/>
<path opacity="0.2" d="M135.924 63.793C137.042 61.7544 139.071 57.6632 138.784 55.338L136.06 58.2879C135.966 59.8662 135.914 61.6887 135.924 63.793Z" fill="black"/>
<path d="M141.744 51.6695C142.035 54.9575 134.58 62.8677 134.58 62.8677L128.591 58.006C130.158 55.3667 132.035 52.924 134.181 50.73C137.676 47.348 141.406 47.9916 141.744 51.6695Z" fill="#205295"/>
<g opacity="0.2">
<path d="M138.902 158.17L138.916 162.289H142.368L142.354 158.17H138.902Z" fill="black"/>
<path d="M163.445 155.272L160.068 155.99L161.646 159.866L165.023 159.147L163.445 155.272Z" fill="black"/>
</g>
<path d="M149.814 34.8769C150.316 38.273 150.781 40.2318 149.475 42.369C149.06 43.0687 148.462 43.6415 147.744 44.0253C147.027 44.4091 146.218 44.5892 145.405 44.5461C144.593 44.5031 143.808 44.2385 143.135 43.781C142.462 43.3235 141.927 42.6907 141.589 41.951C140.241 39.1326 139.639 34.0408 142.603 31.8895C143.23 31.4061 143.974 31.0968 144.759 30.9926C145.543 30.8884 146.342 30.9931 147.073 31.2962C147.805 31.5992 148.443 32.0898 148.924 32.7185C149.405 33.3472 149.712 34.0918 149.814 34.8769Z" fill="#E4897B"/>
<path d="M143.623 37.7422C141.917 38.0287 140.959 36.07 142.27 34.3931C139.785 34.5058 138.728 33.2329 139.837 30.9594C140.776 29.0007 143.778 29.9589 143.778 29.9589C143.778 29.9589 146.276 26.6004 149.231 28.4699C152.402 30.4756 150.72 32.331 150.72 32.331C150.72 32.331 155.272 32.9604 154.097 36.2297C153.919 36.7301 153.605 37.1709 153.19 37.5027C152.775 37.8346 152.276 38.0444 151.749 38.1086C151.749 38.1086 152.914 41.6127 149.461 42.3361C146.009 43.0595 142.523 40.1754 143.623 37.7422Z" fill="#263238"/>
<path d="M144.67 36.8685C144.732 37.7305 144.516 38.5896 144.055 39.3205C143.44 40.2599 142.594 39.9076 142.322 38.9259C142.073 38.0428 142.091 36.4786 142.923 35.8586C143.754 35.2386 144.562 35.8351 144.67 36.8685Z" fill="#E4897B"/>
<path d="M143.303 78.3827C143.303 78.3827 146.201 104.748 147.972 114.612C149.908 125.416 159.936 159.391 159.936 159.391L166.118 158.076C166.118 158.076 159.217 126.309 158.287 115.594C157.278 103.968 155.215 78.3639 155.215 78.3639L143.303 78.3827Z" fill="#263238"/>
<path d="M158.555 157.324C158.527 157.324 159.607 159.584 159.607 159.584L166.559 158.104L166.061 155.995L158.555 157.324Z" fill="#205295"/>
<path opacity="0.2" d="M145.417 87.7771C149.912 88.6649 148.78 105.551 147.902 114.237C146.831 108.097 145.375 96.2838 144.393 87.8992C144.711 87.7443 145.072 87.7013 145.417 87.7771Z" fill="black"/>
<path d="M136.76 78.3826C136.76 78.3826 135.285 104.185 135.257 114.706C135.224 125.651 137.662 161.491 137.662 161.491H143.51C143.51 161.491 145.083 126.29 145.755 115.542C146.493 103.799 148.893 78.3826 148.893 78.3826H136.76Z" fill="#263238"/>
<path d="M135.924 75.9401C135.907 76.7734 136.049 77.6023 136.342 78.3826C136.205 79.0869 136.134 79.8024 136.13 80.5199C138.009 81.1822 155.755 82.0042 155.718 80.5199C155.68 79.0355 155.718 78.3826 155.718 78.3826C155.718 78.3826 156.188 76.2924 155.718 75.9401C155.248 75.5878 136.055 74.6859 135.924 75.9401Z" fill="#205295"/>
<path opacity="0.3" d="M135.924 75.9401C135.907 76.7734 136.049 77.6023 136.342 78.3826C136.205 79.0869 136.134 79.8024 136.13 80.5199C138.009 81.1822 155.755 82.0042 155.718 80.5199C155.68 79.0355 155.718 78.3826 155.718 78.3826C155.718 78.3826 156.188 76.2924 155.718 75.9401C155.248 75.5878 136.055 74.6859 135.924 75.9401Z" fill="black"/>
<path d="M136.628 159.161C136.6 159.161 136.863 161.589 136.863 161.589H143.975L144.252 159.424L136.628 159.161Z" fill="#205295"/>
</svg>
