<svg width="20" height="21" viewBox="0 0 20 21" fill="currentColor" xmlns="http://www.w3.org/2000/svg">
<path d="M16.25 8.18457C16.25 9.98232 15.6661 11.6437 14.6777 12.9894C14.7277 13.0263 14.7755 13.0674 14.8208 13.1126L19.6339 17.9257C20.122 18.4138 20.122 19.2053 19.6339 19.6935C19.1457 20.1816 18.3543 20.1816 17.8661 19.6935L13.053 14.8804C13.0078 14.8351 12.9667 14.7873 12.9299 14.7373L12.9309 14.7365C11.585 15.7254 9.92323 16.3096 8.125 16.3096C3.63769 16.3096 0 12.6719 0 8.18457C0 3.69726 3.63769 0.0595703 8.125 0.0595703C12.6123 0.0595703 16.25 3.69726 16.25 8.18457ZM8.125 15.0596C11.922 15.0596 15 11.9815 15 8.18457C15 4.38761 11.922 1.30957 8.125 1.30957C4.32804 1.30957 1.25 4.38761 1.25 8.18457C1.25 11.9815 4.32804 15.0596 8.125 15.0596Z" fill=""/>
<path d="M6.26 4.43457C6.38385 4.39694 6.51475 4.46684 6.55238 4.5907L6.68859 5.03904C7.0566 4.79868 7.49651 4.65882 7.96875 4.65882C8.44098 4.65882 8.8809 4.79868 9.24891 5.03904L9.38512 4.5907C9.42274 4.46684 9.55365 4.39694 9.6775 4.43457C9.80135 4.4722 9.87125 4.6031 9.83363 4.72695L9.64114 5.36055C10.0561 5.7832 10.3125 6.36308 10.3125 7.00257H10.5469C10.6763 7.00257 10.7812 6.89764 10.7812 6.7682V6.53382C10.7812 6.40438 10.8862 6.29945 11.0156 6.29945C11.1451 6.29945 11.25 6.40438 11.25 6.53382V6.7682C11.25 7.15652 10.9352 7.47132 10.5469 7.47132H10.3125V7.94007H11.0156C11.1451 7.94007 11.25 8.04501 11.25 8.17445C11.25 8.30389 11.1451 8.40882 11.0156 8.40882H10.3125V8.87757H10.5469C10.9352 8.87757 11.25 9.19237 11.25 9.5807V9.81507C11.25 9.94452 11.1451 10.0494 11.0156 10.0494C10.8862 10.0494 10.7812 9.94452 10.7812 9.81507V9.5807C10.7812 9.45126 10.6763 9.34632 10.5469 9.34632H10.3125C10.3125 10.6407 9.26317 11.6901 7.96875 11.6901C6.67433 11.6901 5.625 10.6407 5.625 9.34632H5.39062C5.26118 9.34632 5.15625 9.45126 5.15625 9.5807V9.81507C5.15625 9.94452 5.05132 10.0494 4.92187 10.0494C4.79243 10.0494 4.6875 9.94452 4.6875 9.81507V9.5807C4.6875 9.19237 5.0023 8.87757 5.39062 8.87757H5.625V8.40882H4.92187C4.79243 8.40882 4.6875 8.30389 4.6875 8.17445C4.6875 8.04501 4.79243 7.94007 4.92187 7.94007H5.625V7.47132H5.39062C5.0023 7.47132 4.6875 7.15652 4.6875 6.7682V6.53382C4.6875 6.40438 4.79243 6.29945 4.92187 6.29945C5.05132 6.29945 5.15625 6.40438 5.15625 6.53382V6.7682C5.15625 6.89764 5.26118 7.00257 5.39062 7.00257H5.625C5.625 6.36308 5.88137 5.7832 6.29635 5.36055L6.10387 4.72695C6.06624 4.6031 6.13614 4.4722 6.26 4.43457ZM6.09375 7.47132V9.34632C6.09375 10.3025 6.80946 11.0915 7.73437 11.2068V7.47132H6.09375ZM8.20312 7.47132V11.2068C9.12804 11.0915 9.84375 10.3025 9.84375 9.34632V7.47132H8.20312ZM9.84375 7.00257C9.84375 6.44728 9.60266 5.94861 9.21869 5.60495C8.88681 5.30791 8.44912 5.12757 7.96875 5.12757C7.48838 5.12757 7.05069 5.30791 6.71881 5.60495C6.33484 5.94861 6.09375 6.44728 6.09375 7.00257H9.84375Z" fill=""/>
</svg>
