<svg width="63" height="73" viewBox="0 0 63 73" fill="none" xmlns="http://www.w3.org/2000/svg">
<mask id="mask0_2110_1605" style="mask-type:alpha" maskUnits="userSpaceOnUse" x="0" y="0" width="63" height="73">
<rect width="63" height="73" fill="#D9D9D9"/>
</mask>
<g mask="url(#mask0_2110_1605)">
<g filter="url(#filter0_f_2110_1605)">
<rect x="8.95804" y="34.527" width="37.2597" height="25.4935" rx="4.20571" transform="rotate(-29.7793 8.95804 34.527)" fill="#5B80FF"/>
</g>
<path d="M14.3528 24.1174L15.8845 22.1841C16.2211 22.0631 16.4293 21.8419 16.4491 21.4715L16.6104 21.2679C17.1673 21.3495 17.3309 20.8163 17.6415 20.5553C22.7517 16.2673 28.5751 14.6804 35.115 15.8072C36.1492 15.9853 37.161 16.2832 38.1832 16.5264C38.3534 16.6132 38.5188 16.7145 38.6957 16.7867C40.8238 17.6542 42.8083 18.7675 44.5689 20.2486C45.2354 20.8098 45.8326 21.452 46.4607 22.0574C47.1979 22.9828 47.936 23.909 48.6732 24.8344C48.7571 25.0302 48.8204 25.2395 48.9294 25.4202C50.5568 28.1348 51.4936 31.0677 51.7671 34.2323C52.1701 38.8916 51.0958 43.1873 48.6282 47.1547C48.0274 47.5155 47.6905 48.1384 47.2006 48.6153C45.0527 50.7082 42.5954 52.2909 39.7922 53.3178C36.5421 54.5092 33.1954 54.8884 29.7658 54.4131C26.4298 53.9507 23.3971 52.7145 20.6526 50.7919C19.335 49.8689 18.1852 48.7507 17.1192 47.535C13.7329 43.6721 12.1036 39.125 12.0565 34.0269C12.0267 30.8084 12.7346 27.7055 14.2368 24.8109C14.3345 24.6232 14.618 24.3921 14.3518 24.1165L14.3528 24.1174ZM44.1856 45.9315C44.8938 45.1354 45.4135 44.2132 45.8638 43.2642C47.4871 39.8443 47.9722 36.2798 47.146 32.5728C46.0877 27.8168 43.409 24.2197 39.209 21.8415C35.604 19.8005 31.6962 19.2463 27.624 20.1957C24.0369 21.0323 21.0192 22.8355 18.6793 25.7242C18.4717 25.722 18.3481 25.876 18.293 26.0246C18.0234 26.7456 17.4527 27.2661 17.0711 27.9183C14.7606 31.8726 14.2603 36.0763 15.3738 40.4318C16.5243 44.9342 19.2597 48.3411 23.3075 50.539C27.9779 53.0745 32.8609 53.1801 37.7773 51.1049C39.6776 50.3022 41.3652 49.1354 42.7826 47.6419C43.2809 47.117 43.9304 46.6738 44.1838 45.9317L44.1856 45.9315Z" fill="#3060FF"/>
<path d="M48.6264 47.1548C48.5618 47.3174 48.3513 47.4207 48.4315 47.64L48.1895 47.9454C48.093 47.9236 48.0605 47.9542 48.1088 48.0472L46.6578 49.8786C46.4944 49.8602 46.4452 49.9306 46.4965 50.0822L46.2545 50.3876C45.4652 50.9073 44.8705 51.6475 44.1358 52.2336C41.0364 54.7078 37.5217 56.2 33.6115 56.6912C30.5839 57.0713 27.5965 56.7972 24.6907 55.8356C24.5289 55.7819 24.3587 55.7531 24.1929 55.7129C23.1198 55.2156 22.0467 54.7183 20.9746 54.2219C20.8525 54.1367 20.7356 54.0408 20.6067 53.9685C18.9764 53.053 17.5574 51.8772 16.2528 50.5404C15.3091 49.5739 14.5513 48.4665 13.7205 47.4138C12.9111 45.9241 12.1103 44.4362 11.5751 42.8107C10.5247 39.6238 10.2492 36.3764 10.7531 33.0587C11.1959 30.1467 12.2213 27.4461 13.8305 24.9678C13.8714 24.9058 13.8577 24.8087 13.8696 24.727C13.9237 24.6588 13.9769 24.5916 14.0309 24.5234C14.1923 24.5403 14.2506 24.4771 14.1923 24.3198L14.3536 24.1162C14.619 24.3928 14.3355 24.6238 14.2386 24.8106C12.7364 27.7051 12.0285 30.8081 12.0583 34.0265C12.1054 39.1246 13.7347 43.6717 17.121 47.5346C18.187 48.7504 19.3368 49.8685 20.6545 50.7916C23.3987 52.7123 26.4316 53.9504 29.7676 54.4128C33.1962 54.8873 36.5429 54.5081 39.794 53.3174C42.5972 52.2906 45.0535 50.7071 47.2024 48.6149C47.6915 48.1391 48.0292 47.5152 48.63 47.1543L48.6264 47.1548Z" fill="#1F50F5"/>
<path d="M43.8316 9.35579C44.3539 8.70077 44.8942 8.05838 45.3924 7.38592C45.7658 6.88138 46.1704 6.44139 46.7912 6.25712L54.281 12.1914C53.3952 13.3074 52.5091 14.4215 51.6233 15.5375L51.6207 15.5553C49.0241 13.4897 46.4294 11.424 43.8329 9.35841L43.8316 9.35579Z" fill="#EEECED"/>
<path d="M5.40995 58.2753C5.57957 57.5099 6.11503 56.9714 6.57924 56.3896C8.59549 57.9871 10.6101 59.5867 12.6322 61.1789C13.4713 61.8404 14.7694 61.7271 15.4871 60.9502C15.5445 60.9443 15.6028 60.9374 15.6602 60.9316C16.5665 61.6663 17.4737 62.4 18.3801 63.1347C17.88 63.7576 17.356 64.3648 16.8841 65.0083C16.4944 65.5397 16.0529 65.9804 15.4284 66.2131L5.40894 58.2745L5.40995 58.2753Z" fill="#E3E0E4"/>
<path d="M51.6221 15.5347C52.5079 14.4187 53.394 13.3046 54.2798 12.1886L56.7092 14.1135C56.5836 15.2832 55.6478 15.9586 55.0407 16.8331C54.8347 17.1306 54.6008 17.4092 54.379 17.6974C53.4603 16.9762 52.5408 16.2559 51.6221 15.5347Z" fill="#E3E0E4"/>
<path d="M16.4491 21.4715C16.4293 21.8419 16.2211 22.063 15.8845 22.1841L16.4491 21.4715Z" fill="#FEFEFE"/>
<path d="M14.1914 24.3209C14.2498 24.4782 14.1915 24.5414 14.0301 24.5245L14.1914 24.3209Z" fill="#3060FF"/>
<path d="M46.4975 50.0831C46.4462 49.9314 46.4954 49.861 46.6588 49.8795L46.4975 50.0831Z" fill="#3060FF"/>
<path d="M48.1109 48.0473C48.0624 47.9538 48.095 47.9231 48.192 47.945L48.1109 48.0473Z" fill="#3060FF"/>
<path d="M18.6811 25.7241C21.021 22.8354 24.0387 21.0323 27.6259 20.1957C31.698 19.2462 35.6048 19.7996 39.2108 21.8414C43.4098 24.2188 46.0885 27.816 47.1478 32.5727C47.9733 36.2807 47.4889 39.8442 45.8656 43.2641C45.4153 44.2132 44.8956 45.1354 44.1874 45.9314C43.8837 46.0089 43.6865 46.2454 43.4608 46.4345C40.1296 49.2387 36.2813 50.5693 31.9614 50.3564C27.2261 50.1226 23.2289 48.2083 20.2718 44.5049C16.3008 39.5325 15.4726 33.968 17.7156 27.9518C17.9991 27.1904 18.4922 26.5223 18.683 25.7239L18.6811 25.7241ZM26.4859 32.299C24.6453 34.6222 22.8026 36.9437 20.965 39.2692C20.5149 39.8373 20.4939 40.4006 20.9381 40.7575C22.5827 42.0771 24.2362 43.3856 25.8962 44.6859C26.2897 44.9943 26.691 45.0372 27.1174 44.6592C27.3452 44.4569 27.5579 44.2509 27.745 44.0147C30.7681 40.1992 33.7912 36.3836 36.8143 32.5681C37.3112 31.941 37.8251 31.3257 38.3017 30.6825C38.912 29.8603 38.8488 29.449 38.0698 28.8302C36.569 27.6411 35.068 26.4501 33.5664 25.262C32.8798 24.718 32.4467 24.7759 31.8867 25.4805C30.0864 27.7528 28.286 30.025 26.4857 32.2972L26.4859 32.299ZM24.0777 30.5534C24.8432 29.5873 25.6127 28.6244 26.3721 27.6535C26.7852 27.1257 26.7664 26.3402 26.3497 26.0151C25.9321 25.6892 25.1718 25.8541 24.7514 26.3826C23.2438 28.277 21.7396 30.1756 20.2393 32.0774C19.8167 32.6109 19.8138 33.3759 20.2153 33.7222C20.6282 34.0791 21.4143 33.9066 21.8602 33.3501C22.6031 32.4208 23.3381 31.4869 24.0769 30.5544L24.0777 30.5534ZM42.6056 36.0712C43.1678 35.3616 43.7409 34.659 44.2889 33.9382C44.5585 33.5834 44.6947 33.1744 44.5019 32.7332C44.3406 32.3668 44.0324 32.1773 43.6423 32.1516C43.1843 32.1201 42.8828 32.4049 42.6229 32.7309C41.534 34.0969 40.4471 35.4646 39.3683 36.8386C38.9106 37.4205 38.9459 37.9854 39.4357 38.3618C39.9778 38.7781 40.5175 38.692 40.996 38.0985C41.5377 37.4273 42.0682 36.7473 42.6046 36.0704L42.6056 36.0712ZM31.9643 47.8499C32.8561 48.5531 34.1427 48.4126 34.8419 47.5364C35.5763 46.6137 35.4494 45.3217 34.5509 44.5999C33.6473 43.874 32.3518 44.0258 31.6259 44.942C30.8919 45.8684 31.0371 47.1185 31.9653 47.8507L31.9643 47.8499ZM36.69 40.2231C36.69 40.2231 36.689 40.2223 36.688 40.2215C36.5138 40.4414 36.3148 40.6467 36.1696 40.8862C35.8881 41.3476 35.9243 41.8054 36.3212 42.1762C36.7087 42.538 37.1472 42.617 37.6006 42.257C38.1327 41.8351 38.5171 41.2813 38.8711 40.72C39.1323 40.3072 38.9534 39.5573 38.5925 39.3741C38.1085 39.1298 37.6211 39.1894 37.2167 39.5666C37.0141 39.7558 36.8622 40.0016 36.688 40.2215L36.69 40.2231ZM17.6004 35.4268C17.0631 36.0799 17.0254 36.6019 17.4558 37.0157C17.7798 37.3288 18.1471 37.4789 18.5635 37.2654C19.1036 36.9874 19.4876 36.5443 19.5751 35.9325C19.6307 35.544 19.5559 35.1203 19.161 34.9217C18.7271 34.7038 18.2768 34.7812 17.8851 35.0758C17.7689 35.1643 17.6948 35.3077 17.6012 35.4258L17.6004 35.4268ZM29.0834 24.2355C29.6543 23.5212 29.6645 23.0007 29.1168 22.5602C28.5436 22.0977 28.0336 22.2255 27.4468 22.9786C26.9332 23.6372 26.9501 24.1692 27.4992 24.5976C28.0381 25.018 28.5513 24.9009 29.0834 24.2355Z" fill="#EEECED"/>
<path d="M18.6811 25.724C18.4896 26.5234 17.9972 27.1906 17.7138 27.9519C15.4708 33.9681 16.299 39.5326 20.27 44.505C23.2271 48.2085 27.2233 50.1219 31.9596 50.3565C36.2795 50.5695 40.1278 49.2388 43.459 46.4346C43.6854 46.2445 43.8819 46.0091 44.1856 45.9316C43.933 46.6727 43.2827 47.1169 42.7844 47.6418C41.367 49.1353 39.6794 50.302 37.7791 51.1047C32.8619 53.181 27.9789 53.0754 23.3093 50.5389C19.2616 48.3409 16.5261 44.9341 15.3756 40.4316C14.2621 36.0761 14.7614 31.8716 17.0729 27.9181C17.4545 27.266 18.0252 26.7454 18.2948 26.0244C18.3499 25.8758 18.4735 25.7219 18.6811 25.724Z" fill="#E3E0E4"/>
<path d="M38.1832 16.5265C39.1475 15.297 40.1117 14.0675 41.076 12.838C43.6814 14.8923 46.2878 16.9475 48.8932 19.0019L48.8773 19.0075C48.0715 20.0245 47.2657 21.0415 46.4607 22.0574C45.8326 21.4521 45.2344 20.8091 44.569 20.2487C42.8083 18.7676 40.8238 17.6542 38.6957 16.7867C38.5188 16.7145 38.3544 16.6141 38.1832 16.5265Z" fill="#EEECED"/>
<path d="M46.4607 22.0574C47.2665 21.0404 48.0723 20.0234 48.8772 19.0074C49.7881 19.7323 50.6981 20.4583 51.6089 21.1833C50.6302 22.3997 49.6526 23.617 48.6732 24.8344C47.935 23.9082 47.1978 22.9828 46.4607 22.0574Z" fill="#E4E1E5"/>
<path d="M18.3812 63.1355C17.4748 62.4008 16.5676 61.6671 15.6612 60.9324C16.5702 59.7851 17.4801 58.6368 18.3901 57.4902C19.309 58.205 20.2269 58.919 21.1466 59.6328C21.6811 60.2917 21.7008 60.7828 21.209 61.4139C20.8525 61.8722 20.492 62.3272 20.1274 62.7791C19.6252 63.4004 19.1006 63.505 18.3812 63.1355Z" fill="#1F50F5"/>
<path d="M21.1466 59.6327C20.2277 58.918 19.3098 58.204 18.3901 57.4902L18.4111 57.4637C19.2659 56.3828 20.1207 55.3019 20.9754 54.221C22.0485 54.7182 23.1216 55.2155 24.1947 55.7128C23.1793 57.0193 22.1628 58.3251 21.1474 59.6317L21.1466 59.6327Z" fill="#E4E1E5"/>
<path d="M18.3901 57.4903C17.481 58.6376 16.5712 59.7859 15.6612 60.9324C15.6038 60.9383 15.5455 60.9452 15.4881 60.9511C15.1619 60.6429 14.8559 60.3093 14.5073 60.0315C12.4753 58.4082 10.4351 56.7951 8.39255 55.185C8.21432 55.0438 8.06968 54.8248 7.79295 54.8557C7.20453 53.9902 7.21726 53.5164 7.85003 52.7136C8.13072 52.3593 8.40331 51.9986 8.69413 51.6524C9.29211 50.9414 9.77901 50.8532 10.6144 51.2864C13.2139 53.3461 15.8125 55.4049 18.4121 57.4646L18.3911 57.4911L18.3901 57.4903Z" fill="#3060FF"/>
<path d="M18.4111 57.4638C15.8115 55.4041 13.213 53.3452 10.6134 51.2856C11.6491 49.995 12.6848 48.7045 13.7215 47.4147C14.5532 48.4664 15.3101 49.5749 16.2546 50.5403C17.56 51.8762 18.9783 53.0529 20.6085 53.9684C20.7375 54.0407 20.8543 54.1366 20.9764 54.2218C20.1206 55.3019 19.2669 56.3836 18.4121 57.4646L18.4111 57.4638Z" fill="#EEECED"/>
<path d="M7.792 54.8549C8.06955 54.8229 8.21439 55.0437 8.39161 55.1841C10.4334 56.7952 12.4743 58.4073 14.5064 60.0306C14.856 60.3093 15.162 60.6429 15.4872 60.9502C14.7695 61.7271 13.4722 61.8394 12.6323 61.1789C10.6112 59.5875 8.59738 57.9869 6.5793 56.3896C6.98421 55.8786 7.38709 55.3659 7.79099 54.8541L7.792 54.8549Z" fill="#EEECED"/>
<path d="M51.6099 21.1841C50.6991 20.4592 49.7891 19.7332 48.8783 19.0082L48.8943 19.0026C49.8031 17.8535 50.7117 16.7026 51.6205 15.5534L51.6231 15.5356C52.5418 16.2569 53.4605 16.9781 54.38 17.6984C54.9062 18.2992 54.9264 18.8438 54.4382 19.4745C54.0972 19.9152 53.7484 20.3514 53.3985 20.7867C52.8605 21.4574 52.3991 21.5592 51.6081 21.1843L51.6099 21.1841Z" fill="#1F50F5"/>
<path d="M51.6195 15.5527C50.7107 16.7018 49.8021 17.8528 48.8932 19.0019C46.2878 16.9476 43.6814 14.8924 41.0768 12.837C40.569 12.3336 40.4787 11.7235 40.8417 11.1428C41.213 10.5471 41.6657 9.98615 42.1619 9.49104C42.7185 8.93618 43.1593 8.94573 43.8325 9.35481C46.429 11.4204 49.0238 13.4861 51.6203 15.5517L51.6195 15.5527Z" fill="#3060FF"/>
<path d="M26.4859 32.2989C28.2862 30.0266 30.0865 27.7544 31.8868 25.4822C32.4466 24.7757 32.8789 24.7189 33.5666 25.2637C35.0682 26.4518 36.57 27.6417 38.07 28.8318C38.8497 29.4496 38.9121 29.8619 38.3018 30.6842C37.8252 31.3273 37.3113 31.9426 36.8145 32.5697C33.7914 36.3853 30.7682 40.2008 27.7451 44.0163C27.558 44.2525 27.3464 44.4593 27.1175 44.6608C26.6911 45.0388 26.2898 44.996 25.8963 44.6875C24.2364 43.3872 22.5828 42.0788 20.9382 40.7591C20.493 40.4014 20.5143 39.8399 20.9651 39.2708C22.8028 36.9453 24.6454 34.6238 26.4861 32.3007L26.4859 32.2989Z" fill="#F7F6F7"/>
<path d="M24.0777 30.5533C23.3389 31.4858 22.6039 32.4197 21.861 33.349C21.4162 33.9063 20.63 34.0788 20.2162 33.7211C19.8147 33.3748 19.8177 32.6116 20.2401 32.0764C21.7414 30.1753 23.2439 28.2769 24.7522 26.3815C25.1726 25.853 25.9329 25.6881 26.3506 26.0141C26.7672 26.3392 26.785 27.1239 26.3729 27.6524C25.6135 28.6233 24.844 29.5862 24.0785 30.5523L24.0777 30.5533Z" fill="#85A1FE"/>
<path d="M42.6056 36.071C42.07 36.747 41.5385 37.4261 40.997 38.0991C40.5185 38.6927 39.9788 38.7788 39.4367 38.3625C38.9459 37.9853 38.9108 37.4222 39.3693 36.8393C40.4481 35.4652 41.535 34.0976 42.6239 32.7315C42.8828 32.4048 43.1861 32.1198 43.6433 32.1523C44.0336 32.1798 44.3416 32.3674 44.5029 32.7339C44.6957 33.175 44.5595 33.5841 44.2899 33.9389C43.7419 34.6597 43.1688 35.3622 42.6066 36.0718L42.6056 36.071Z" fill="#85A1FE"/>
<path d="M31.9643 47.8497C31.0371 47.1184 30.8919 45.8682 31.6249 44.941C32.3508 44.0248 33.6463 43.8731 34.5499 44.5989C35.4483 45.3207 35.5771 46.6125 34.8409 47.5355C34.1419 48.4135 32.8553 48.554 31.9633 47.8489L31.9643 47.8497Z" fill="#FD7931"/>
<path d="M36.69 40.223C36.8643 40.0031 37.0152 39.7565 37.2188 39.5682C37.6232 39.1909 38.1105 39.1313 38.5945 39.3756C38.9562 39.5578 39.1343 40.3087 38.8732 40.7215C38.5181 41.282 38.1347 41.8366 37.6026 42.2585C37.1493 42.6185 36.7108 42.5395 36.3232 42.1778C35.9253 41.8061 35.8891 41.3483 36.1716 40.8877C36.3171 40.65 36.515 40.4439 36.69 40.223C36.69 40.223 36.691 40.2238 36.6921 40.2246L36.69 40.223Z" fill="#85A1FE"/>
<path d="M17.6004 35.4267C17.694 35.3086 17.7689 35.1641 17.8843 35.0767C18.2749 34.7813 18.7263 34.7047 19.1602 34.9226C19.5551 35.1212 19.6299 35.5449 19.5743 35.9334C19.4868 36.5452 19.102 36.9893 18.5627 37.2663C18.1455 37.4809 17.779 37.3297 17.455 37.0166C17.0254 36.6017 17.0632 36.0798 17.5996 35.4277L17.6004 35.4267Z" fill="#85A1FE"/>
<path d="M29.0834 24.2354C28.5513 24.9009 28.0392 25.0187 27.4992 24.5976C26.9502 24.1692 26.9332 23.6371 27.4468 22.9785C28.0336 22.2254 28.5418 22.0978 29.1168 22.5601C29.6645 23.0006 29.6543 23.5212 29.0834 24.2354Z" fill="#85A1FE"/>
</g>
<defs>
<filter id="filter0_f_2110_1605" x="-6.3321" y="0.731403" width="75.5813" height="71.2127" filterUnits="userSpaceOnUse" color-interpolation-filters="sRGB">
<feFlood flood-opacity="0" result="BackgroundImageFix"/>
<feBlend mode="normal" in="SourceGraphic" in2="BackgroundImageFix" result="shape"/>
<feGaussianBlur stdDeviation="8.41143" result="effect1_foregroundBlur_2110_1605"/>
</filter>
</defs>
</svg>
