<svg width="46" height="41" viewBox="0 0 46 41" fill="none" xmlns="http://www.w3.org/2000/svg">
<path d="M23.0879 31.2257C23.238 31.3798 23.454 31.3839 23.6366 31.4638C24.8889 32.0108 25.1123 32.8693 24.9313 34.0661C24.8555 34.5659 24.6052 35.0062 24.3215 35.4187C24.0288 35.8443 24.0842 36.084 24.5611 36.234C25.6756 36.5854 26.2219 37.6085 26.1819 38.5828C26.1371 39.6753 25.2713 40.6813 24.2391 40.9014C24.1348 40.9235 24.0239 40.9145 23.9163 40.9202C17.3997 40.9202 10.8832 40.9186 4.36667 40.9202C4.23704 40.9202 4.09192 40.8745 3.98593 41.0001H3.82288C3.97126 40.7368 4.24764 40.559 4.30715 40.2337C4.51831 39.0768 5.28549 38.3969 6.32905 38.0211C6.80272 37.8507 7.03426 37.5572 7.13943 37.1128C7.45902 35.766 7.94901 34.4836 8.6583 33.2957C9.16948 32.4405 9.72143 31.6138 10.5277 30.9852C10.9419 30.6623 11.4686 30.4316 11.6324 29.8577C11.8314 30.0696 11.9015 30.3517 12.0368 30.5988C12.226 30.9444 12.4086 30.977 12.6972 30.7007C12.7844 30.6175 12.8537 30.5148 12.9344 30.4251C13.3943 29.9139 13.8524 29.4003 14.4036 28.9821C14.2348 29.4362 14.1142 29.8903 14.1443 30.39C14.2152 31.5502 15.6126 32.6769 16.7002 32.3035C17.8701 31.9016 18.8134 31.154 19.2732 29.9343C19.305 29.8503 19.3328 29.7892 19.4224 29.7696C19.4632 30.2441 19.3564 30.7047 19.2912 31.1703C19.2643 31.3619 19.252 31.5526 19.4127 31.6994C19.5814 31.8527 19.7396 31.7434 19.8977 31.67C20.6291 31.3301 21.3881 31.1165 22.205 31.1556C22.5001 31.1695 22.7855 31.2942 23.0863 31.2265L23.0879 31.2257Z" fill="#CAE2F9"/>
<path d="M11.6332 29.8561C11.4686 30.43 10.9419 30.6616 10.5285 30.9836C9.72223 31.6122 9.16947 32.4389 8.65911 33.2941C7.949 34.482 7.45983 35.7644 7.14024 37.1113C7.03507 37.5556 6.80353 37.8491 6.32985 38.0195C5.28629 38.3953 4.51911 39.0753 4.30796 40.2321C4.24844 40.5583 3.97288 40.736 3.82368 40.9985H2.92932C2.23389 40.7816 1.61998 40.4506 1.1993 39.8229C0.0896993 38.167 0.798993 36.1125 2.56489 35.4424C3.21304 35.1962 3.49268 34.87 3.64513 34.2292C3.95331 32.9386 4.46531 31.7165 5.13547 30.5662C5.20966 30.4724 5.29282 30.3836 5.35722 30.2833C5.7991 29.5878 6.31355 28.9585 6.92827 28.4016C7.31634 28.0502 7.79573 27.8692 8.21641 27.5831C8.82135 27.4665 9.42547 27.4045 9.97171 27.7722C10.7421 28.2907 11.3153 28.9739 11.6349 29.8553L11.6332 29.8561Z" fill="#EDF6FE"/>
<path d="M0 28.4733C0.557651 27.7771 1.0509 27.8219 1.48707 28.6062C1.97216 29.4785 2.3105 30.3917 2.27871 31.4108C2.26403 31.8763 2.02679 32.1307 1.59387 32.1339C1.15607 32.1372 0.923712 31.8934 0.892731 31.4254C0.833216 30.5197 0.577218 29.6816 0.00081528 28.9617V28.4733H0Z" fill="#CBE3F9"/>
<path d="M3.9859 40.9992C4.09189 40.8745 4.23701 40.9193 4.36664 40.9193C10.8832 40.9177 17.3997 40.9193 23.9162 40.9193C23.9146 40.9454 23.9138 40.9723 23.9138 40.9984H3.9859V40.9992Z" fill="#DBEBFB"/>
<path d="M11.6333 29.856C11.3137 28.9747 10.7405 28.2915 9.97008 27.773C9.42384 27.4045 8.81972 27.4673 8.21478 27.5838C8.30691 27.4208 8.45855 27.2838 8.45692 27.08C8.45366 26.6878 8.4985 26.3006 8.53193 25.9101C8.61427 24.957 8.73982 24.0121 8.92 23.0737C9.30726 21.0526 9.89018 19.0919 10.712 17.2012C11.6781 14.9772 12.9263 12.9284 14.5511 11.1323C16.4467 9.03785 18.6455 7.3388 21.2446 6.17295C23.2428 5.27615 25.3112 4.66713 27.4823 4.39075C27.9633 4.32961 28.4859 4.34265 28.8463 3.91626C28.852 4.09154 28.8626 4.26765 28.8626 4.44293C28.8658 8.67913 28.8683 12.9153 28.8699 17.1507C26.5928 19.2835 25.0063 21.854 23.9994 24.798C23.2852 26.8851 22.9999 29.0277 23.0887 31.2265C22.7879 31.2942 22.5017 31.1694 22.2074 31.1556C21.3897 31.1164 20.6315 31.33 19.9002 31.67C19.742 31.7434 19.5839 31.8526 19.4151 31.6994C19.2545 31.5534 19.2667 31.3618 19.2936 31.1703C19.3588 30.7055 19.4648 30.2449 19.4249 29.7696C19.4281 29.5943 19.4396 29.419 19.4338 29.2437C19.3841 27.676 18.4474 26.9928 16.9505 27.4599C15.9852 27.7608 15.1438 28.2891 14.406 28.9804C13.8549 29.3986 13.3967 29.9115 12.9369 30.4235C12.8554 30.514 12.7869 30.6159 12.6996 30.699C12.411 30.9746 12.2284 30.9428 12.0393 30.5971C11.9047 30.3501 11.8338 30.068 11.6349 29.856H11.6333ZM10.0076 20.6719C9.99617 21.232 10.2 21.51 10.5652 21.5573C10.9223 21.6038 11.2827 21.3575 11.3773 20.9678C11.5656 20.1925 11.8387 19.4465 12.1232 18.7038C12.6377 17.3594 13.3543 16.1243 14.1517 14.9331C14.3481 14.6396 14.4272 14.3429 14.1631 14.0486C13.7603 13.5985 13.3347 13.6637 12.9385 14.2271C11.9863 15.5813 11.246 17.0455 10.6533 18.5889C10.3777 19.3071 10.1633 20.0417 10.0076 20.6719ZM17.5766 12.4506C17.8049 12.4685 17.9835 12.3316 18.1457 12.1587C18.7017 11.5668 19.3262 11.0549 19.9654 10.5567C20.841 9.87433 21.7941 9.31749 22.7545 8.76718C23.2037 8.50955 23.3015 8.15001 23.0863 7.78965C22.8719 7.43093 22.4993 7.34125 22.0754 7.55648C20.9764 8.11251 19.9483 8.78022 18.9806 9.53925C18.312 10.0635 17.6631 10.6105 17.0606 11.2106C16.8111 11.4592 16.7711 11.7544 16.8967 12.0682C17.0117 12.3552 17.2505 12.4604 17.5766 12.4498V12.4506ZM19.345 18.5505C19.667 18.5473 19.8496 18.4176 20.1448 18.032C20.9625 16.9616 21.9213 16.0403 23.0382 15.2813C23.4059 15.031 23.8258 14.8557 24.1445 14.5361C24.3581 14.3225 24.4119 13.8643 24.2147 13.645C23.9994 13.4061 23.7255 13.2455 23.3863 13.411C23.1801 13.5113 22.9811 13.6271 22.7863 13.7494C21.2372 14.7203 19.8969 15.918 18.8379 17.4165C18.6675 17.6578 18.6422 17.9432 18.7555 18.1902C18.8615 18.4209 19.0645 18.6109 19.3458 18.5513L19.345 18.5505ZM17.4568 20.9931C17.2342 21.038 16.9847 21.1692 16.9008 21.5059C16.8062 21.8842 16.7124 22.2625 16.6252 22.6424C16.5249 23.0786 16.7744 23.5001 17.1747 23.5833C17.5082 23.6526 17.8832 23.3656 17.9851 22.9547C18.0797 22.5764 18.171 22.1973 18.2541 21.8157C18.3471 21.3885 17.9924 20.9784 17.456 20.9931H17.4568ZM10.8971 23.6281C10.9737 23.2539 10.7601 22.9971 10.3753 22.8968C10.0581 22.8136 9.75974 22.94 9.63255 23.2392C9.45972 23.6452 9.3578 24.0855 9.36107 24.5314C9.36351 24.8714 9.5763 25.0752 9.90812 25.1339C10.2872 25.2008 10.6402 25.0312 10.721 24.71C10.8049 24.3741 10.915 24.0374 10.8971 23.6289V23.6281ZM26.0278 6.92709C26.0319 6.55777 25.7074 6.21046 25.3487 6.19823C24.9386 6.18518 24.4918 6.58223 24.4927 6.9597C24.4927 7.3119 24.8432 7.6478 25.2117 7.65024C25.6658 7.65269 26.0238 7.33554 26.0278 6.92709Z" fill="#80A9FE"/>
<path d="M28.8455 3.91546C28.4851 4.34185 27.9625 4.3288 27.4815 4.38995C25.3096 4.66552 23.2412 5.27534 21.2438 6.17215C18.6447 7.33882 16.4459 9.03705 14.5503 11.1315C12.9247 12.9276 11.6765 14.9764 10.7112 17.2004C9.8902 19.0919 9.30727 21.0518 8.9192 23.0729C8.73902 24.0113 8.61347 24.9562 8.53112 25.9093C8.4977 26.299 8.45286 26.687 8.45612 27.0792C8.45775 27.283 8.30611 27.4208 8.21398 27.583C7.79411 27.8692 7.31391 28.0502 6.92584 28.4016C6.31193 28.9584 5.79749 29.5878 5.35479 30.2832C5.29039 30.3843 5.20723 30.4724 5.13304 30.5661C4.85666 28.7701 4.85666 26.961 4.87704 25.1502C4.90394 22.6416 5.30995 20.1917 5.99316 17.7834C6.86958 14.6902 8.27186 11.8612 10.2669 9.33707C11.8958 7.27604 13.8639 5.6039 16.145 4.29701C18.4955 2.95098 21.0318 2.15282 23.6929 1.73866C24.3826 1.63104 25.0846 1.58131 25.7857 1.53484C26.8138 1.46717 27.8386 1.46065 28.8658 1.49326C28.8585 2.30039 28.8512 3.10752 28.8446 3.91464L28.8455 3.91546Z" fill="#9CBBFE"/>
<path d="M45.7103 3.91455C45.7144 6.55606 45.7185 9.19757 45.7218 11.8391C45.7234 13.221 45.7234 14.6029 45.7218 15.9848C45.7209 16.6215 45.4543 16.8938 44.8127 16.8954C42.9025 16.9011 36.9159 16.8995 35.0057 16.9003C34.8891 16.5294 34.9535 16.1478 34.9535 15.7728C34.9503 11.8456 34.9552 7.91839 34.9576 3.99119C35.2462 4.31893 35.6237 4.32708 36.0256 4.32382C37.6228 4.30996 43.2963 4.30996 44.8934 4.32464C45.2562 4.3279 45.5228 4.22028 45.7103 3.91455Z" fill="#585966"/>
<path d="M34.9576 3.99043C34.9551 7.91763 34.9503 11.8448 34.9535 15.772C34.9535 16.1479 34.8891 16.5286 35.0057 16.8996C34.8516 17.0023 34.916 17.1694 34.885 17.3088C34.7342 17.9749 34.0437 18.5415 33.3515 18.5481C32.5118 18.5562 31.672 18.5481 30.8323 18.5481C31.3108 18.3222 31.4918 17.9651 31.4902 17.4197C31.4723 12.8419 31.4788 8.26412 31.4804 3.68633C31.4804 2.55472 32.1392 1.85602 33.2594 1.79651C33.6483 1.77613 33.91 1.59921 34.0804 1.24293C34.263 0.861382 34.0551 0.565435 33.9189 0.248291C34.5027 0.377105 34.8875 0.955954 34.8997 1.7215C34.9388 2.47727 34.8377 3.23711 34.9576 3.99124V3.99043Z" fill="#CAE2F9"/>
<path d="M33.9181 0.248358C34.0551 0.565502 34.263 0.861449 34.0795 1.243C33.9083 1.59928 33.6474 1.77619 33.2585 1.79658C32.1383 1.85609 31.4796 2.55479 31.4796 3.68639C31.478 8.26419 31.4714 12.842 31.4894 17.4198C31.4918 17.9652 31.31 18.3223 30.8314 18.5481C29.6778 18.5587 29.0289 18.0965 28.8691 17.1499C28.8666 12.9137 28.8642 8.67754 28.8609 4.44216C28.8609 4.26687 28.8503 4.09077 28.8446 3.91549C28.8519 3.10836 28.8585 2.30123 28.8658 1.49411C28.8943 0.636432 29.7512 0.0257871 30.4662 0.0102968C31.4127 -0.00926995 32.3601 0.00540508 33.3074 0.00540508C33.499 0.00540508 33.6808 0.0412774 33.8349 0.166015C33.8627 0.193735 33.8912 0.221454 33.9189 0.249989L33.9165 0.247543L33.9181 0.248358Z" fill="#EDF6FE"/>
<path d="M34.9576 3.99046C34.8378 3.23633 34.9389 2.4773 34.8997 1.72072C36.9118 1.71665 42.9995 1.71012 45.0116 1.71257C45.4266 1.71257 45.7169 2.00933 45.7209 2.41616C45.725 2.91511 45.7152 3.41487 45.7112 3.91383C45.5236 4.21956 45.257 4.32717 44.8942 4.32391C43.2971 4.30924 37.6236 4.30924 36.0264 4.3231C35.6245 4.32636 35.247 4.3182 34.9584 3.99046H34.9576Z" fill="#6E6F80"/>
<path d="M30.6056 29.856C31.0075 29.8592 31.3597 30.1372 31.3956 30.456C31.4421 30.8685 31.2513 31.1547 30.8127 31.237C29.6746 31.4506 28.9677 32.1078 28.6555 33.2198C28.5201 33.7016 28.1834 33.9063 27.8002 33.7938C27.3412 33.6584 27.1839 33.3535 27.3266 32.8146C27.7554 31.1955 28.8242 30.244 30.4352 29.8698C30.5004 29.8543 30.5697 29.8584 30.6048 29.856H30.6056Z" fill="#CBE3F9"/>
<path d="M31.7682 36.0383C32.0422 36.0317 32.3357 36.0334 32.6276 36.1157C33.0336 36.2307 33.3091 36.5535 33.2627 36.8878C33.2023 37.3158 32.9463 37.5237 32.4588 37.4984C32.0316 37.4764 31.6174 37.3786 31.1772 37.4846C30.7068 37.5971 30.2836 37.7756 29.8996 38.0602C29.867 38.0846 29.836 38.1107 29.8034 38.1335C29.3037 38.4906 28.9082 38.4808 28.6302 38.1058C28.3661 37.7495 28.4859 37.3395 28.9678 36.975C29.708 36.4157 30.7092 35.9722 31.7682 36.0383Z" fill="#CBE3F9"/>
<path d="M33.9205 0.249989C33.8928 0.22227 33.8643 0.19455 33.8365 0.166016C33.8643 0.193735 33.8928 0.221455 33.9205 0.249989Z" fill="#CAE2F9"/>
<path d="M14.4044 28.9804C15.1422 28.289 15.9836 27.7607 16.9489 27.4599C18.4466 26.9927 19.3825 27.6759 19.4323 29.2437C19.438 29.419 19.4265 29.5943 19.4233 29.7696C19.3336 29.7883 19.3059 29.8495 19.2741 29.9343C18.8143 31.1539 17.871 31.9015 16.7011 32.3035C15.6135 32.6769 14.2161 31.5493 14.1452 30.39C14.115 29.8894 14.2348 29.4361 14.4044 28.982V28.9804Z" fill="#EDF6FE"/>
<path d="M10.0075 20.6719C10.1641 20.0417 10.3777 19.3079 10.6532 18.5889C11.2459 17.0455 11.9862 15.5813 12.9385 14.2271C13.3347 13.6638 13.7595 13.5985 14.163 14.0486C14.4272 14.3429 14.3481 14.6396 14.1516 14.9331C13.3534 16.1243 12.6368 17.3594 12.1232 18.7038C11.8387 19.4465 11.5647 20.1925 11.3772 20.9678C11.2826 21.3567 10.9223 21.6029 10.5652 21.5573C10.1999 21.51 9.99612 21.232 10.0075 20.6719Z" fill="#719EF9"/>
<path d="M17.5766 12.4505C17.2513 12.4603 17.0116 12.3552 16.8967 12.069C16.7711 11.7551 16.811 11.46 17.0605 11.2113C17.663 10.6113 18.312 10.0634 18.9805 9.53999C19.9491 8.78097 20.9763 8.11244 22.0753 7.55723C22.4993 7.34281 22.8727 7.43168 23.0863 7.7904C23.3015 8.15076 23.2037 8.50948 22.7544 8.76792C21.794 9.31824 20.8418 9.87507 19.9654 10.5575C19.3262 11.0556 18.7017 11.5676 18.1457 12.1595C17.9834 12.3323 17.8041 12.4701 17.5766 12.4514V12.4505Z" fill="#719EF9"/>
<path d="M19.345 18.5505C19.0637 18.61 18.8607 18.4201 18.7547 18.1894C18.6414 17.9431 18.6667 17.6578 18.8371 17.4157C19.8961 15.9164 21.2364 14.7195 22.7855 13.7485C22.9795 13.627 23.1792 13.5113 23.3855 13.4102C23.7247 13.2447 23.9986 13.4053 24.2138 13.6442C24.4111 13.8635 24.3573 14.3217 24.1437 14.5353C23.8241 14.8557 23.4051 15.0301 23.0374 15.2804C21.9205 16.0395 20.9617 16.9607 20.144 18.0312C19.8488 18.4176 19.667 18.5464 19.3442 18.5497L19.345 18.5505Z" fill="#719EF9"/>
<path d="M17.4568 20.9931C17.9932 20.9784 18.3479 21.3877 18.2549 21.8157C18.1718 22.1964 18.0805 22.5763 17.9859 22.9546C17.8832 23.3655 17.509 23.6525 17.1755 23.5832C16.7752 23.5 16.5257 23.0785 16.626 22.6424C16.7132 22.2625 16.807 21.8842 16.9016 21.5059C16.9855 21.17 17.235 21.0387 17.4576 20.9931H17.4568Z" fill="#719EF9"/>
<path d="M10.897 23.6281C10.915 24.0365 10.8057 24.3732 10.7209 24.7091C10.6402 25.0303 10.2872 25.1999 9.90809 25.1331C9.57627 25.0744 9.36348 24.8714 9.36104 24.5306C9.35778 24.0846 9.45969 23.6444 9.63253 23.2384C9.75971 22.94 10.0581 22.8128 10.3752 22.8959C10.7601 22.9962 10.9737 23.253 10.897 23.6272V23.6281Z" fill="#719EF9"/>
<path d="M26.0278 6.92709C26.023 7.33636 25.665 7.6535 25.2118 7.65024C24.8432 7.6478 24.4927 7.3119 24.4927 6.9597C24.4927 6.58223 24.9386 6.18437 25.3487 6.19823C25.7074 6.20964 26.0319 6.55777 26.0278 6.92709Z" fill="#719EF9"/>
</svg>
