<svg width="26" height="27" viewBox="0 0 26 27" fill="none" xmlns="http://www.w3.org/2000/svg">
<path d="M8.18848 14.3936C8.09944 14.3929 8.0526 14.4076 8.02441 14.4258C7.99875 14.4424 7.96947 14.4747 7.94336 14.5527C7.86826 14.7768 7.7612 15.0026 7.67871 15.2051L7.67773 15.2061C7.62969 15.3236 7.64694 15.3662 7.65234 15.375C7.65835 15.3843 7.68941 15.4171 7.81445 15.4268C8.18223 15.4547 8.45816 15.7132 8.4668 16.0781C8.47085 16.2491 8.41736 16.4077 8.30957 16.5293C8.20203 16.6506 8.04867 16.7257 7.87012 16.748H7.86914C7.66975 16.7726 7.45475 16.7917 7.24219 16.7734C7.13749 16.7643 7.08081 16.7825 7.0459 16.8066C7.00991 16.8316 6.97252 16.8799 6.94043 16.9795C6.8673 17.2064 6.75998 17.4316 6.67676 17.6348C6.63456 17.7378 6.65288 17.7678 6.65332 17.7686C6.65469 17.7707 6.67809 17.801 6.7959 17.8086C6.97887 17.8204 7.14184 17.8841 7.26172 17.998C7.38253 18.1129 7.44979 18.2702 7.45605 18.4473C7.46208 18.6232 7.41238 18.786 7.30176 18.9111C7.19148 19.0357 7.03279 19.109 6.84668 19.1318C6.62322 19.1593 6.39794 19.1632 6.17969 19.1592H6.17871C6.10991 19.1579 6.07594 19.1712 6.05664 19.1846C6.04695 19.1914 6.03571 19.2012 6.02441 19.2178L5.99023 19.29C5.90197 19.5352 5.79116 19.7782 5.69629 20.0078C5.65224 20.1148 5.66722 20.1502 5.66895 20.1533C5.66902 20.1534 5.68736 20.1824 5.79785 20.1904C6.14987 20.2153 6.42829 20.4583 6.4541 20.8057C6.46735 20.9822 6.41657 21.1452 6.30957 21.2725C6.20348 21.3987 6.04987 21.4813 5.87109 21.5146C5.62964 21.5598 5.38142 21.5439 5.1709 21.543C5.11718 21.5428 5.09014 21.5529 5.0752 21.5625C5.06151 21.5714 5.04234 21.5886 5.02441 21.6338L5.02539 21.6348L4.72266 22.3721C4.67643 22.4849 4.69287 22.5234 4.69629 22.5293C4.69866 22.5332 4.72194 22.565 4.84082 22.5732C5.20409 22.5982 5.48978 22.8575 5.50293 23.2178C5.51541 23.5645 5.2579 23.8327 4.91602 23.8975C4.68521 23.9412 4.43844 23.9227 4.24414 23.9268C4.18005 23.9281 4.17426 23.9441 4.17871 23.9385C4.17942 23.9376 4.16737 23.9541 4.17285 24.0205C4.21728 24.5517 4.58178 25.0151 5.09082 25.1709C5.2928 25.2326 5.50871 25.25 5.73633 25.25H18.5332C18.8541 25.25 19.1328 25.1971 19.3633 25.0762C19.5912 24.9565 19.7826 24.7646 19.9229 24.4688C20.1024 24.0891 20.0534 23.7185 19.8887 23.3193C18.6832 20.3979 17.477 17.4765 16.2783 14.5518C16.2452 14.471 16.213 14.4396 16.1865 14.4238C16.1574 14.4065 16.1115 14.3941 16.0234 14.3945C14.4682 14.4 12.9125 14.3975 11.3574 14.3975C10.3025 14.3975 9.24502 14.402 8.18848 14.3936ZM9.3291 2.14062C9.32236 2.15997 9.32246 2.1848 9.35352 2.23438C9.39336 2.2979 9.45139 2.35394 9.52148 2.43262H9.52051C9.99797 2.96789 10.2169 3.59149 10.208 4.30566C10.193 5.48698 10.2032 6.66646 10.2002 7.85156C10.1986 8.54542 10.0698 9.21863 9.84668 9.86816V9.86914C9.49789 10.8828 9.04359 11.8652 8.64844 12.8447C8.61355 12.9311 8.58886 12.9947 8.57031 13.043C8.58409 13.0428 8.59943 13.0433 8.61621 13.043C8.6582 13.0422 8.70836 13.041 8.76562 13.041L12.1074 13.042H15.6465C15.6396 13.0248 15.632 13.0051 15.623 12.9834C15.2813 12.1494 14.938 11.3155 14.5938 10.4824C14.2031 9.53749 13.9956 8.55618 14.0078 7.52637C14.0208 6.42811 14.0127 5.33029 14.0107 4.22949C14.0097 3.71186 14.1343 3.22286 14.4287 2.78418C14.4906 2.69185 14.5602 2.60639 14.626 2.52637C14.6932 2.44467 14.7556 2.36902 14.8125 2.29004L14.8896 2.16992C14.8932 2.16133 14.8935 2.15442 14.8945 2.14941C14.8814 2.15003 14.8652 2.1516 14.8428 2.1543C14.8191 2.15714 14.7843 2.16122 14.75 2.16113V2.16211L9.63672 2.16309C9.58738 2.16309 9.53505 2.156 9.49316 2.15039C9.44762 2.14429 9.41122 2.13927 9.37793 2.1377C9.35336 2.13656 9.33785 2.13904 9.3291 2.14062ZM21.4121 23.9385L21.4111 23.9482C21.3932 24.087 21.3822 24.2644 21.3477 24.4238C21.2214 25.0009 20.9744 25.4686 20.6094 25.8262C20.2446 26.1833 19.7699 26.4225 19.2012 26.5557L19.1846 26.5596H5.02539L5.00684 26.5547C4.72196 26.4772 4.41841 26.3916 4.13965 26.2266C3.43471 25.8086 3.03299 25.1803 2.85352 24.4092L2.84961 24.3926V23.4541L2.85938 23.4287C3.6621 21.281 4.58923 19.1779 5.45117 17.0635C6.4129 14.7052 7.38611 12.3511 8.36523 10C8.70911 9.17402 8.86322 8.31619 8.86914 7.4248C8.87238 6.92559 8.87093 6.42583 8.87012 5.92578C8.86931 5.42587 8.86857 4.92458 8.87207 4.42383C8.87528 3.96178 8.75689 3.57035 8.44336 3.2373C7.95304 2.71688 7.90605 2.07484 7.95801 1.45312C7.98228 1.16274 8.16729 0.991194 8.36035 0.87207L8.39648 0.849609H15.8877L15.9326 0.896484C16.1406 1.11315 16.2529 1.42323 16.2793 1.74902C16.3058 2.0766 16.2467 2.43351 16.0977 2.75488L16.0967 2.75391C16.0023 2.95809 15.8794 3.14512 15.7236 3.30762C15.4504 3.59218 15.3463 3.94154 15.3486 4.33789C15.3557 5.63684 15.3022 6.91515 15.3916 8.19727C15.4355 8.8229 15.6195 9.42198 15.8643 10.0146C17.6103 14.2437 19.3531 18.4738 21.1006 22.7021C21.2551 23.0762 21.3585 23.4601 21.4111 23.8594L21.4121 23.8691V23.9385Z" fill="currentColor" stroke="currentColor" stroke-width="0.3"/>
<path d="M15.6375 16.6745C15.8949 16.6954 16.0491 16.8571 16.1479 17.0988C16.59 18.1777 17.0371 19.2552 17.4817 20.3331C17.611 20.6467 17.7467 20.9579 17.865 21.275C17.9877 21.6045 17.8749 21.8864 17.594 22.0001C17.3071 22.1162 17.0381 21.9991 16.8979 21.6631C16.3116 20.2586 15.7298 18.8527 15.1574 17.4427C14.9963 17.0457 15.2338 16.6745 15.6375 16.674V16.6745Z" fill="currentColor"/>
<path d="M18.098 23.7465C17.8046 23.741 17.5855 23.5107 17.5955 23.217C17.6045 22.9375 17.8295 22.7227 18.1114 22.7227C18.3964 22.7227 18.6324 22.9599 18.6299 23.2437C18.6274 23.5311 18.3939 23.7514 18.098 23.746V23.7465Z" fill="currentColor"/>
</svg>
