<svg width="21" height="19" viewBox="0 0 21 19" fill="none" xmlns="http://www.w3.org/2000/svg">
<path d="M7.82782 8.84109V17.8411M7.82782 8.84109H3.42743C2.86738 8.84109 2.58763 8.84109 2.37372 8.95009C2.18556 9.04596 2.03269 9.19883 1.93681 9.38699C1.82782 9.6009 1.82782 9.88114 1.82782 10.4412V17.8411H7.82782M7.82782 8.84109V3.44119C7.82782 2.88114 7.82782 2.60091 7.93681 2.38699C8.03269 2.19883 8.18556 2.04596 8.37372 1.95009C8.58763 1.84109 8.86738 1.84109 9.42743 1.84109H12.2274C12.7875 1.84109 13.0681 1.84109 13.282 1.95009C13.4702 2.04596 13.6226 2.19883 13.7184 2.38699C13.8274 2.60091 13.8278 2.88114 13.8278 3.44119V5.84109M7.82782 17.8411H13.8278M13.8278 17.8411L19.8278 17.8412V7.44119C19.8278 6.88114 19.8274 6.6009 19.7184 6.38699C19.6226 6.19883 19.4708 6.04596 19.2826 5.95009C19.0687 5.84109 18.7879 5.84109 18.2278 5.84109H13.8278M13.8278 17.8411V5.84109" stroke="currentColor" stroke-width="2" stroke-linecap="round" stroke-linejoin="round"/>
</svg>
