<svg width="32" height="33" viewBox="0 0 32 33" fill="none" xmlns="http://www.w3.org/2000/svg">
<path d="M3.93688 17.1877C3.48087 14.2201 3.25286 12.7364 3.81388 11.4211C4.37489 10.1057 5.61958 9.20577 8.10895 7.40586L9.96889 6.06106C13.0656 3.82201 14.614 2.70248 16.4006 2.70248C18.1871 2.70248 19.7355 3.82201 22.8323 6.06106L24.6922 7.40586C27.1816 9.20577 28.4263 10.1057 28.9873 11.4211C29.5483 12.7364 29.3203 14.2201 28.8643 17.1877L28.4755 19.7181C27.8289 23.9247 27.5058 26.0281 25.9971 27.2829C24.4885 28.5377 22.2828 28.5377 17.8717 28.5377H14.9296C10.5183 28.5377 8.31275 28.5377 6.80409 27.2829C5.29543 26.0281 4.9722 23.9247 4.32576 19.7181L3.93688 17.1877Z" fill="currentColor"/>
<path d="M20.2762 22.0789C19.2435 22.8829 17.8867 23.3707 16.4009 23.3707C14.915 23.3707 13.5584 22.8829 12.5256 22.0789" stroke="white" stroke-width="1.85288" stroke-linecap="round"/>
</svg>
