<svg width="28" height="35" viewBox="0 0 28 35" fill="none" xmlns="http://www.w3.org/2000/svg">
<g filter="url(#filter0_d_1_172)">
<path d="M10.1885 14.397C10.0994 14.3964 10.0526 14.4111 10.0244 14.4293C9.99875 14.4459 9.96947 14.4782 9.94336 14.5562C9.86826 14.7803 9.7612 15.0061 9.67871 15.2086L9.67773 15.2095C9.62969 15.3271 9.64694 15.3697 9.65234 15.3785C9.65835 15.3878 9.68941 15.4206 9.81445 15.4302C10.1822 15.4582 10.4582 15.7167 10.4668 16.0816C10.4709 16.2526 10.4174 16.4112 10.3096 16.5328C10.202 16.6541 10.0487 16.7292 9.87012 16.7515H9.86914C9.66975 16.7761 9.45475 16.7951 9.24219 16.7769C9.13749 16.7678 9.08081 16.786 9.0459 16.8101C9.00991 16.8351 8.97252 16.8834 8.94043 16.983C8.8673 17.2099 8.75998 17.4351 8.67676 17.6382C8.63456 17.7413 8.65288 17.7713 8.65332 17.772C8.65469 17.7741 8.67809 17.8045 8.7959 17.8121C8.97887 17.8239 9.14184 17.8876 9.26172 18.0015C9.38253 18.1164 9.44979 18.2737 9.45605 18.4507C9.46208 18.6267 9.41238 18.7895 9.30176 18.9146C9.19148 19.0392 9.03279 19.1125 8.84668 19.1353C8.62322 19.1628 8.39794 19.1667 8.17969 19.1627H8.17871C8.10991 19.1614 8.07594 19.1747 8.05664 19.188C8.04695 19.1948 8.03571 19.2047 8.02441 19.2213L7.99023 19.2935C7.90197 19.5387 7.79116 19.7817 7.69629 20.0113C7.65224 20.1182 7.66722 20.1537 7.66895 20.1568C7.66902 20.1569 7.68736 20.1859 7.79785 20.1939C8.14987 20.2187 8.42829 20.4618 8.4541 20.8091C8.46735 20.9857 8.41657 21.1486 8.30957 21.2759C8.20348 21.4021 8.04987 21.4847 7.87109 21.5181C7.62964 21.5633 7.38142 21.5474 7.1709 21.5464C7.11718 21.5463 7.09014 21.5564 7.0752 21.566C7.06151 21.5748 7.04234 21.5921 7.02441 21.6373L7.02539 21.6382L6.72266 22.3755C6.67643 22.4884 6.69287 22.5269 6.69629 22.5328C6.69866 22.5367 6.72194 22.5685 6.84082 22.5767C7.20409 22.6017 7.48978 22.861 7.50293 23.2213C7.51541 23.5679 7.2579 23.8362 6.91602 23.9009C6.68521 23.9447 6.43844 23.9262 6.24414 23.9302C6.18005 23.9316 6.17426 23.9476 6.17871 23.942C6.17942 23.9411 6.16737 23.9576 6.17285 24.024C6.21728 24.5551 6.58178 25.0186 7.09082 25.1744C7.2928 25.2361 7.50871 25.2535 7.73633 25.2535H20.5332C20.8541 25.2535 21.1328 25.2006 21.3633 25.0797C21.5912 24.96 21.7826 24.7681 21.9229 24.4722C22.1024 24.0926 22.0534 23.722 21.8887 23.3228C20.6832 20.4013 19.477 17.48 18.2783 14.5552C18.2452 14.4745 18.213 14.4431 18.1865 14.4273C18.1574 14.41 18.1115 14.3976 18.0234 14.398C16.4682 14.4035 14.9125 14.4009 13.3574 14.4009C12.3025 14.4009 11.245 14.4055 10.1885 14.397ZM11.3291 2.1441C11.3224 2.16345 11.3225 2.18828 11.3535 2.23785C11.3934 2.30138 11.4514 2.35741 11.5215 2.4361H11.5205C11.998 2.97137 12.2169 3.59497 12.208 4.30914C12.193 5.49046 12.2032 6.66994 12.2002 7.85504C12.1986 8.5489 12.0698 9.22211 11.8467 9.87164V9.87262C11.4979 10.8863 11.0436 11.8686 10.6484 12.8482C10.6136 12.9346 10.5889 12.9981 10.5703 13.0464C10.5841 13.0463 10.5994 13.0467 10.6162 13.0464C10.6582 13.0457 10.7084 13.0444 10.7656 13.0445L14.1074 13.0455H17.6465C17.6396 13.0283 17.632 13.0086 17.623 12.9869C17.2813 12.1528 16.938 11.319 16.5938 10.4859C16.2031 9.54097 15.9956 8.55966 16.0078 7.52985C16.0208 6.43159 16.0127 5.33377 16.0107 4.23297C16.0097 3.71534 16.1343 3.22634 16.4287 2.78766C16.4906 2.69533 16.5602 2.60987 16.626 2.52985C16.6932 2.44815 16.7556 2.3725 16.8125 2.29352L16.8896 2.1734C16.8932 2.16481 16.8935 2.1579 16.8945 2.15289C16.8814 2.15351 16.8652 2.15508 16.8428 2.15778C16.8191 2.16062 16.7843 2.1647 16.75 2.16461V2.16559L11.6367 2.16656C11.5874 2.16656 11.5351 2.15948 11.4932 2.15387C11.4476 2.14777 11.4112 2.14275 11.3779 2.14117C11.3534 2.14004 11.3379 2.14252 11.3291 2.1441ZM23.4121 23.942L23.4111 23.9517C23.3932 24.0905 23.3822 24.2679 23.3477 24.4273C23.2214 25.0043 22.9744 25.4721 22.6094 25.8297C22.2446 26.1868 21.7699 26.4259 21.2012 26.5591L21.1846 26.563H7.02539L7.00684 26.5582C6.72196 26.4807 6.41841 26.3951 6.13965 26.23C5.43471 25.8121 5.03299 25.1837 4.85352 24.4127L4.84961 24.3961V23.4576L4.85938 23.4322C5.6621 21.2845 6.58923 19.1814 7.45117 17.067C8.4129 14.7087 9.38611 12.3546 10.3652 10.0035C10.7091 9.1775 10.8632 8.31967 10.8691 7.42828C10.8724 6.92907 10.8709 6.42931 10.8701 5.92926C10.8693 5.42935 10.8686 4.92806 10.8721 4.42731C10.8753 3.96526 10.7569 3.57383 10.4434 3.24078C9.95304 2.72036 9.90605 2.07832 9.95801 1.4566C9.98228 1.16621 10.1673 0.994673 10.3604 0.875549L10.3965 0.853088H17.8877L17.9326 0.899963C18.1406 1.11663 18.2529 1.42671 18.2793 1.7525C18.3058 2.08008 18.2467 2.43699 18.0977 2.75836L18.0967 2.75739C18.0023 2.96157 17.8794 3.1486 17.7236 3.3111C17.4504 3.59566 17.3463 3.94502 17.3486 4.34137C17.3557 5.64032 17.3022 6.91863 17.3916 8.20074C17.4355 8.82638 17.6195 9.42546 17.8643 10.0181C19.6103 14.2471 21.3531 18.4773 23.1006 22.7056C23.2551 23.0797 23.3585 23.4636 23.4111 23.8629L23.4121 23.8726V23.942Z" fill="#757575" stroke="#757575" stroke-width="0.3"/>
<path d="M17.6375 16.678C17.8949 16.6988 18.0491 16.8606 18.1479 17.1023C18.59 18.1812 19.0371 19.2586 19.4817 20.3366C19.611 20.6502 19.7467 20.9614 19.865 21.2785C19.9877 21.608 19.8749 21.8899 19.594 22.0036C19.3071 22.1197 19.0381 22.0026 18.8979 21.6666C18.3116 20.2621 17.7298 18.8562 17.1574 17.4462C16.9963 17.0492 17.2338 16.678 17.6375 16.6775V16.678Z" fill="#757575"/>
<path d="M20.098 23.75C19.8046 23.7445 19.5855 23.5142 19.5955 23.2204C19.6045 22.941 19.8295 22.7261 20.1114 22.7261C20.3964 22.7261 20.6324 22.9634 20.6299 23.2472C20.6274 23.5346 20.3939 23.7549 20.098 23.7495V23.75Z" fill="#757575"/>
</g>
<defs>
<filter id="filter0_d_1_172" x="-1.58313" y="0.678711" width="33.4109" height="34.0348" filterUnits="userSpaceOnUse" color-interpolation-filters="sRGB">
<feFlood flood-opacity="0" result="BackgroundImageFix"/>
<feColorMatrix in="SourceAlpha" type="matrix" values="0 0 0 0 0 0 0 0 0 0 0 0 0 0 0 0 0 0 127 0" result="hardAlpha"/>
<feOffset dy="4"/>
<feGaussianBlur stdDeviation="2"/>
<feComposite in2="hardAlpha" operator="out"/>
<feColorMatrix type="matrix" values="0 0 0 0 0 0 0 0 0 0 0 0 0 0 0 0 0 0 0.25 0"/>
<feBlend mode="normal" in2="BackgroundImageFix" result="effect1_dropShadow_1_172"/>
<feBlend mode="normal" in="SourceGraphic" in2="effect1_dropShadow_1_172" result="shape"/>
</filter>
</defs>
</svg>
