<svg width="27" height="27" viewBox="0 0 27 27" fill="none" xmlns="http://www.w3.org/2000/svg">
<path d="M7.82165 17.0705C6.32371 17.9624 2.39619 19.7836 4.78831 22.0627C5.95685 23.1759 7.25829 23.9721 8.89452 23.9721H18.2312C19.8674 23.9721 21.1689 23.1759 22.3374 22.0627C24.7295 19.7836 20.802 17.9624 19.304 17.0705C15.7914 14.9788 11.3343 14.9788 7.82165 17.0705Z" stroke="#757575" stroke-width="1.58818" stroke-linecap="round" stroke-linejoin="round"/>
<path d="M18.3274 7.56088C18.3274 10.1923 16.1942 12.3254 13.5628 12.3254C10.9314 12.3254 8.79828 10.1923 8.79828 7.56088C8.79828 4.92949 10.9314 2.79633 13.5628 2.79633C16.1942 2.79633 18.3274 4.92949 18.3274 7.56088Z" stroke="#757575" stroke-width="1.58818"/>
</svg>
